<?xml version="1.0" encoding="utf-8"?>
<!-- Generator: Adobe Illustrator 21.0.2, SVG Export Plug-In . SVG Version: 6.00 Build 0)  -->
<svg version="1.1" id="Layer_1" xmlns="http://www.w3.org/2000/svg" xmlns:xlink="http://www.w3.org/1999/xlink" x="0px" y="0px"
	 viewBox="0 0 288 288" style="enable-background:new 0 0 288 288;" xml:space="preserve">
<style type="text/css">
	.st0{fill:#EE4036;}
	.st1{fill:#FFFFFF;}
	.st2{fill:#2B388F;}
	.st3{fill:#FFFFFF;stroke:#2B388F;stroke-width:6.0774;stroke-linecap:round;stroke-miterlimit:10;}
	.st4{fill:#25A9E0;stroke:#2B388F;stroke-width:5;stroke-linecap:round;stroke-miterlimit:10;}
	.st5{fill:none;stroke:#EB008B;stroke-width:3;stroke-miterlimit:10;}
	.st6{fill:none;stroke:#EB008B;stroke-width:2.4825;stroke-miterlimit:10;}
	.st7{fill:#25A9E0;stroke:#2B388F;stroke-width:5;stroke-miterlimit:10;}
	.st8{fill:#1B75BB;}
	.st9{fill:#FFC335;}
	.st10{fill:#25A9E0;}
	.st11{fill:#F1F1F2;}
	.st12{clip-path:url(#XMLID_35_);fill:#25A9E0;stroke:#2B388F;stroke-width:4;stroke-miterlimit:10;}
	.st13{fill:#25A9E0;stroke:#2B388F;stroke-width:4;stroke-miterlimit:10;}
	.st14{fill:#F1F1F2;stroke:#2B388F;stroke-width:4;stroke-miterlimit:10;}
	.st15{fill:#1B75BB;stroke:#2B388F;stroke-width:4;stroke-miterlimit:10;}
	.st16{clip-path:url(#XMLID_36_);fill:#25A9E0;stroke:#2B388F;stroke-width:4;stroke-miterlimit:10;}
	.st17{clip-path:url(#XMLID_37_);fill:#25A9E0;stroke:#2B388F;stroke-width:2.4825;stroke-miterlimit:10;}
	.st18{fill:#25A9E0;stroke:#2B388F;stroke-width:2.4825;stroke-miterlimit:10;}
	.st19{fill:#F1F1F2;stroke:#2B388F;stroke-width:3;stroke-miterlimit:10;}
	.st20{fill:#1B75BB;stroke:#2B388F;stroke-width:2.4825;stroke-miterlimit:10;}
	.st21{fill:#231F20;}
	.st22{fill:#25A9E0;stroke:#2B388F;stroke-width:4.6531;stroke-miterlimit:10;}
	.st23{clip-path:url(#XMLID_38_);fill:#25A9E0;stroke:#2B388F;stroke-width:3.7293;stroke-linecap:round;stroke-miterlimit:10;}
	.st24{fill:#F1F1F2;stroke:#2B388F;stroke-width:3.7293;stroke-linecap:round;stroke-miterlimit:10;}
	.st25{fill:#1B75BB;stroke:#2B388F;stroke-width:3.7293;stroke-linecap:round;stroke-miterlimit:10;}
	.st26{fill:#25A9E0;stroke:#2B388F;stroke-width:3.7293;stroke-linecap:round;stroke-miterlimit:10;}
	.st27{clip-path:url(#XMLID_39_);fill:#25A9E0;stroke:#2B388F;stroke-width:5;stroke-miterlimit:10;}
	.st28{fill:#F1F1F2;stroke:#2B388F;stroke-width:5;stroke-miterlimit:10;}
	.st29{fill:#1B75BB;stroke:#2B388F;stroke-width:5;stroke-miterlimit:10;}
	.st30{clip-path:url(#XMLID_40_);fill:#25A9E0;stroke:#2B388F;stroke-width:5;stroke-miterlimit:10;}
	.st31{fill:#25A9E0;stroke:#2B388F;stroke-width:4.1526;stroke-miterlimit:10;}
	.st32{clip-path:url(#XMLID_41_);fill:#25A9E0;stroke:#2B388F;stroke-width:3.7293;stroke-linecap:round;stroke-miterlimit:10;}
	.st33{clip-path:url(#XMLID_42_);fill:#25A9E0;stroke:#2B388F;stroke-width:3.7293;stroke-linecap:round;stroke-miterlimit:10;}
	.st34{clip-path:url(#XMLID_43_);fill:#25A9E0;stroke:#2B388F;stroke-width:3.7293;stroke-linecap:round;stroke-miterlimit:10;}
	.st35{fill:#F1F1F2;stroke:#2B388F;stroke-width:4.3351;stroke-linecap:round;stroke-miterlimit:10;}
	.st36{fill:none;stroke:#2B388F;stroke-width:4.3351;stroke-linecap:round;stroke-miterlimit:10;}
	.st37{clip-path:url(#XMLID_44_);fill:#25A9E0;stroke:#2B388F;stroke-width:3.7293;stroke-linecap:round;stroke-miterlimit:10;}
	
		.st38{clip-path:url(#XMLID_45_);fill:#25A9E0;stroke:#2B388F;stroke-width:3.5905;stroke-linecap:round;stroke-linejoin:round;stroke-miterlimit:10;}
	.st39{fill:#25A9E0;stroke:#2B388F;stroke-width:3.8637;stroke-linecap:round;stroke-miterlimit:10;}
	
		.st40{clip-path:url(#XMLID_46_);fill:#25A9E0;stroke:#2B388F;stroke-width:3.5905;stroke-linecap:round;stroke-linejoin:round;stroke-miterlimit:10;}
	
		.st41{clip-path:url(#XMLID_47_);fill:#25A9E0;stroke:#2B388F;stroke-width:3.5905;stroke-linecap:round;stroke-linejoin:round;stroke-miterlimit:10;}
	
		.st42{clip-path:url(#XMLID_48_);fill:#25A9E0;stroke:#2B388F;stroke-width:3.5905;stroke-linecap:round;stroke-linejoin:round;stroke-miterlimit:10;}
	
		.st43{clip-path:url(#XMLID_49_);fill:#25A9E0;stroke:#2B388F;stroke-width:3.5905;stroke-linecap:round;stroke-linejoin:round;stroke-miterlimit:10;}
	
		.st44{clip-path:url(#XMLID_50_);fill:#25A9E0;stroke:#2B388F;stroke-width:3.5905;stroke-linecap:round;stroke-linejoin:round;stroke-miterlimit:10;}
	
		.st45{clip-path:url(#XMLID_51_);fill:#25A9E0;stroke:#2B388F;stroke-width:3.5905;stroke-linecap:round;stroke-linejoin:round;stroke-miterlimit:10;}
	
		.st46{clip-path:url(#XMLID_52_);fill:#25A9E0;stroke:#2B388F;stroke-width:3.5905;stroke-linecap:round;stroke-linejoin:round;stroke-miterlimit:10;}
	.st47{fill:#F2F2F2;stroke:#2B388F;stroke-width:3.7293;stroke-linecap:round;stroke-miterlimit:10;}
	.st48{fill:#25A9E0;stroke:#2B388F;stroke-width:3.7293;stroke-linecap:round;stroke-linejoin:round;stroke-miterlimit:10;}
	
		.st49{clip-path:url(#XMLID_53_);fill:#25A9E0;stroke:#2B388F;stroke-width:3.7293;stroke-linecap:round;stroke-linejoin:round;stroke-miterlimit:10;}
	
		.st50{clip-path:url(#XMLID_54_);fill:#25A9E0;stroke:#2B388F;stroke-width:3.7293;stroke-linecap:round;stroke-linejoin:round;stroke-miterlimit:10;}
	
		.st51{clip-path:url(#XMLID_55_);fill:#25A9E0;stroke:#2B388F;stroke-width:3.7293;stroke-linecap:round;stroke-linejoin:round;stroke-miterlimit:10;}
	
		.st52{clip-path:url(#XMLID_56_);fill:#25A9E0;stroke:#2B388F;stroke-width:3.7293;stroke-linecap:round;stroke-linejoin:round;stroke-miterlimit:10;}
	
		.st53{clip-path:url(#XMLID_57_);fill:#25A9E0;stroke:#2B388F;stroke-width:3.5905;stroke-linecap:round;stroke-linejoin:round;stroke-miterlimit:10;}
	
		.st54{clip-path:url(#XMLID_58_);fill:#25A9E0;stroke:#2B388F;stroke-width:3.5905;stroke-linecap:round;stroke-linejoin:round;stroke-miterlimit:10;}
	
		.st55{clip-path:url(#XMLID_59_);fill:#25A9E0;stroke:#2B388F;stroke-width:3.307;stroke-linecap:round;stroke-linejoin:round;stroke-miterlimit:10;}
	.st56{fill:#1B75BB;stroke:#2B388F;stroke-width:3.1707;stroke-linecap:round;stroke-miterlimit:10;}
	.st57{fill:#25A9E0;stroke:#2B388F;stroke-width:3.1707;stroke-linecap:round;stroke-miterlimit:10;}
	.st58{fill:#F1F1F2;stroke:#2B388F;stroke-width:3.1707;stroke-linecap:round;stroke-miterlimit:10;}
	
		.st59{clip-path:url(#XMLID_60_);fill:#25A9E0;stroke:#2B388F;stroke-width:3.307;stroke-linecap:round;stroke-linejoin:round;stroke-miterlimit:10;}
	
		.st60{clip-path:url(#XMLID_61_);fill:#25A9E0;stroke:#2B388F;stroke-width:7.04;stroke-linecap:round;stroke-linejoin:round;stroke-miterlimit:10;}
	.st61{fill:#1B75BB;stroke:#2B388F;stroke-width:6.7498;stroke-linecap:round;stroke-miterlimit:10;}
	.st62{fill:#25A9E0;stroke:#2B388F;stroke-width:6.7498;stroke-linecap:round;stroke-miterlimit:10;}
	.st63{fill:#F1F1F2;stroke:#2B388F;stroke-width:6.7498;stroke-linecap:round;stroke-miterlimit:10;}
	.st64{fill:#25A9E0;stroke:#2B388F;stroke-width:20.1204;stroke-linecap:round;stroke-miterlimit:10;}
	
		.st65{clip-path:url(#XMLID_62_);fill:#25A9E0;stroke:#2B388F;stroke-width:10.3806;stroke-linecap:round;stroke-linejoin:round;stroke-miterlimit:10;}
	.st66{fill:#1B75BB;stroke:#2B388F;stroke-width:9.9527;stroke-linecap:round;stroke-miterlimit:10;}
	.st67{fill:#25A9E0;stroke:#2B388F;stroke-width:9.9527;stroke-linecap:round;stroke-miterlimit:10;}
	.st68{fill:#F1F1F2;stroke:#2B388F;stroke-width:9.9527;stroke-linecap:round;stroke-miterlimit:10;}
	
		.st69{clip-path:url(#XMLID_63_);fill:#25A9E0;stroke:#2B388F;stroke-width:3.7293;stroke-linecap:round;stroke-linejoin:round;stroke-miterlimit:10;}
	
		.st70{clip-path:url(#XMLID_64_);fill:#25A9E0;stroke:#2B388F;stroke-width:3.7293;stroke-linecap:round;stroke-linejoin:round;stroke-miterlimit:10;}
	.st71{fill:#F9EC31;}
	.st72{fill:#25A9E0;stroke:#2B388F;stroke-width:16;stroke-linecap:round;stroke-miterlimit:10;}
	.st73{fill:none;stroke:#FFFFFF;stroke-width:16;stroke-linecap:round;stroke-miterlimit:10;}
	.st74{fill:none;stroke:#2B388F;stroke-width:22.1377;stroke-linecap:round;stroke-miterlimit:10;}
	.st75{fill:none;stroke:#FFFFFF;stroke-width:22.1377;stroke-linecap:round;stroke-miterlimit:10;}
	.st76{fill:#37B34A;}
	.st77{fill:#BBBDBF;}
	.st78{fill:#FFFFFF;stroke:#2B388F;stroke-width:13;stroke-miterlimit:10;}
	.st79{fill:#FFFFFF;stroke:#BBBDBF;stroke-width:16.4159;stroke-linecap:round;stroke-miterlimit:10;}
	.st80{fill:#FFFFFF;stroke:#BBBDBF;stroke-width:15.6509;stroke-linecap:round;stroke-miterlimit:10;}
	.st81{fill:#FFFFFF;stroke:#2B388F;stroke-width:15;stroke-linecap:round;stroke-linejoin:round;stroke-miterlimit:10;}
	.st82{fill:#FFFFFF;stroke:#2B388F;stroke-width:12;stroke-linecap:round;stroke-miterlimit:10;}
	.st83{fill:#FFFFFF;stroke:#2B388F;stroke-width:4.5089;stroke-linecap:round;stroke-miterlimit:10;}
	.st84{fill:#FFFFFF;stroke:#2B388F;stroke-width:4.2863;stroke-linecap:round;stroke-miterlimit:10;}
	.st85{fill:#FFFFFF;stroke:#2B388F;stroke-width:2.9509;stroke-linecap:round;stroke-miterlimit:10;}
	.st86{fill:#FFFFFF;stroke:#2B388F;stroke-width:2.5215;stroke-linecap:round;stroke-miterlimit:10;}
	.st87{fill:none;stroke:#BBBDBF;stroke-width:16;stroke-linecap:round;stroke-miterlimit:10;}
	.st88{fill:#6D6E70;}
	.st89{fill:none;stroke:#929497;stroke-width:25;stroke-linecap:round;stroke-miterlimit:10;}
	.st90{fill:none;stroke:#929497;stroke-width:19;stroke-linecap:round;stroke-miterlimit:10;}
	
		.st91{clip-path:url(#XMLID_65_);fill:#25A9E0;stroke:#2B388F;stroke-width:5.9522;stroke-linecap:round;stroke-linejoin:round;stroke-miterlimit:10;}
	.st92{fill:#1B75BB;stroke:#2B388F;stroke-width:5.7069;stroke-linecap:round;stroke-miterlimit:10;}
	.st93{fill:#25A9E0;stroke:#2B388F;stroke-width:5.7069;stroke-linecap:round;stroke-miterlimit:10;}
	.st94{fill:#F1F1F2;stroke:#2B388F;stroke-width:5.7069;stroke-linecap:round;stroke-miterlimit:10;}
	
		.st95{clip-path:url(#XMLID_66_);fill:#25A9E0;stroke:#2B388F;stroke-width:5.9522;stroke-linecap:round;stroke-linejoin:round;stroke-miterlimit:10;}
</style>
<g>
	<path class="st77" d="M209.4,121l-22.9,22l-1.2-5.3c-6.6-29.2-19.7-56.6-38.2-80.1l-4.9-6.2l-3.6,36.1
		c-2.2,22.3-14.9,42.3-34.2,53.7l-2.9,1.7l-22.9-22c-6.9,11.5-10.9,24.9-10.9,39.3c0,0.1,0,0.1,0,0.2h0c0.1,21.7,9.2,41.2,23.7,55.1
		c0,0,0,0,0,0c0.4,0.4,0.9,0.8,1.3,1.2c0,0,0,0,0,0c0.4,0.4,0.9,0.8,1.3,1.2c0,0,0,0,0.1,0.1c0.4,0.4,0.9,0.8,1.3,1.1
		c0,0,0.1,0.1,0.1,0.1c0.4,0.4,0.9,0.7,1.3,1.1c0,0,0.1,0.1,0.1,0.1c0.4,0.3,0.9,0.7,1.3,1c0,0,0.1,0.1,0.1,0.1
		c0.4,0.3,0.9,0.7,1.3,1c0.1,0,0.1,0.1,0.2,0.1c0.4,0.3,0.9,0.6,1.3,0.9c0.1,0,0.1,0.1,0.2,0.1c0.4,0.3,0.9,0.6,1.3,0.9
		c0.1,0,0.2,0.1,0.2,0.1c0.4,0.3,0.9,0.6,1.3,0.8c0.1,0.1,0.2,0.1,0.3,0.2c0.4,0.3,0.9,0.5,1.3,0.8c0.1,0.1,0.2,0.1,0.3,0.2
		c0.4,0.2,0.9,0.5,1.3,0.7c0.1,0.1,0.2,0.1,0.3,0.2c0.4,0.2,0.9,0.5,1.3,0.7c0.1,0.1,0.3,0.1,0.4,0.2c0.4,0.2,0.8,0.4,1.3,0.6
		c0.1,0.1,0.3,0.1,0.4,0.2c0.4,0.2,0.8,0.4,1.3,0.6c0.1,0.1,0.3,0.1,0.4,0.2c0.4,0.2,0.8,0.4,1.3,0.5c0.2,0.1,0.3,0.1,0.5,0.2
		c0.4,0.2,0.8,0.3,1.2,0.5c0.2,0.1,0.3,0.1,0.5,0.2c0.4,0.2,0.8,0.3,1.2,0.5c0.2,0.1,0.4,0.1,0.5,0.2c0.4,0.1,0.8,0.3,1.2,0.4
		c0.2,0.1,0.4,0.1,0.6,0.2c0.4,0.1,0.8,0.3,1.2,0.4c0.2,0.1,0.4,0.1,0.6,0.2c0.4,0.1,0.8,0.2,1.2,0.4c0.2,0.1,0.4,0.1,0.7,0.2
		c0.4,0.1,0.8,0.2,1.2,0.3c0.2,0.1,0.5,0.1,0.7,0.2c0.4,0.1,0.8,0.2,1.1,0.3c0.2,0.1,0.5,0.1,0.7,0.2c0.4,0.1,0.8,0.2,1.1,0.2
		c0.2,0,0.5,0.1,0.7,0.1c0.4,0.1,0.8,0.2,1.2,0.2c0.3,0,0.5,0.1,0.8,0.1c0.4,0.1,0.8,0.1,1.1,0.2c0.3,0,0.5,0.1,0.8,0.1
		c0.4,0.1,0.7,0.1,1.1,0.2c0.3,0,0.6,0.1,0.9,0.1c0.3,0,0.7,0.1,1,0.1c0.3,0,0.6,0.1,0.9,0.1c0.3,0,0.7,0.1,1,0.1
		c0.3,0,0.6,0,0.8,0.1c0.4,0,0.7,0.1,1.1,0.1c0.3,0,0.5,0,0.8,0c0.4,0,0.8,0,1.2,0c0.2,0,0.3,0,0.5,0c0.5,0,1,0,1.5,0
		c0.5,0,0.9,0,1.4,0c0.2,0,0.4,0,0.6,0c0.4,0,0.7,0,1.1,0c0.3,0,0.6,0,0.9,0c0.3,0,0.7,0,1-0.1c0.3,0,0.6,0,0.9-0.1
		c0.3,0,0.6-0.1,0.9-0.1c0.3,0,0.7-0.1,1-0.1c0.3,0,0.6-0.1,0.9-0.1c0.3,0,0.7-0.1,1-0.1c0.3,0,0.7-0.1,1-0.1c0.3,0,0.6-0.1,0.9-0.1
		c0.3-0.1,0.7-0.1,1-0.2c0.3,0,0.6-0.1,0.8-0.1c0.4-0.1,0.7-0.1,1.1-0.2c0.3-0.1,0.5-0.1,0.8-0.2c0.3-0.1,0.7-0.2,1-0.2
		c0.3-0.1,0.5-0.1,0.8-0.2c0.3-0.1,0.7-0.2,1-0.3c0.3-0.1,0.5-0.1,0.8-0.2c0.4-0.1,0.7-0.2,1.1-0.3c0.2-0.1,0.5-0.1,0.7-0.2
		c0.4-0.1,0.7-0.2,1.1-0.3c0.2-0.1,0.5-0.1,0.7-0.2c0.4-0.1,0.7-0.2,1.1-0.4c0.2-0.1,0.4-0.1,0.7-0.2c0.4-0.1,0.7-0.3,1.1-0.4
		c0.2-0.1,0.4-0.1,0.6-0.2c0.4-0.1,0.8-0.3,1.1-0.4c0.2-0.1,0.4-0.2,0.6-0.2c0.4-0.2,0.8-0.3,1.1-0.5c0.2-0.1,0.4-0.2,0.6-0.2
		c0.4-0.2,0.8-0.3,1.2-0.5c0.2-0.1,0.4-0.2,0.5-0.2c0.4-0.2,0.8-0.4,1.2-0.6c0.2-0.1,0.3-0.2,0.5-0.2c0.4-0.2,0.8-0.4,1.2-0.6
		c0.2-0.1,0.3-0.2,0.5-0.2c0.4-0.2,0.8-0.4,1.2-0.6c0.1-0.1,0.3-0.2,0.4-0.2c0.4-0.2,0.8-0.5,1.2-0.7c0.1-0.1,0.3-0.1,0.4-0.2
		c0.4-0.2,0.8-0.5,1.2-0.7c0.1-0.1,0.2-0.1,0.3-0.2c0.4-0.3,0.8-0.5,1.2-0.8c0.1-0.1,0.2-0.1,0.3-0.2c0.4-0.3,0.8-0.5,1.2-0.8
		c0.1-0.1,0.2-0.1,0.3-0.2c0.4-0.3,0.8-0.6,1.2-0.9c0.1-0.1,0.2-0.1,0.3-0.2c0.4-0.3,0.8-0.6,1.3-0.9c0.1-0.1,0.2-0.1,0.2-0.2
		c0.4-0.3,0.8-0.6,1.3-1c0.1-0.1,0.1-0.1,0.2-0.2c0.4-0.3,0.8-0.7,1.3-1c0.1,0,0.1-0.1,0.2-0.1c0.4-0.4,0.8-0.7,1.3-1.1
		c0,0,0.1-0.1,0.1-0.1c0.4-0.4,0.8-0.7,1.3-1.1c0,0,0.1-0.1,0.1-0.1c0.4-0.4,0.8-0.8,1.3-1.2c0,0,0.1,0,0.1-0.1
		c0.4-0.4,0.8-0.8,1.2-1.2c0,0,0,0,0.1-0.1c0.4-0.4,0.8-0.8,1.2-1.2c0,0,0,0,0.1-0.1c0.4-0.4,0.8-0.9,1.2-1.3c0,0,0,0,0,0
		c0.4-0.4,0.8-0.9,1.2-1.4c0,0,0,0,0,0c10.8-12.4,17.6-28.4,18.6-45.9l0,0c0-0.6,0.1-1.3,0.1-1.9l0,0c0-0.6,0-1.3,0-1.9
		c0-0.1,0-0.2,0-0.2C220.3,145.9,216.3,132.5,209.4,121z"/>
</g>
</svg>
