<?xml version="1.0" encoding="utf-8"?>
<!-- Generator: Adobe Illustrator 21.0.2, SVG Export Plug-In . SVG Version: 6.00 Build 0)  -->
<svg version="1.1" id="Layer_1" xmlns="http://www.w3.org/2000/svg" xmlns:xlink="http://www.w3.org/1999/xlink" x="0px" y="0px"
	 viewBox="0 0 288 288" style="enable-background:new 0 0 288 288;" xml:space="preserve">
<style type="text/css">
	.st0{fill:#EE4036;}
	.st1{fill:#FFFFFF;}
	.st2{fill:#2B388F;}
	.st3{fill:#FFFFFF;stroke:#2B388F;stroke-width:6.0774;stroke-linecap:round;stroke-miterlimit:10;}
	.st4{fill:#25A9E0;stroke:#2B388F;stroke-width:5;stroke-linecap:round;stroke-miterlimit:10;}
	.st5{fill:none;stroke:#EB008B;stroke-width:3;stroke-miterlimit:10;}
	.st6{fill:none;stroke:#EB008B;stroke-width:2.4825;stroke-miterlimit:10;}
	.st7{fill:#25A9E0;stroke:#2B388F;stroke-width:5;stroke-miterlimit:10;}
	.st8{fill:#1B75BB;}
	.st9{fill:#FFC335;}
	.st10{fill:#25A9E0;}
	.st11{fill:#F1F1F2;}
	.st12{clip-path:url(#XMLID_35_);fill:#25A9E0;stroke:#2B388F;stroke-width:4;stroke-miterlimit:10;}
	.st13{fill:#25A9E0;stroke:#2B388F;stroke-width:4;stroke-miterlimit:10;}
	.st14{fill:#F1F1F2;stroke:#2B388F;stroke-width:4;stroke-miterlimit:10;}
	.st15{fill:#1B75BB;stroke:#2B388F;stroke-width:4;stroke-miterlimit:10;}
	.st16{clip-path:url(#XMLID_36_);fill:#25A9E0;stroke:#2B388F;stroke-width:4;stroke-miterlimit:10;}
	.st17{clip-path:url(#XMLID_37_);fill:#25A9E0;stroke:#2B388F;stroke-width:2.4825;stroke-miterlimit:10;}
	.st18{fill:#25A9E0;stroke:#2B388F;stroke-width:2.4825;stroke-miterlimit:10;}
	.st19{fill:#F1F1F2;stroke:#2B388F;stroke-width:3;stroke-miterlimit:10;}
	.st20{fill:#1B75BB;stroke:#2B388F;stroke-width:2.4825;stroke-miterlimit:10;}
	.st21{fill:#231F20;}
	.st22{fill:#25A9E0;stroke:#2B388F;stroke-width:4.6531;stroke-miterlimit:10;}
	.st23{clip-path:url(#XMLID_38_);fill:#25A9E0;stroke:#2B388F;stroke-width:3.7293;stroke-linecap:round;stroke-miterlimit:10;}
	.st24{fill:#F1F1F2;stroke:#2B388F;stroke-width:3.7293;stroke-linecap:round;stroke-miterlimit:10;}
	.st25{fill:#1B75BB;stroke:#2B388F;stroke-width:3.7293;stroke-linecap:round;stroke-miterlimit:10;}
	.st26{fill:#25A9E0;stroke:#2B388F;stroke-width:3.7293;stroke-linecap:round;stroke-miterlimit:10;}
	.st27{clip-path:url(#XMLID_39_);fill:#25A9E0;stroke:#2B388F;stroke-width:5;stroke-miterlimit:10;}
	.st28{fill:#F1F1F2;stroke:#2B388F;stroke-width:5;stroke-miterlimit:10;}
	.st29{fill:#1B75BB;stroke:#2B388F;stroke-width:5;stroke-miterlimit:10;}
	.st30{clip-path:url(#XMLID_40_);fill:#25A9E0;stroke:#2B388F;stroke-width:5;stroke-miterlimit:10;}
	.st31{fill:#25A9E0;stroke:#2B388F;stroke-width:4.1526;stroke-miterlimit:10;}
	.st32{clip-path:url(#XMLID_41_);fill:#25A9E0;stroke:#2B388F;stroke-width:3.7293;stroke-linecap:round;stroke-miterlimit:10;}
	.st33{clip-path:url(#XMLID_42_);fill:#25A9E0;stroke:#2B388F;stroke-width:3.7293;stroke-linecap:round;stroke-miterlimit:10;}
	.st34{clip-path:url(#XMLID_43_);fill:#25A9E0;stroke:#2B388F;stroke-width:3.7293;stroke-linecap:round;stroke-miterlimit:10;}
	.st35{fill:#F1F1F2;stroke:#2B388F;stroke-width:4.3351;stroke-linecap:round;stroke-miterlimit:10;}
	.st36{fill:none;stroke:#2B388F;stroke-width:4.3351;stroke-linecap:round;stroke-miterlimit:10;}
	.st37{clip-path:url(#XMLID_44_);fill:#25A9E0;stroke:#2B388F;stroke-width:3.7293;stroke-linecap:round;stroke-miterlimit:10;}
	
		.st38{clip-path:url(#XMLID_45_);fill:#25A9E0;stroke:#2B388F;stroke-width:3.5905;stroke-linecap:round;stroke-linejoin:round;stroke-miterlimit:10;}
	.st39{fill:#25A9E0;stroke:#2B388F;stroke-width:3.8637;stroke-linecap:round;stroke-miterlimit:10;}
	
		.st40{clip-path:url(#XMLID_46_);fill:#25A9E0;stroke:#2B388F;stroke-width:3.5905;stroke-linecap:round;stroke-linejoin:round;stroke-miterlimit:10;}
	
		.st41{clip-path:url(#XMLID_47_);fill:#25A9E0;stroke:#2B388F;stroke-width:3.5905;stroke-linecap:round;stroke-linejoin:round;stroke-miterlimit:10;}
	
		.st42{clip-path:url(#XMLID_48_);fill:#25A9E0;stroke:#2B388F;stroke-width:3.5905;stroke-linecap:round;stroke-linejoin:round;stroke-miterlimit:10;}
	
		.st43{clip-path:url(#XMLID_49_);fill:#25A9E0;stroke:#2B388F;stroke-width:3.5905;stroke-linecap:round;stroke-linejoin:round;stroke-miterlimit:10;}
	
		.st44{clip-path:url(#XMLID_50_);fill:#25A9E0;stroke:#2B388F;stroke-width:3.5905;stroke-linecap:round;stroke-linejoin:round;stroke-miterlimit:10;}
	
		.st45{clip-path:url(#XMLID_51_);fill:#25A9E0;stroke:#2B388F;stroke-width:3.5905;stroke-linecap:round;stroke-linejoin:round;stroke-miterlimit:10;}
	
		.st46{clip-path:url(#XMLID_52_);fill:#25A9E0;stroke:#2B388F;stroke-width:3.5905;stroke-linecap:round;stroke-linejoin:round;stroke-miterlimit:10;}
	.st47{fill:#F2F2F2;stroke:#2B388F;stroke-width:3.7293;stroke-linecap:round;stroke-miterlimit:10;}
	.st48{fill:#25A9E0;stroke:#2B388F;stroke-width:3.7293;stroke-linecap:round;stroke-linejoin:round;stroke-miterlimit:10;}
	
		.st49{clip-path:url(#XMLID_53_);fill:#25A9E0;stroke:#2B388F;stroke-width:3.7293;stroke-linecap:round;stroke-linejoin:round;stroke-miterlimit:10;}
	
		.st50{clip-path:url(#XMLID_54_);fill:#25A9E0;stroke:#2B388F;stroke-width:3.7293;stroke-linecap:round;stroke-linejoin:round;stroke-miterlimit:10;}
	
		.st51{clip-path:url(#XMLID_55_);fill:#25A9E0;stroke:#2B388F;stroke-width:3.7293;stroke-linecap:round;stroke-linejoin:round;stroke-miterlimit:10;}
	
		.st52{clip-path:url(#XMLID_56_);fill:#25A9E0;stroke:#2B388F;stroke-width:3.7293;stroke-linecap:round;stroke-linejoin:round;stroke-miterlimit:10;}
	
		.st53{clip-path:url(#XMLID_57_);fill:#25A9E0;stroke:#2B388F;stroke-width:3.5905;stroke-linecap:round;stroke-linejoin:round;stroke-miterlimit:10;}
	
		.st54{clip-path:url(#XMLID_58_);fill:#25A9E0;stroke:#2B388F;stroke-width:3.5905;stroke-linecap:round;stroke-linejoin:round;stroke-miterlimit:10;}
	
		.st55{clip-path:url(#XMLID_59_);fill:#25A9E0;stroke:#2B388F;stroke-width:3.307;stroke-linecap:round;stroke-linejoin:round;stroke-miterlimit:10;}
	.st56{fill:#1B75BB;stroke:#2B388F;stroke-width:3.1707;stroke-linecap:round;stroke-miterlimit:10;}
	.st57{fill:#25A9E0;stroke:#2B388F;stroke-width:3.1707;stroke-linecap:round;stroke-miterlimit:10;}
	.st58{fill:#F1F1F2;stroke:#2B388F;stroke-width:3.1707;stroke-linecap:round;stroke-miterlimit:10;}
	
		.st59{clip-path:url(#XMLID_60_);fill:#25A9E0;stroke:#2B388F;stroke-width:3.307;stroke-linecap:round;stroke-linejoin:round;stroke-miterlimit:10;}
	
		.st60{clip-path:url(#XMLID_61_);fill:#25A9E0;stroke:#2B388F;stroke-width:7.04;stroke-linecap:round;stroke-linejoin:round;stroke-miterlimit:10;}
	.st61{fill:#1B75BB;stroke:#2B388F;stroke-width:6.7498;stroke-linecap:round;stroke-miterlimit:10;}
	.st62{fill:#25A9E0;stroke:#2B388F;stroke-width:6.7498;stroke-linecap:round;stroke-miterlimit:10;}
	.st63{fill:#F1F1F2;stroke:#2B388F;stroke-width:6.7498;stroke-linecap:round;stroke-miterlimit:10;}
	.st64{fill:#25A9E0;stroke:#2B388F;stroke-width:20.1204;stroke-linecap:round;stroke-miterlimit:10;}
	
		.st65{clip-path:url(#XMLID_62_);fill:#25A9E0;stroke:#2B388F;stroke-width:10.3806;stroke-linecap:round;stroke-linejoin:round;stroke-miterlimit:10;}
	.st66{fill:#1B75BB;stroke:#2B388F;stroke-width:9.9527;stroke-linecap:round;stroke-miterlimit:10;}
	.st67{fill:#25A9E0;stroke:#2B388F;stroke-width:9.9527;stroke-linecap:round;stroke-miterlimit:10;}
	.st68{fill:#F1F1F2;stroke:#2B388F;stroke-width:9.9527;stroke-linecap:round;stroke-miterlimit:10;}
	
		.st69{clip-path:url(#XMLID_63_);fill:#25A9E0;stroke:#2B388F;stroke-width:3.7293;stroke-linecap:round;stroke-linejoin:round;stroke-miterlimit:10;}
	
		.st70{clip-path:url(#XMLID_64_);fill:#25A9E0;stroke:#2B388F;stroke-width:3.7293;stroke-linecap:round;stroke-linejoin:round;stroke-miterlimit:10;}
	.st71{fill:#F9EC31;}
	.st72{fill:#25A9E0;stroke:#2B388F;stroke-width:16;stroke-linecap:round;stroke-miterlimit:10;}
	.st73{fill:none;stroke:#FFFFFF;stroke-width:16;stroke-linecap:round;stroke-miterlimit:10;}
	.st74{fill:none;stroke:#2B388F;stroke-width:22.1377;stroke-linecap:round;stroke-miterlimit:10;}
	.st75{fill:none;stroke:#FFFFFF;stroke-width:22.1377;stroke-linecap:round;stroke-miterlimit:10;}
	.st76{fill:#37B34A;}
	.st77{fill:#BBBDBF;}
	.st78{fill:#FFFFFF;stroke:#2B388F;stroke-width:13;stroke-miterlimit:10;}
	.st79{fill:#FFFFFF;stroke:#BBBDBF;stroke-width:16.4159;stroke-linecap:round;stroke-miterlimit:10;}
	.st80{fill:#FFFFFF;stroke:#BBBDBF;stroke-width:15.6509;stroke-linecap:round;stroke-miterlimit:10;}
	.st81{fill:#FFFFFF;stroke:#2B388F;stroke-width:15;stroke-linecap:round;stroke-linejoin:round;stroke-miterlimit:10;}
	.st82{fill:#FFFFFF;stroke:#2B388F;stroke-width:12;stroke-linecap:round;stroke-miterlimit:10;}
	.st83{fill:#FFFFFF;stroke:#2B388F;stroke-width:4.5089;stroke-linecap:round;stroke-miterlimit:10;}
	.st84{fill:#FFFFFF;stroke:#2B388F;stroke-width:4.2863;stroke-linecap:round;stroke-miterlimit:10;}
	.st85{fill:#FFFFFF;stroke:#2B388F;stroke-width:2.9509;stroke-linecap:round;stroke-miterlimit:10;}
	.st86{fill:#FFFFFF;stroke:#2B388F;stroke-width:2.5215;stroke-linecap:round;stroke-miterlimit:10;}
	.st87{fill:none;stroke:#BBBDBF;stroke-width:16;stroke-linecap:round;stroke-miterlimit:10;}
	.st88{fill:#6D6E70;}
	.st89{fill:none;stroke:#929497;stroke-width:25;stroke-linecap:round;stroke-miterlimit:10;}
	.st90{fill:none;stroke:#929497;stroke-width:19;stroke-linecap:round;stroke-miterlimit:10;}
	
		.st91{clip-path:url(#XMLID_65_);fill:#25A9E0;stroke:#2B388F;stroke-width:5.9522;stroke-linecap:round;stroke-linejoin:round;stroke-miterlimit:10;}
	.st92{fill:#1B75BB;stroke:#2B388F;stroke-width:5.7069;stroke-linecap:round;stroke-miterlimit:10;}
	.st93{fill:#25A9E0;stroke:#2B388F;stroke-width:5.7069;stroke-linecap:round;stroke-miterlimit:10;}
	.st94{fill:#F1F1F2;stroke:#2B388F;stroke-width:5.7069;stroke-linecap:round;stroke-miterlimit:10;}
	
		.st95{clip-path:url(#XMLID_66_);fill:#25A9E0;stroke:#2B388F;stroke-width:5.9522;stroke-linecap:round;stroke-linejoin:round;stroke-miterlimit:10;}
</style>
<g>
	<path class="st0" d="M144,263.2c-6.4,0-12.1-3.5-15-9.2L76.3,150.2l-0.1-0.1c-1.2-2.7-12-26.5-12-42c0-44,35.8-79.7,79.7-79.7
		c0.6,0,1.2,0,1.8,0c41.6,0.9,75.8,34.1,77.9,75.6c0.8,15.2-2.8,30.2-10.2,43.3L159,254C156.1,259.7,150.4,263.2,144,263.2
		L144,263.2z"/>
	<path class="st1" d="M144,35.3c0.5,0,1.1,0,1.6,0c37.9,0.8,69.1,31.1,71,69c0.7,14.5-2.8,28.1-9.4,39.7l-54.5,106.8
		c-1.8,3.6-5.3,5.4-8.8,5.4c-3.5,0-7-1.8-8.8-5.4L82.6,147.1c0,0-11.4-24.7-11.4-39.1C71.3,67.9,103.8,35.3,144,35.3 M144,21.3
		c-47.8,0-86.7,38.9-86.7,86.7c0,17,11.4,42.1,12.7,44.9l0.1,0.2l0.1,0.2l52.6,103.6c4.1,8,12.2,13,21.3,13c9,0,17.1-5,21.2-13
		l54.3-106.5c8.1-14.3,11.9-30.5,11.1-47c-2.3-45.2-39.5-81.3-84.7-82.3C145.3,21.3,144.6,21.3,144,21.3L144,21.3z"/>
	<path class="st2" d="M144,35.3c0.5,0,1.1,0,1.6,0c37.9,0.8,69.1,31.1,71,69c0.7,14.5-2.8,28.1-9.4,39.7l-54.5,106.8
		c-1.8,3.6-5.3,5.4-8.8,5.4c-3.5,0-7-1.8-8.8-5.4L82.6,147.1c0,0-11.4-24.7-11.4-39.1C71.3,67.9,103.8,35.3,144,35.3 M144,24.3
		c-46.2,0-83.7,37.6-83.7,83.7c0,16.3,11.1,40.9,12.4,43.7l0.1,0.2l0.1,0.2l52.6,103.6c3.6,7,10.7,11.4,18.6,11.4
		c7.9,0,15-4.4,18.6-11.4l54.3-106.6c7.8-13.8,11.5-29.5,10.7-45.4c-2.2-43.6-38.1-78.5-81.8-79.4C145.2,24.3,144.6,24.3,144,24.3
		L144,24.3z"/>
</g>
<g>
	<g>
		<path class="st1" d="M134.6,173.7c-2.3,0-4.4-0.9-6.1-2.5c-1.7-1.7-2.5-3.8-2.5-6.1v-15.4c0-2.3,0.9-4.4,2.5-6.1
			c1.7-1.7,3.8-2.5,6.1-2.5h19.2c2.3,0,4.4,0.9,6.1,2.5c1.7,1.7,2.5,3.8,2.5,6.1v15.4c0,2.3-0.9,4.4-2.5,6.1
			c-1.7,1.7-3.8,2.5-6.1,2.5H134.6z M134.6,140.9c-2.3,0-4.4-0.9-6.1-2.5c-1.7-1.6-2.5-3.8-2.5-6.1V66.6c0-2.3,0.9-4.4,2.5-6.1
			c1.7-1.7,3.8-2.5,6.1-2.5h19.2c2.3,0,4.4,0.9,6.1,2.5c1.7,1.7,2.5,3.8,2.5,6.1v65.7c0,2.3-0.9,4.4-2.5,6.1
			c-1.7,1.7-3.8,2.5-6.1,2.5H134.6z"/>
		<path class="st2" d="M153.8,62.5c1.1,0,2.1,0.4,2.9,1.2c0.8,0.8,1.2,1.8,1.2,2.9v65.7c0,1.1-0.4,2.1-1.2,2.9
			c-0.8,0.8-1.8,1.2-2.9,1.2h-19.2c-1.1,0-2.1-0.4-2.9-1.2c-0.8-0.8-1.2-1.8-1.2-2.9V66.6c0-1.1,0.4-2.1,1.2-2.9
			c0.8-0.8,1.8-1.2,2.9-1.2H153.8 M153.8,145.6c1.1,0,2.1,0.4,2.9,1.2c0.8,0.8,1.2,1.8,1.2,2.9v15.4c0,1.1-0.4,2.1-1.2,2.9
			c-0.8,0.8-1.8,1.2-2.9,1.2h-19.2c-1.1,0-2.1-0.4-2.9-1.2c-0.8-0.8-1.2-1.8-1.2-2.9v-15.4c0-1.1,0.4-2.1,1.2-2.9
			c0.8-0.8,1.8-1.2,2.9-1.2H153.8 M153.8,53.5h-19.2c-3.5,0-6.8,1.4-9.3,3.9c-2.5,2.5-3.9,5.8-3.9,9.3v65.7c0,3.2,1.2,6.3,3.3,8.7
			c-2.1,2.4-3.3,5.5-3.3,8.7v15.4c0,3.5,1.4,6.8,3.9,9.3c2.5,2.5,5.8,3.8,9.3,3.8h19.2c3.5,0,6.8-1.4,9.3-3.9
			c2.5-2.5,3.9-5.8,3.9-9.3v-15.4c0-3.2-1.2-6.3-3.3-8.7c2.1-2.4,3.3-5.5,3.3-8.7V66.6c0-3.5-1.4-6.8-3.8-9.2
			C160.6,54.8,157.3,53.5,153.8,53.5L153.8,53.5z"/>
	</g>
</g>
</svg>
