<?xml version="1.0" encoding="utf-8"?>
<!-- Generator: Adobe Illustrator 21.0.2, SVG Export Plug-In . SVG Version: 6.00 Build 0)  -->
<svg version="1.1" id="Layer_1" xmlns="http://www.w3.org/2000/svg" xmlns:xlink="http://www.w3.org/1999/xlink" x="0px" y="0px"
	 viewBox="0 0 288 288" style="enable-background:new 0 0 288 288;" xml:space="preserve">
<style type="text/css">
	.st0{fill:#EE4036;}
	.st1{fill:#FFFFFF;}
	.st2{fill:#2B388F;}
	.st3{fill:#FFFFFF;stroke:#2B388F;stroke-width:6.0774;stroke-linecap:round;stroke-miterlimit:10;}
	.st4{fill:#25A9E0;stroke:#2B388F;stroke-width:5;stroke-linecap:round;stroke-miterlimit:10;}
	.st5{fill:none;stroke:#EB008B;stroke-width:3;stroke-miterlimit:10;}
	.st6{fill:none;stroke:#EB008B;stroke-width:2.4825;stroke-miterlimit:10;}
	.st7{fill:#25A9E0;stroke:#2B388F;stroke-width:5;stroke-miterlimit:10;}
	.st8{fill:#1B75BB;}
	.st9{fill:#FFC335;}
	.st10{fill:#25A9E0;}
	.st11{fill:#F1F1F2;}
	.st12{clip-path:url(#XMLID_35_);fill:#25A9E0;stroke:#2B388F;stroke-width:4;stroke-miterlimit:10;}
	.st13{fill:#25A9E0;stroke:#2B388F;stroke-width:4;stroke-miterlimit:10;}
	.st14{fill:#F1F1F2;stroke:#2B388F;stroke-width:4;stroke-miterlimit:10;}
	.st15{fill:#1B75BB;stroke:#2B388F;stroke-width:4;stroke-miterlimit:10;}
	.st16{clip-path:url(#XMLID_36_);fill:#25A9E0;stroke:#2B388F;stroke-width:4;stroke-miterlimit:10;}
	.st17{clip-path:url(#XMLID_37_);fill:#25A9E0;stroke:#2B388F;stroke-width:2.4825;stroke-miterlimit:10;}
	.st18{fill:#25A9E0;stroke:#2B388F;stroke-width:2.4825;stroke-miterlimit:10;}
	.st19{fill:#F1F1F2;stroke:#2B388F;stroke-width:3;stroke-miterlimit:10;}
	.st20{fill:#1B75BB;stroke:#2B388F;stroke-width:2.4825;stroke-miterlimit:10;}
	.st21{fill:#231F20;}
	.st22{fill:#25A9E0;stroke:#2B388F;stroke-width:4.6531;stroke-miterlimit:10;}
	.st23{clip-path:url(#XMLID_38_);fill:#25A9E0;stroke:#2B388F;stroke-width:3.7293;stroke-linecap:round;stroke-miterlimit:10;}
	.st24{fill:#F1F1F2;stroke:#2B388F;stroke-width:3.7293;stroke-linecap:round;stroke-miterlimit:10;}
	.st25{fill:#1B75BB;stroke:#2B388F;stroke-width:3.7293;stroke-linecap:round;stroke-miterlimit:10;}
	.st26{fill:#25A9E0;stroke:#2B388F;stroke-width:3.7293;stroke-linecap:round;stroke-miterlimit:10;}
	.st27{clip-path:url(#XMLID_39_);fill:#25A9E0;stroke:#2B388F;stroke-width:5;stroke-miterlimit:10;}
	.st28{fill:#F1F1F2;stroke:#2B388F;stroke-width:5;stroke-miterlimit:10;}
	.st29{fill:#1B75BB;stroke:#2B388F;stroke-width:5;stroke-miterlimit:10;}
	.st30{clip-path:url(#XMLID_40_);fill:#25A9E0;stroke:#2B388F;stroke-width:5;stroke-miterlimit:10;}
	.st31{fill:#25A9E0;stroke:#2B388F;stroke-width:4.1526;stroke-miterlimit:10;}
	.st32{clip-path:url(#XMLID_41_);fill:#25A9E0;stroke:#2B388F;stroke-width:3.7293;stroke-linecap:round;stroke-miterlimit:10;}
	.st33{clip-path:url(#XMLID_42_);fill:#25A9E0;stroke:#2B388F;stroke-width:3.7293;stroke-linecap:round;stroke-miterlimit:10;}
	.st34{clip-path:url(#XMLID_43_);fill:#25A9E0;stroke:#2B388F;stroke-width:3.7293;stroke-linecap:round;stroke-miterlimit:10;}
	.st35{fill:#F1F1F2;stroke:#2B388F;stroke-width:4.3351;stroke-linecap:round;stroke-miterlimit:10;}
	.st36{fill:none;stroke:#2B388F;stroke-width:4.3351;stroke-linecap:round;stroke-miterlimit:10;}
	.st37{clip-path:url(#XMLID_44_);fill:#25A9E0;stroke:#2B388F;stroke-width:3.7293;stroke-linecap:round;stroke-miterlimit:10;}
	
		.st38{clip-path:url(#XMLID_45_);fill:#25A9E0;stroke:#2B388F;stroke-width:3.5905;stroke-linecap:round;stroke-linejoin:round;stroke-miterlimit:10;}
	.st39{fill:#25A9E0;stroke:#2B388F;stroke-width:3.8637;stroke-linecap:round;stroke-miterlimit:10;}
	
		.st40{clip-path:url(#XMLID_46_);fill:#25A9E0;stroke:#2B388F;stroke-width:3.5905;stroke-linecap:round;stroke-linejoin:round;stroke-miterlimit:10;}
	
		.st41{clip-path:url(#XMLID_47_);fill:#25A9E0;stroke:#2B388F;stroke-width:3.5905;stroke-linecap:round;stroke-linejoin:round;stroke-miterlimit:10;}
	
		.st42{clip-path:url(#XMLID_48_);fill:#25A9E0;stroke:#2B388F;stroke-width:3.5905;stroke-linecap:round;stroke-linejoin:round;stroke-miterlimit:10;}
	
		.st43{clip-path:url(#XMLID_49_);fill:#25A9E0;stroke:#2B388F;stroke-width:3.5905;stroke-linecap:round;stroke-linejoin:round;stroke-miterlimit:10;}
	
		.st44{clip-path:url(#XMLID_50_);fill:#25A9E0;stroke:#2B388F;stroke-width:3.5905;stroke-linecap:round;stroke-linejoin:round;stroke-miterlimit:10;}
	
		.st45{clip-path:url(#XMLID_51_);fill:#25A9E0;stroke:#2B388F;stroke-width:3.5905;stroke-linecap:round;stroke-linejoin:round;stroke-miterlimit:10;}
	
		.st46{clip-path:url(#XMLID_52_);fill:#25A9E0;stroke:#2B388F;stroke-width:3.5905;stroke-linecap:round;stroke-linejoin:round;stroke-miterlimit:10;}
	.st47{fill:#F2F2F2;stroke:#2B388F;stroke-width:3.7293;stroke-linecap:round;stroke-miterlimit:10;}
	.st48{fill:#25A9E0;stroke:#2B388F;stroke-width:3.7293;stroke-linecap:round;stroke-linejoin:round;stroke-miterlimit:10;}
	
		.st49{clip-path:url(#XMLID_53_);fill:#25A9E0;stroke:#2B388F;stroke-width:3.7293;stroke-linecap:round;stroke-linejoin:round;stroke-miterlimit:10;}
	
		.st50{clip-path:url(#XMLID_54_);fill:#25A9E0;stroke:#2B388F;stroke-width:3.7293;stroke-linecap:round;stroke-linejoin:round;stroke-miterlimit:10;}
	
		.st51{clip-path:url(#XMLID_55_);fill:#25A9E0;stroke:#2B388F;stroke-width:3.7293;stroke-linecap:round;stroke-linejoin:round;stroke-miterlimit:10;}
	
		.st52{clip-path:url(#XMLID_56_);fill:#25A9E0;stroke:#2B388F;stroke-width:3.7293;stroke-linecap:round;stroke-linejoin:round;stroke-miterlimit:10;}
	
		.st53{clip-path:url(#XMLID_57_);fill:#25A9E0;stroke:#2B388F;stroke-width:3.5905;stroke-linecap:round;stroke-linejoin:round;stroke-miterlimit:10;}
	
		.st54{clip-path:url(#XMLID_58_);fill:#25A9E0;stroke:#2B388F;stroke-width:3.5905;stroke-linecap:round;stroke-linejoin:round;stroke-miterlimit:10;}
	
		.st55{clip-path:url(#XMLID_59_);fill:#25A9E0;stroke:#2B388F;stroke-width:3.307;stroke-linecap:round;stroke-linejoin:round;stroke-miterlimit:10;}
	.st56{fill:#1B75BB;stroke:#2B388F;stroke-width:3.1707;stroke-linecap:round;stroke-miterlimit:10;}
	.st57{fill:#25A9E0;stroke:#2B388F;stroke-width:3.1707;stroke-linecap:round;stroke-miterlimit:10;}
	.st58{fill:#F1F1F2;stroke:#2B388F;stroke-width:3.1707;stroke-linecap:round;stroke-miterlimit:10;}
	
		.st59{clip-path:url(#XMLID_60_);fill:#25A9E0;stroke:#2B388F;stroke-width:3.307;stroke-linecap:round;stroke-linejoin:round;stroke-miterlimit:10;}
	
		.st60{clip-path:url(#XMLID_61_);fill:#25A9E0;stroke:#2B388F;stroke-width:7.04;stroke-linecap:round;stroke-linejoin:round;stroke-miterlimit:10;}
	.st61{fill:#1B75BB;stroke:#2B388F;stroke-width:6.7498;stroke-linecap:round;stroke-miterlimit:10;}
	.st62{fill:#25A9E0;stroke:#2B388F;stroke-width:6.7498;stroke-linecap:round;stroke-miterlimit:10;}
	.st63{fill:#F1F1F2;stroke:#2B388F;stroke-width:6.7498;stroke-linecap:round;stroke-miterlimit:10;}
	.st64{fill:#25A9E0;stroke:#2B388F;stroke-width:20.1204;stroke-linecap:round;stroke-miterlimit:10;}
	
		.st65{clip-path:url(#XMLID_62_);fill:#25A9E0;stroke:#2B388F;stroke-width:10.3806;stroke-linecap:round;stroke-linejoin:round;stroke-miterlimit:10;}
	.st66{fill:#1B75BB;stroke:#2B388F;stroke-width:9.9527;stroke-linecap:round;stroke-miterlimit:10;}
	.st67{fill:#25A9E0;stroke:#2B388F;stroke-width:9.9527;stroke-linecap:round;stroke-miterlimit:10;}
	.st68{fill:#F1F1F2;stroke:#2B388F;stroke-width:9.9527;stroke-linecap:round;stroke-miterlimit:10;}
	
		.st69{clip-path:url(#XMLID_63_);fill:#25A9E0;stroke:#2B388F;stroke-width:3.7293;stroke-linecap:round;stroke-linejoin:round;stroke-miterlimit:10;}
	
		.st70{clip-path:url(#XMLID_64_);fill:#25A9E0;stroke:#2B388F;stroke-width:3.7293;stroke-linecap:round;stroke-linejoin:round;stroke-miterlimit:10;}
	.st71{fill:#F9EC31;}
	.st72{fill:#25A9E0;stroke:#2B388F;stroke-width:16;stroke-linecap:round;stroke-miterlimit:10;}
	.st73{fill:none;stroke:#FFFFFF;stroke-width:16;stroke-linecap:round;stroke-miterlimit:10;}
	.st74{fill:none;stroke:#2B388F;stroke-width:22.1377;stroke-linecap:round;stroke-miterlimit:10;}
	.st75{fill:none;stroke:#FFFFFF;stroke-width:22.1377;stroke-linecap:round;stroke-miterlimit:10;}
	.st76{fill:#37B34A;}
	.st77{fill:#BBBDBF;}
	.st78{fill:#FFFFFF;stroke:#2B388F;stroke-width:13;stroke-miterlimit:10;}
	.st79{fill:#FFFFFF;stroke:#BBBDBF;stroke-width:16.4159;stroke-linecap:round;stroke-miterlimit:10;}
	.st80{fill:#FFFFFF;stroke:#BBBDBF;stroke-width:15.6509;stroke-linecap:round;stroke-miterlimit:10;}
	.st81{fill:#FFFFFF;stroke:#2B388F;stroke-width:15;stroke-linecap:round;stroke-linejoin:round;stroke-miterlimit:10;}
	.st82{fill:#FFFFFF;stroke:#2B388F;stroke-width:12;stroke-linecap:round;stroke-miterlimit:10;}
	.st83{fill:#FFFFFF;stroke:#2B388F;stroke-width:4.5089;stroke-linecap:round;stroke-miterlimit:10;}
	.st84{fill:#FFFFFF;stroke:#2B388F;stroke-width:4.2863;stroke-linecap:round;stroke-miterlimit:10;}
	.st85{fill:#FFFFFF;stroke:#2B388F;stroke-width:2.9509;stroke-linecap:round;stroke-miterlimit:10;}
	.st86{fill:#FFFFFF;stroke:#2B388F;stroke-width:2.5215;stroke-linecap:round;stroke-miterlimit:10;}
	.st87{fill:none;stroke:#BBBDBF;stroke-width:16;stroke-linecap:round;stroke-miterlimit:10;}
	.st88{fill:#6D6E70;}
	.st89{fill:none;stroke:#929497;stroke-width:25;stroke-linecap:round;stroke-miterlimit:10;}
	.st90{fill:none;stroke:#929497;stroke-width:19;stroke-linecap:round;stroke-miterlimit:10;}
	
		.st91{clip-path:url(#XMLID_65_);fill:#25A9E0;stroke:#2B388F;stroke-width:5.9522;stroke-linecap:round;stroke-linejoin:round;stroke-miterlimit:10;}
	.st92{fill:#1B75BB;stroke:#2B388F;stroke-width:5.7069;stroke-linecap:round;stroke-miterlimit:10;}
	.st93{fill:#25A9E0;stroke:#2B388F;stroke-width:5.7069;stroke-linecap:round;stroke-miterlimit:10;}
	.st94{fill:#F1F1F2;stroke:#2B388F;stroke-width:5.7069;stroke-linecap:round;stroke-miterlimit:10;}
	
		.st95{clip-path:url(#XMLID_66_);fill:#25A9E0;stroke:#2B388F;stroke-width:5.9522;stroke-linecap:round;stroke-linejoin:round;stroke-miterlimit:10;}
</style>
<g>
	<path class="st76" d="M144,263.2c-6.4,0-12.1-3.5-15-9.2L76.3,150.2l-0.1-0.1c-1.2-2.7-12-26.5-12-42c0-44,35.8-79.7,79.7-79.7
		c0.6,0,1.2,0,1.8,0c41.6,0.9,75.8,34.1,77.9,75.6c0.8,15.2-2.8,30.2-10.2,43.3L159,254C156.1,259.7,150.4,263.2,144,263.2
		L144,263.2z"/>
	<path class="st1" d="M144,35.3c0.5,0,1.1,0,1.6,0c37.9,0.8,69.1,31.1,71,69c0.7,14.5-2.8,28.1-9.4,39.7l-54.5,106.8
		c-1.8,3.6-5.3,5.4-8.8,5.4c-3.5,0-7-1.8-8.8-5.4L82.6,147.1c0,0-11.4-24.7-11.4-39.1C71.3,67.9,103.8,35.3,144,35.3 M144,21.3
		c-47.8,0-86.7,38.9-86.7,86.7c0,17,11.4,42.1,12.7,44.9l0.1,0.2l0.1,0.2l52.6,103.6c4.1,8,12.2,13,21.3,13c9,0,17.1-5,21.2-13
		l54.3-106.5c8.1-14.3,11.9-30.5,11.1-47c-2.3-45.2-39.5-81.3-84.7-82.3C145.3,21.3,144.6,21.3,144,21.3L144,21.3z"/>
	<path class="st2" d="M144,35.3c0.5,0,1.1,0,1.6,0c37.9,0.8,69.1,31.1,71,69c0.7,14.5-2.8,28.1-9.4,39.7l-54.5,106.8
		c-1.8,3.6-5.3,5.4-8.8,5.4c-3.5,0-7-1.8-8.8-5.4L82.6,147.1c0,0-11.4-24.7-11.4-39.1C71.3,67.9,103.8,35.3,144,35.3 M144,24.3
		c-46.2,0-83.7,37.6-83.7,83.7c0,16.3,11.1,40.9,12.4,43.7l0.1,0.2l0.1,0.2l52.6,103.6c3.6,7,10.7,11.4,18.6,11.4
		c7.9,0,15-4.4,18.6-11.4l54.3-106.6c7.8-13.8,11.5-29.5,10.7-45.4c-2.2-43.6-38.1-78.5-81.8-79.4C145.2,24.3,144.6,24.3,144,24.3
		L144,24.3z"/>
</g>
<g>
	<path class="st1" d="M142.9,165.4l-1.1,0l-1.1-0.1l-1.1-0.1l-1.1-0.1l-1.1-0.1l-1.1-0.2l-1-0.2l-1-0.2l-1-0.2c-0.3-0.1-1-0.3-1-0.3
		l-1-0.3l-1-0.3c-0.2-0.1-1-0.4-1-0.4c-0.2-0.1-0.7-0.3-0.7-0.3l-0.2-0.1l-0.6-0.3l1.6-4.2l-1.7,4.2c0,0-0.6-0.3-0.8-0.4l1.7-4.2
		l-1.8,4.1l-0.2-0.1c-0.2-0.1-0.5-0.2-0.7-0.3l-0.2-0.1c-0.2-0.1-0.9-0.4-0.9-0.4c-0.3-0.1-0.9-0.5-0.9-0.5
		c-0.3-0.1-0.5-0.3-0.8-0.4l-0.1-0.1c-0.3-0.1-0.5-0.3-0.8-0.4l2.2-3.9l-2.3,3.9c-0.3-0.2-0.5-0.3-0.8-0.5c0,0-0.1-0.1-0.2-0.1
		c-0.2-0.1-0.4-0.3-0.7-0.4l-0.1-0.1c-0.2-0.2-0.5-0.3-0.7-0.5l-0.2-0.1c-0.2-0.1-0.4-0.3-0.7-0.5l-0.1,0c-0.3-0.2-0.5-0.4-0.8-0.6
		l-0.1-0.1c-0.2-0.1-0.4-0.3-0.6-0.5l-0.1-0.1c-0.2-0.2-0.5-0.4-0.7-0.6L116,155c-0.2-0.2-0.4-0.4-0.7-0.6c0,0-0.4-0.4-0.6-0.5
		l-0.1,0l-0.2-0.2c-8.5-8.1-13.2-19-13.2-30.8l0-0.1c0-7.8,2.1-15.4,6.1-22l2.9-4.8l13,12.5c7.6-5.1,12.6-13.4,13.5-22.5l2.9-29.2
		l9.4,11.9c8.6,10.9,15,23.5,18.7,36.8l9.9-9.5l2.9,4.8c4,6.6,6.1,14.2,6.1,22l0,0.2c0,0.3,0,0.6,0,1l0,0.1c0,0.4,0,0.7,0,1.1
		c-0.5,9-3.7,17.4-9.3,24.3v0.2l-1.2,1.2c-0.2,0.2-0.3,0.4-0.5,0.6l-0.1,0.1l-0.1,0.1c-0.2,0.2-0.7,0.7-0.7,0.7
		c-0.2,0.2-0.4,0.5-0.7,0.7L174,153c-0.2,0.2-0.4,0.4-0.6,0.6l-0.1,0.1c-0.2,0.2-0.4,0.4-0.6,0.6l-0.1,0.1c-0.2,0.2-0.4,0.4-0.7,0.6
		l-0.1,0.1c-0.2,0.2-0.5,0.4-0.7,0.6c0,0-0.5,0.4-0.8,0.6l-0.1,0.1c-0.2,0.2-0.5,0.4-0.7,0.5l-0.1,0.1c-0.2,0.2-0.5,0.3-0.7,0.5
		c0,0-0.6,0.4-0.8,0.6l-0.2,0.1c-0.2,0.2-0.5,0.3-0.7,0.5l-0.1,0.1c-0.3,0.2-0.5,0.3-0.7,0.5l-0.2,0.1c-0.3,0.2-0.5,0.3-0.7,0.4
		l-0.2,0.1c-0.2,0.1-0.5,0.3-0.7,0.4c0,0-0.7,0.4-0.9,0.5c0,0-0.7,0.4-0.9,0.5c0,0-0.7,0.3-0.9,0.4l-0.9,0.4c0,0-0.8,0.3-1,0.4
		l-1,0.4l-1,0.3c0,0-0.8,0.3-1,0.3l-1,0.3l-1,0.3l-1,0.2l-1,0.2l-1.1,0.2l-1.1,0.2l-1.1,0.1l-1.1,0.1l-1.1,0.1l-1.1,0.1l-1.1,0
		c0,0-0.9,0-1.1,0C143.8,165.4,142.9,165.4,142.9,165.4z"/>
	<g>
		<path class="st2" d="M143.1,68.3l2.4,3.1c9.3,11.8,15.8,25.4,19.1,40l0.6,2.7l11.5-11c3.5,5.7,5.4,12.5,5.4,19.7c0,0,0,0.1,0,0.1
			c0,0.3,0,0.6,0,1v0c0,0.3,0,0.6,0,1v0c-0.5,8.8-3.9,16.7-9.3,22.9l0,0c-0.2,0.2-0.4,0.5-0.6,0.7c0,0,0,0,0,0
			c-0.2,0.2-0.4,0.4-0.6,0.7c0,0,0,0,0,0c-0.2,0.2-0.4,0.4-0.6,0.6c0,0,0,0,0,0c-0.2,0.2-0.4,0.4-0.6,0.6c0,0,0,0,0,0
			c-0.2,0.2-0.4,0.4-0.6,0.6c0,0,0,0-0.1,0.1c-0.2,0.2-0.4,0.4-0.6,0.6c0,0,0,0-0.1,0.1c-0.2,0.2-0.4,0.4-0.6,0.5c0,0-0.1,0-0.1,0.1
			c-0.2,0.2-0.4,0.3-0.6,0.5c0,0-0.1,0.1-0.1,0.1c-0.2,0.2-0.4,0.3-0.6,0.5c0,0-0.1,0.1-0.1,0.1c-0.2,0.2-0.4,0.3-0.6,0.5
			c0,0-0.1,0.1-0.1,0.1c-0.2,0.1-0.4,0.3-0.6,0.4c0,0-0.1,0.1-0.1,0.1c-0.2,0.1-0.4,0.3-0.6,0.4c-0.1,0-0.1,0.1-0.2,0.1
			c-0.2,0.1-0.4,0.3-0.6,0.4c-0.1,0-0.1,0.1-0.2,0.1c-0.2,0.1-0.4,0.2-0.6,0.4c-0.1,0-0.1,0.1-0.2,0.1c-0.2,0.1-0.4,0.2-0.6,0.3
			c-0.1,0-0.1,0.1-0.2,0.1c-0.2,0.1-0.4,0.2-0.6,0.3c-0.1,0-0.2,0.1-0.2,0.1c-0.2,0.1-0.4,0.2-0.6,0.3c-0.1,0-0.2,0.1-0.2,0.1
			c-0.2,0.1-0.4,0.2-0.6,0.3c-0.1,0-0.2,0.1-0.3,0.1c-0.2,0.1-0.4,0.2-0.6,0.3c-0.1,0-0.2,0.1-0.3,0.1c-0.2,0.1-0.4,0.2-0.6,0.2
			c-0.1,0-0.2,0.1-0.3,0.1c-0.2,0.1-0.4,0.1-0.6,0.2c-0.1,0-0.2,0.1-0.3,0.1c-0.2,0.1-0.4,0.1-0.6,0.2c-0.1,0-0.2,0.1-0.3,0.1
			c-0.2,0.1-0.4,0.1-0.6,0.2c-0.1,0-0.2,0.1-0.3,0.1c-0.2,0.1-0.4,0.1-0.6,0.2c-0.1,0-0.2,0.1-0.4,0.1c-0.2,0-0.4,0.1-0.5,0.1
			c-0.1,0-0.3,0.1-0.4,0.1c-0.2,0-0.3,0.1-0.5,0.1c-0.1,0-0.3,0.1-0.4,0.1c-0.2,0-0.3,0.1-0.5,0.1c-0.1,0-0.3,0.1-0.4,0.1
			c-0.2,0-0.4,0.1-0.5,0.1c-0.1,0-0.3,0-0.4,0.1c-0.2,0-0.3,0.1-0.5,0.1c-0.2,0-0.3,0-0.5,0.1c-0.2,0-0.3,0-0.5,0.1
			c-0.2,0-0.3,0-0.5,0.1c-0.2,0-0.3,0-0.5,0.1c-0.2,0-0.3,0-0.5,0c-0.2,0-0.3,0-0.5,0c-0.2,0-0.3,0-0.5,0c-0.2,0-0.3,0-0.5,0
			c-0.1,0-0.3,0-0.4,0c-0.2,0-0.4,0-0.5,0c-0.1,0-0.2,0-0.3,0c-0.2,0-0.5,0-0.7,0c-0.3,0-0.5,0-0.8,0c-0.1,0-0.2,0-0.2,0
			c-0.2,0-0.4,0-0.6,0c-0.1,0-0.3,0-0.4,0c-0.2,0-0.4,0-0.5,0c-0.1,0-0.3,0-0.4,0c-0.2,0-0.3,0-0.5,0c-0.2,0-0.3,0-0.5,0
			c-0.2,0-0.3,0-0.5-0.1c-0.1,0-0.3,0-0.4-0.1c-0.2,0-0.4-0.1-0.5-0.1c-0.1,0-0.3,0-0.4-0.1c-0.2,0-0.4-0.1-0.6-0.1
			c-0.1,0-0.3,0-0.4-0.1c-0.2,0-0.4-0.1-0.6-0.1c-0.1,0-0.2,0-0.4-0.1c-0.2,0-0.4-0.1-0.6-0.1c-0.1,0-0.2-0.1-0.4-0.1
			c-0.2,0-0.4-0.1-0.6-0.1c-0.1,0-0.2-0.1-0.4-0.1c-0.2-0.1-0.4-0.1-0.6-0.2c-0.1,0-0.2-0.1-0.3-0.1c-0.2-0.1-0.4-0.1-0.6-0.2
			c-0.1,0-0.2-0.1-0.3-0.1c-0.2-0.1-0.4-0.1-0.6-0.2c-0.1,0-0.2-0.1-0.3-0.1c-0.2-0.1-0.4-0.1-0.6-0.2c-0.1,0-0.2-0.1-0.3-0.1
			c-0.2-0.1-0.4-0.2-0.6-0.2c-0.1,0-0.2-0.1-0.3-0.1c-0.2-0.1-0.4-0.2-0.6-0.3c-0.1,0-0.2-0.1-0.2-0.1c-0.2-0.1-0.4-0.2-0.6-0.3
			c-0.1,0-0.1-0.1-0.2-0.1c-0.2-0.1-0.4-0.2-0.6-0.3c-0.1,0-0.1-0.1-0.2-0.1c-0.2-0.1-0.4-0.2-0.6-0.3c-0.1,0-0.1-0.1-0.2-0.1
			c-0.2-0.1-0.4-0.2-0.6-0.3c-0.1,0-0.1-0.1-0.2-0.1c-0.2-0.1-0.4-0.2-0.7-0.4c0,0-0.1-0.1-0.1-0.1c-0.2-0.1-0.4-0.3-0.7-0.4
			c0,0-0.1-0.1-0.1-0.1c-0.2-0.1-0.4-0.3-0.7-0.4c0,0-0.1,0-0.1-0.1c-0.2-0.1-0.4-0.3-0.7-0.4c0,0-0.1,0-0.1-0.1
			c-0.2-0.2-0.4-0.3-0.7-0.5c0,0-0.1,0-0.1-0.1c-0.2-0.2-0.4-0.3-0.7-0.5c0,0,0,0-0.1,0c-0.2-0.2-0.4-0.3-0.7-0.5c0,0,0,0-0.1,0
			c-0.2-0.2-0.4-0.4-0.7-0.5c0,0,0,0,0,0c-0.2-0.2-0.4-0.4-0.7-0.6c0,0,0,0,0,0c-0.2-0.2-0.4-0.4-0.7-0.6c0,0,0,0,0,0
			c-0.2-0.2-0.4-0.4-0.7-0.6l0,0c-7.3-6.9-11.8-16.7-11.9-27.6c0,0,0-0.1,0-0.1c0-7.2,2-13.9,5.5-19.7l11.5,11l1.4-0.9
			c9.7-5.7,16-15.7,17.1-26.9L143.1,68.3 M136.3,45.2l-2.2,22.2l-1.8,18.1c-0.7,6.6-3.8,12.7-8.7,17l-6.1-5.9l-8.1-7.8l-5.8,9.7
			c-4.4,7.3-6.7,15.7-6.7,24.3v0.1l0,0.1c0,12.8,5.1,24.7,14.3,33.7l0,0l0.3,0.3l0,0l0.1,0.1c0.3,0.2,0.5,0.5,0.8,0.7l0.1,0.1
			l0.1,0.1c0.2,0.2,0.5,0.4,0.7,0.7l0,0l0,0l0,0l0,0c0.3,0.2,0.5,0.4,0.8,0.7l0,0l0,0c0.3,0.2,0.5,0.4,0.8,0.6l0.1,0l0.1,0.1
			c0.3,0.2,0.5,0.4,0.8,0.6l0,0l0.1,0c0.3,0.2,0.5,0.4,0.8,0.6l0.1,0.1c0.3,0.2,0.5,0.4,0.8,0.6c0,0,0.1,0.1,0.2,0.1
			c0.3,0.2,0.5,0.3,0.8,0.5l0.2,0.1c0.3,0.2,0.5,0.3,0.8,0.5l0.2,0.1c0.3,0.2,0.5,0.3,0.8,0.5l0.2,0.1c0.2,0.1,0.5,0.3,0.8,0.4
			l0.2,0.1c0.3,0.1,0.5,0.3,0.8,0.4l0.2,0.1c0.3,0.1,0.5,0.3,0.8,0.4l0.2,0.1c0.3,0.1,0.5,0.3,0.8,0.4l0.2,0.1
			c0.3,0.1,0.5,0.2,0.8,0.4l0.3,0.1l0.1,0c0.2,0.1,0.5,0.2,0.7,0.3c0.1,0,0.2,0.1,0.3,0.1l0.1,0c0.2,0.1,0.5,0.2,0.7,0.3
			c0.1,0,0.2,0.1,0.3,0.1l0,0c0.2,0.1,0.5,0.2,0.7,0.3c0.1,0,0.2,0.1,0.3,0.1l0,0l0.1,0c0.2,0.1,0.4,0.1,0.7,0.2l0.3,0.1l0.1,0
			l0.1,0c0.2,0.1,0.4,0.1,0.6,0.2c0.1,0,0.2,0.1,0.3,0.1l0.1,0l0.1,0c0.2,0.1,0.4,0.1,0.6,0.2c0.1,0,0.2,0.1,0.4,0.1l0.1,0l0.1,0
			c0.2,0,0.4,0.1,0.6,0.1c0.1,0,0.2,0.1,0.4,0.1l0.1,0l0.1,0c0.2,0,0.4,0.1,0.6,0.1c0.1,0,0.3,0,0.4,0.1l0.1,0l0.1,0
			c0.2,0,0.4,0.1,0.6,0.1c0.1,0,0.3,0,0.4,0.1l0.1,0l0.1,0c0.2,0,0.4,0.1,0.6,0.1c0.1,0,0.3,0,0.4,0.1l0.1,0l0.2,0
			c0.2,0,0.4,0.1,0.5,0.1c0.1,0,0.3,0,0.4,0l0.1,0l0.1,0c0.2,0,0.3,0,0.5,0.1c0.1,0,0.3,0,0.4,0l0.1,0l0.1,0c0.2,0,0.3,0,0.5,0
			c0.1,0,0.3,0,0.4,0l0.1,0l0.2,0c0.2,0,0.4,0,0.5,0c0.1,0,0.3,0,0.4,0l0.1,0l0.1,0c0.2,0,0.4,0,0.6,0c0.1,0,0.2,0,0.3,0
			c0.3,0,0.6,0,0.9,0c0.3,0,0.5,0,0.8,0l0.1,0c0.1,0,0.2,0,0.4,0c0.2,0,0.3,0,0.5,0l0.1,0l0.1,0c0.1,0,0.3,0,0.4,0
			c0.2,0,0.3,0,0.5,0l0.1,0l0.1,0c0.1,0,0.3,0,0.4,0c0.2,0,0.3,0,0.5,0l0.1,0l0.1,0c0.2,0,0.3,0,0.5,0c0.2,0,0.3,0,0.5-0.1l0.1,0
			l0.1,0c0.2,0,0.3,0,0.5-0.1c0.2,0,0.3,0,0.5-0.1l0.1,0l0.1,0c0.2,0,0.3,0,0.5-0.1c0.2,0,0.4-0.1,0.5-0.1l0.1,0l0.1,0
			c0.1,0,0.3,0,0.4-0.1c0.2,0,0.3-0.1,0.5-0.1l0.1,0l0.1,0c0.1,0,0.3-0.1,0.4-0.1c0.2,0,0.3-0.1,0.5-0.1l0.1,0l0.1,0
			c0.1,0,0.3-0.1,0.4-0.1c0.2,0,0.4-0.1,0.5-0.1l0.1,0l0.1,0c0.1,0,0.3-0.1,0.4-0.1c0.2,0,0.4-0.1,0.5-0.1l0.1,0l0.1,0
			c0.1,0,0.2-0.1,0.4-0.1c0.2-0.1,0.4-0.1,0.6-0.2l0.1,0l0.1,0c0.1,0,0.2-0.1,0.3-0.1c0.2-0.1,0.4-0.1,0.6-0.2l0.1,0l0.1,0
			c0.1,0,0.2-0.1,0.3-0.1c0.2-0.1,0.4-0.1,0.6-0.2l0.1,0l0.1,0l0.3-0.1c0.2-0.1,0.4-0.2,0.6-0.2l0.1,0l0.1,0c0.1,0,0.2-0.1,0.3-0.1
			c0.2-0.1,0.4-0.2,0.6-0.2l0.1,0l0.1,0c0.1,0,0.2-0.1,0.3-0.1c0.2-0.1,0.4-0.2,0.6-0.3l0.1,0l0,0l0.3-0.1c0.3-0.1,0.5-0.2,0.7-0.3
			l0,0c0.1,0,0.2-0.1,0.3-0.1c0.2-0.1,0.5-0.2,0.7-0.4l0.3-0.1c0.2-0.1,0.5-0.2,0.7-0.4l0.1,0c0.1-0.1,0.2-0.1,0.3-0.2
			c0.2-0.1,0.5-0.3,0.8-0.4l0.2-0.1c0.3-0.2,0.5-0.3,0.8-0.5l0.2-0.1c0.3-0.2,0.5-0.3,0.8-0.5l0.2-0.1c0.3-0.2,0.5-0.3,0.8-0.5
			l0.2-0.1c0.3-0.2,0.5-0.4,0.8-0.5l0.1-0.1c0.3-0.2,0.5-0.4,0.8-0.6l0.2-0.1c0.2-0.2,0.5-0.4,0.8-0.6l0.1-0.1
			c0.3-0.2,0.5-0.4,0.8-0.6l0.1-0.1c0.2-0.2,0.5-0.4,0.8-0.6l0.1-0.1c0.3-0.2,0.5-0.5,0.8-0.7l0.1-0.1l0,0c0.3-0.2,0.5-0.5,0.8-0.7
			c0,0,0.1-0.1,0.1-0.1c0.2-0.2,0.5-0.4,0.7-0.7l0,0l0.1-0.1c0.2-0.2,0.5-0.5,0.7-0.7l0,0l0.1-0.1c0.2-0.3,0.5-0.5,0.7-0.8l0,0
			l0-0.1c0.2-0.2,0.4-0.5,0.6-0.7l0.4-0.4l0.1-0.1l0.5-0.6l0-0.1c6.3-7.7,10.1-17.4,10.6-27.4l0-0.2v0c0-0.3,0-0.6,0-0.9l0-0.1v0
			c0-0.3,0-0.7,0-1.1l0-0.1c0-8.6-2.3-17-6.7-24.3l-5.8-9.7l-8.1,7.8l-0.6,0.6c-4-11.3-9.9-22-17.3-31.4l-2.4-3.1L136.3,45.2
			L136.3,45.2z"/>
	</g>
</g>
</svg>
