<?xml version="1.0" encoding="utf-8"?>
<!-- Generator: Adobe Illustrator 21.0.2, SVG Export Plug-In . SVG Version: 6.00 Build 0)  -->
<svg version="1.1" id="Layer_1" xmlns="http://www.w3.org/2000/svg" xmlns:xlink="http://www.w3.org/1999/xlink" x="0px" y="0px"
	 viewBox="0 0 1129.3 259.6" style="enable-background:new 0 0 1129.3 259.6;" xml:space="preserve">
<style type="text/css">
	.st0{fill:#EE4036;}
	.st1{fill:#FFFFFF;}
	.st2{fill:#2B388F;}
	.st3{fill:#FFFFFF;stroke:#2B388F;stroke-width:6.0774;stroke-linecap:round;stroke-miterlimit:10;}
	.st4{fill:#25A9E0;stroke:#2B388F;stroke-width:5;stroke-linecap:round;stroke-miterlimit:10;}
	.st5{fill:none;stroke:#EB008B;stroke-width:3;stroke-miterlimit:10;}
	.st6{fill:none;stroke:#EB008B;stroke-width:2.4825;stroke-miterlimit:10;}
	.st7{fill:#25A9E0;stroke:#2B388F;stroke-width:5;stroke-miterlimit:10;}
	.st8{fill:#1B75BB;}
	.st9{fill:#FFC335;}
	.st10{fill:#25A9E0;}
	.st11{fill:#F1F1F2;}
	.st12{clip-path:url(#XMLID_27_);fill:#25A9E0;stroke:#2B388F;stroke-width:4;stroke-miterlimit:10;}
	.st13{fill:#25A9E0;stroke:#2B388F;stroke-width:4;stroke-miterlimit:10;}
	.st14{fill:#F1F1F2;stroke:#2B388F;stroke-width:4;stroke-miterlimit:10;}
	.st15{fill:#1B75BB;stroke:#2B388F;stroke-width:4;stroke-miterlimit:10;}
	.st16{clip-path:url(#XMLID_28_);fill:#25A9E0;stroke:#2B388F;stroke-width:4;stroke-miterlimit:10;}
	.st17{clip-path:url(#XMLID_29_);fill:#25A9E0;stroke:#2B388F;stroke-width:2.4825;stroke-miterlimit:10;}
	.st18{fill:#25A9E0;stroke:#2B388F;stroke-width:2.4825;stroke-miterlimit:10;}
	.st19{fill:#F1F1F2;stroke:#2B388F;stroke-width:3;stroke-miterlimit:10;}
	.st20{fill:#1B75BB;stroke:#2B388F;stroke-width:2.4825;stroke-miterlimit:10;}
	.st21{fill:#231F20;}
	.st22{fill:#25A9E0;stroke:#2B388F;stroke-width:4.6531;stroke-miterlimit:10;}
	.st23{clip-path:url(#XMLID_30_);fill:#25A9E0;stroke:#2B388F;stroke-width:3.7293;stroke-linecap:round;stroke-miterlimit:10;}
	.st24{fill:#F1F1F2;stroke:#2B388F;stroke-width:3.7293;stroke-linecap:round;stroke-miterlimit:10;}
	.st25{fill:#1B75BB;stroke:#2B388F;stroke-width:3.7293;stroke-linecap:round;stroke-miterlimit:10;}
	.st26{fill:#25A9E0;stroke:#2B388F;stroke-width:3.7293;stroke-linecap:round;stroke-miterlimit:10;}
	.st27{clip-path:url(#XMLID_31_);fill:#25A9E0;stroke:#2B388F;stroke-width:5;stroke-miterlimit:10;}
	.st28{fill:#F1F1F2;stroke:#2B388F;stroke-width:5;stroke-miterlimit:10;}
	.st29{fill:#1B75BB;stroke:#2B388F;stroke-width:5;stroke-miterlimit:10;}
	.st30{clip-path:url(#XMLID_32_);fill:#25A9E0;stroke:#2B388F;stroke-width:5;stroke-miterlimit:10;}
	.st31{fill:#25A9E0;stroke:#2B388F;stroke-width:4.1526;stroke-miterlimit:10;}
	.st32{clip-path:url(#XMLID_33_);fill:#25A9E0;stroke:#2B388F;stroke-width:3.7293;stroke-linecap:round;stroke-miterlimit:10;}
	.st33{clip-path:url(#XMLID_34_);fill:#25A9E0;stroke:#2B388F;stroke-width:3.7293;stroke-linecap:round;stroke-miterlimit:10;}
	.st34{fill:#F1F1F2;stroke:#2B388F;stroke-width:4.3351;stroke-linecap:round;stroke-miterlimit:10;}
	.st35{fill:none;stroke:#2B388F;stroke-width:4.3351;stroke-linecap:round;stroke-miterlimit:10;}
	.st36{clip-path:url(#XMLID_35_);fill:#25A9E0;stroke:#2B388F;stroke-width:3.7293;stroke-linecap:round;stroke-miterlimit:10;}
	
		.st37{clip-path:url(#XMLID_36_);fill:#25A9E0;stroke:#2B388F;stroke-width:3.5905;stroke-linecap:round;stroke-linejoin:round;stroke-miterlimit:10;}
	.st38{fill:#25A9E0;stroke:#2B388F;stroke-width:3.8637;stroke-linecap:round;stroke-miterlimit:10;}
	
		.st39{clip-path:url(#XMLID_37_);fill:#25A9E0;stroke:#2B388F;stroke-width:3.5905;stroke-linecap:round;stroke-linejoin:round;stroke-miterlimit:10;}
	
		.st40{clip-path:url(#XMLID_38_);fill:#25A9E0;stroke:#2B388F;stroke-width:3.5905;stroke-linecap:round;stroke-linejoin:round;stroke-miterlimit:10;}
	
		.st41{clip-path:url(#XMLID_39_);fill:#25A9E0;stroke:#2B388F;stroke-width:3.5905;stroke-linecap:round;stroke-linejoin:round;stroke-miterlimit:10;}
	
		.st42{clip-path:url(#XMLID_40_);fill:#25A9E0;stroke:#2B388F;stroke-width:3.5905;stroke-linecap:round;stroke-linejoin:round;stroke-miterlimit:10;}
	.st43{fill:#F2F2F2;stroke:#2B388F;stroke-width:3.7293;stroke-linecap:round;stroke-miterlimit:10;}
	.st44{fill:#25A9E0;stroke:#2B388F;stroke-width:3.7293;stroke-linecap:round;stroke-linejoin:round;stroke-miterlimit:10;}
	
		.st45{clip-path:url(#XMLID_41_);fill:#25A9E0;stroke:#2B388F;stroke-width:3.7293;stroke-linecap:round;stroke-linejoin:round;stroke-miterlimit:10;}
	
		.st46{clip-path:url(#XMLID_42_);fill:#25A9E0;stroke:#2B388F;stroke-width:3.7293;stroke-linecap:round;stroke-linejoin:round;stroke-miterlimit:10;}
	
		.st47{clip-path:url(#XMLID_43_);fill:#25A9E0;stroke:#2B388F;stroke-width:3.7293;stroke-linecap:round;stroke-linejoin:round;stroke-miterlimit:10;}
	
		.st48{clip-path:url(#XMLID_44_);fill:#25A9E0;stroke:#2B388F;stroke-width:3.5905;stroke-linecap:round;stroke-linejoin:round;stroke-miterlimit:10;}
	
		.st49{clip-path:url(#XMLID_45_);fill:#25A9E0;stroke:#2B388F;stroke-width:3.307;stroke-linecap:round;stroke-linejoin:round;stroke-miterlimit:10;}
	.st50{fill:#1B75BB;stroke:#2B388F;stroke-width:3.1707;stroke-linecap:round;stroke-miterlimit:10;}
	.st51{fill:#25A9E0;stroke:#2B388F;stroke-width:3.1707;stroke-linecap:round;stroke-miterlimit:10;}
	.st52{fill:#F1F1F2;stroke:#2B388F;stroke-width:3.1707;stroke-linecap:round;stroke-miterlimit:10;}
	
		.st53{clip-path:url(#XMLID_46_);fill:#25A9E0;stroke:#2B388F;stroke-width:7.04;stroke-linecap:round;stroke-linejoin:round;stroke-miterlimit:10;}
	.st54{fill:#1B75BB;stroke:#2B388F;stroke-width:6.7498;stroke-linecap:round;stroke-miterlimit:10;}
	.st55{fill:#25A9E0;stroke:#2B388F;stroke-width:6.7498;stroke-linecap:round;stroke-miterlimit:10;}
	.st56{fill:#F1F1F2;stroke:#2B388F;stroke-width:6.7498;stroke-linecap:round;stroke-miterlimit:10;}
	.st57{fill:#25A9E0;stroke:#2B388F;stroke-width:20.1204;stroke-linecap:round;stroke-miterlimit:10;}
	
		.st58{clip-path:url(#XMLID_47_);fill:#25A9E0;stroke:#2B388F;stroke-width:10.3806;stroke-linecap:round;stroke-linejoin:round;stroke-miterlimit:10;}
	.st59{fill:#1B75BB;stroke:#2B388F;stroke-width:9.9527;stroke-linecap:round;stroke-miterlimit:10;}
	.st60{fill:#25A9E0;stroke:#2B388F;stroke-width:9.9527;stroke-linecap:round;stroke-miterlimit:10;}
	.st61{fill:#F1F1F2;stroke:#2B388F;stroke-width:9.9527;stroke-linecap:round;stroke-miterlimit:10;}
	
		.st62{clip-path:url(#XMLID_48_);fill:#25A9E0;stroke:#2B388F;stroke-width:3.7293;stroke-linecap:round;stroke-linejoin:round;stroke-miterlimit:10;}
	
		.st63{clip-path:url(#XMLID_49_);fill:#25A9E0;stroke:#2B388F;stroke-width:3.7293;stroke-linecap:round;stroke-linejoin:round;stroke-miterlimit:10;}
	.st64{fill:#F9EC31;}
	.st65{fill:#25A9E0;stroke:#2B388F;stroke-width:16;stroke-linecap:round;stroke-miterlimit:10;}
	.st66{fill:none;stroke:#FFFFFF;stroke-width:16;stroke-linecap:round;stroke-miterlimit:10;}
	.st67{fill:none;stroke:#2B388F;stroke-width:22.1377;stroke-linecap:round;stroke-miterlimit:10;}
	.st68{fill:none;stroke:#FFFFFF;stroke-width:22.1377;stroke-linecap:round;stroke-miterlimit:10;}
	.st69{fill:#37B34A;}
	.st70{fill:#BBBDBF;}
	.st71{fill:#FFFFFF;stroke:#2B388F;stroke-width:13;stroke-miterlimit:10;}
	.st72{fill:#FFFFFF;stroke:#BBBDBF;stroke-width:16.4159;stroke-linecap:round;stroke-miterlimit:10;}
	.st73{fill:#FFFFFF;stroke:#BBBDBF;stroke-width:15.6509;stroke-linecap:round;stroke-miterlimit:10;}
	.st74{fill:#FFFFFF;stroke:#2B388F;stroke-width:15;stroke-linecap:round;stroke-linejoin:round;stroke-miterlimit:10;}
	.st75{fill:#FFFFFF;stroke:#2B388F;stroke-width:12;stroke-linecap:round;stroke-miterlimit:10;}
	.st76{fill:#FFFFFF;stroke:#2B388F;stroke-width:4.5089;stroke-linecap:round;stroke-miterlimit:10;}
	.st77{fill:#FFFFFF;stroke:#2B388F;stroke-width:4.2863;stroke-linecap:round;stroke-miterlimit:10;}
	.st78{fill:#FFFFFF;stroke:#2B388F;stroke-width:2.9509;stroke-linecap:round;stroke-miterlimit:10;}
	.st79{fill:#FFFFFF;stroke:#2B388F;stroke-width:2.5215;stroke-linecap:round;stroke-miterlimit:10;}
	.st80{fill:none;stroke:#BBBDBF;stroke-width:16;stroke-linecap:round;stroke-miterlimit:10;}
	.st81{fill:#6D6E70;}
	.st82{fill:none;stroke:#929497;stroke-width:25;stroke-linecap:round;stroke-miterlimit:10;}
	.st83{fill:none;stroke:#929497;stroke-width:19;stroke-linecap:round;stroke-miterlimit:10;}
	
		.st84{clip-path:url(#XMLID_50_);fill:#25A9E0;stroke:#2B388F;stroke-width:5.9522;stroke-linecap:round;stroke-linejoin:round;stroke-miterlimit:10;}
	.st85{fill:#1B75BB;stroke:#2B388F;stroke-width:5.7069;stroke-linecap:round;stroke-miterlimit:10;}
	.st86{fill:#25A9E0;stroke:#2B388F;stroke-width:5.7069;stroke-linecap:round;stroke-miterlimit:10;}
	.st87{fill:#F1F1F2;stroke:#2B388F;stroke-width:5.7069;stroke-linecap:round;stroke-miterlimit:10;}
	.st88{font-family:'Rubik-Regular';}
	.st89{font-size:40.9308px;}
</style>
<g>
	<g>
		<g>
			<path class="st11" d="M365.6,79.9c5.9,4.6,8.8,11.4,8.8,20.3c0,6-1.4,11.1-4.2,15.3c-2.8,4.2-6.5,7.3-11.2,9.4
				c-4.7,2.1-9.9,3.1-15.6,3.1h-23.6v31.4c0,0.9-0.3,1.8-1,2.4c-0.7,0.7-1.5,1-2.4,1h-5.3c-0.9,0-1.8-0.3-2.4-1
				c-0.7-0.7-1-1.5-1-2.4V76.4c0-0.9,0.3-1.8,1-2.4c0.7-0.7,1.5-1,2.4-1h32.3C352.3,73,359.7,75.3,365.6,79.9z M342.8,116.3
				c6.2,0,11-1.3,14.4-4c3.3-2.7,5-6.7,5-12.1c0-10.4-6.5-15.7-19.4-15.7h-23v31.8H342.8z"/>
			<path class="st11" d="M501.9,74c0.7,0.7,1,1.5,1,2.4v82.9c0,0.9-0.3,1.8-1,2.4c-0.7,0.7-1.5,1-2.4,1h-5.3c-0.9,0-1.8-0.3-2.4-1
				c-0.7-0.7-1-1.5-1-2.4v-36.2h-45.2v36.2c0,0.9-0.3,1.8-1,2.4c-0.7,0.7-1.5,1-2.4,1h-5.3c-0.9,0-1.8-0.3-2.4-1
				c-0.7-0.6-1-1.5-1-2.5V76.4c0-0.9,0.3-1.8,1-2.4c0.7-0.7,1.5-1,2.4-1h5.3c0.9,0,1.8,0.3,2.4,1c0.7,0.7,1,1.5,1,2.4v35.2h45.2
				V76.4c0-0.9,0.3-1.8,1-2.4c0.7-0.7,1.5-1,2.4-1h5.3C500.4,73,501.2,73.3,501.9,74z"/>
			<path class="st11" d="M578.9,142.5l-6.7,17.1c-0.8,2.1-2.4,3.2-5,3.2h-4.7c-0.8,0-1.4-0.3-2-0.8c-0.6-0.6-0.8-1.2-0.8-2
				c0-0.4,0.2-1,0.5-1.8l31.4-81c1.1-2.8,3-4.2,5.8-4.2h7.7c2.7,0,4.7,1.4,5.8,4.2l31.3,81c0.3,0.8,0.5,1.4,0.5,1.8
				c0,0.8-0.3,1.4-0.8,2c-0.6,0.6-1.2,0.8-2,0.8h-4.7c-2.6,0-4.2-1.1-5-3.2l-6.7-17.1H578.9z M619,131l-17.7-45.8L583.4,131H619z"/>
			<path class="st11" d="M756.3,79.6c5.8,4.4,8.7,11.1,8.7,20c0,6.7-1.7,12.1-5,16.3c-3.3,4.2-7.8,7.2-13.5,9l19.4,33.8
				c0.3,0.5,0.4,1,0.4,1.4c0,0.8-0.3,1.4-0.8,2c-0.6,0.6-1.2,0.8-2,0.8H758c-2.4,0-4.2-1.2-5.5-3.5l-18.6-32.7h-22.1v32.7
				c0,0.9-0.3,1.8-1,2.4c-0.7,0.7-1.5,1-2.4,1H703c-0.9,0-1.8-0.3-2.4-1c-0.7-0.7-1-1.5-1-2.4V76.4c0-0.9,0.3-1.8,1-2.4
				c0.7-0.7,1.5-1,2.4-1h31.1C743.1,73,750.5,75.2,756.3,79.6z M733.5,115.1c12.9,0,19.4-5.2,19.4-15.5c0-5.3-1.6-9.1-4.9-11.5
				c-3.3-2.4-8.1-3.5-14.5-3.5h-21.7v30.5H733.5z"/>
			<path class="st11" d="M877.7,76.3c5.3,3.1,9.3,7.3,12.1,12.5c2.8,5.3,4.3,11.1,4.4,17.6c0.2,5.1,0.3,8.9,0.3,11.4
				c0,2.5-0.1,6.3-0.3,11.4c-0.3,6.5-1.8,12.4-4.6,17.6c-2.8,5.3-6.8,9.4-12.1,12.5c-5.3,3.1-11.5,4.6-18.8,4.6
				c-7.3,0-13.5-1.5-18.8-4.6c-5.3-3.1-9.3-7.3-12.1-12.5c-2.8-5.3-4.3-11.1-4.6-17.6c-0.1-2.6-0.1-6.4-0.1-11.4c0-5,0-8.9,0.1-11.4
				c0.2-6.5,1.6-12.4,4.4-17.6c2.8-5.3,6.8-9.4,12.1-12.5c5.3-3.1,11.6-4.6,18.9-4.6C866.1,71.7,872.4,73.2,877.7,76.3z M842.3,89.3
				c-4.2,4-6.4,10-6.7,17.8c-0.1,2.6-0.1,6.2-0.1,10.8c0,4.6,0,8.2,0.1,10.8c0.3,7.9,2.5,13.8,6.7,17.8c4.2,4,9.7,6,16.6,6
				c6.8,0,12.4-2,16.6-6c4.2-4,6.4-10,6.7-17.8c0.2-5.1,0.3-8.7,0.3-10.8c0-2.1-0.1-5.6-0.3-10.8c-0.3-7.9-2.5-13.8-6.7-17.8
				c-4.2-4-9.7-6-16.6-6C852,83.2,846.5,85.2,842.3,89.3z"/>
			<path class="st11" d="M1016.1,96.9c-0.6,0.6-1.3,0.8-2.1,0.8h-5.3c-1,0-1.8-0.2-2.3-0.6c-0.5-0.4-1.1-1.1-1.7-2.2
				c-1.4-2.7-3.7-5.3-7.1-7.8c-3.4-2.6-7.9-3.9-13.4-3.9c-5.1,0-9.5,1.2-13,3.5c-3.6,2.3-5.3,5.6-5.3,9.9c0,2.9,0.9,5.3,2.6,7.1
				c1.8,1.8,4.4,3.4,8,4.7c3.5,1.3,8.9,2.9,16.1,4.8c9.8,2.6,16.7,5.7,20.7,9.4c4.1,3.7,6.1,8.8,6.1,15.2c0,5.1-1.4,9.7-4.3,13.6
				c-2.9,3.9-6.9,7-12.1,9.2c-5.2,2.2-11.3,3.3-18.1,3.3c-6.3,0-12.1-1.2-17.3-3.6c-5.2-2.4-9.3-5.5-12.3-9.2
				c-3-3.7-4.6-7.4-4.7-11.1c0-0.8,0.3-1.4,0.8-2c0.6-0.6,1.2-0.8,2-0.8h5.3c0.9,0,1.7,0.2,2.3,0.6c0.6,0.4,1.2,1.1,1.7,2.2
				c1.4,3.1,3.9,5.9,7.5,8.5c3.6,2.6,8.6,3.9,14.8,3.9c6.2,0,11.5-1.3,15.8-4c4.3-2.7,6.5-6.2,6.5-10.6c0-2.8-1.1-5.2-3.4-7.1
				c-2.3-1.9-5.4-3.5-9.3-4.9c-3.9-1.3-9.7-3-17.3-4.9c-8.3-2.1-14.3-5.2-18-9.3c-3.7-4.1-5.5-9.1-5.5-15.1c0-4.4,1.2-8.6,3.5-12.3
				c2.3-3.8,5.8-6.8,10.4-9.1c4.6-2.3,10.2-3.5,16.7-3.5c6.5,0,12.2,1.3,17.1,3.8c4.9,2.5,8.6,5.6,11.3,9.3
				c2.7,3.7,4.1,7.1,4.2,10.1C1016.9,95.7,1016.7,96.3,1016.1,96.9z"/>
		</g>
		<g>
			<path class="st11" d="M1075.1,110.4c0,0.6-0.2,1.2-0.7,1.6c-0.5,0.5-1,0.7-1.6,0.7h-10.8c-0.6,0-1.2-0.2-1.6-0.7
				c-0.5-0.5-0.7-1-0.7-1.6V96.3h-13.3c-0.6,0-1.2-0.2-1.6-0.7c-0.5-0.5-0.7-1-0.7-1.6v-8.7c0-0.6,0.2-1.2,0.7-1.6
				c0.5-0.5,1-0.7,1.6-0.7h13.3V68.8c0-0.6,0.2-1.2,0.7-1.6c0.5-0.5,1-0.7,1.6-0.7h10.8c0.6,0,1.2,0.2,1.6,0.7
				c0.5,0.5,0.7,1,0.7,1.6V83h13.2c0.6,0,1.2,0.2,1.6,0.7c0.5,0.5,0.7,1,0.7,1.6V94c0,0.6-0.2,1.2-0.7,1.6c-0.5,0.5-1,0.7-1.6,0.7
				h-13.2V110.4z"/>
		</g>
	</g>
	<g>
		<g>
			<g>
				<defs>
					<path id="XMLID_26_" d="M224.6,122.5c0,17.4-10.1,26.7-13.2,47.1c-4.1,26.1-37.5,37.1-64.2,37.1c-25.6,0-58.5-9.4-62.3-34.3
						c-2.6-17.2-15.1-31.3-15.1-50c0-40.7,26.5-74.6,61.8-82.5c5-1.1,10.3,2,15.6,2c3.9,0,7.8-3.4,11.6-2.8
						C196,45.3,224.6,80.3,224.6,122.5z"/>
				</defs>
				<use xlink:href="#XMLID_26_"  style="overflow:visible;fill:#F1F1F2;"/>
				<clipPath id="XMLID_27_">
					<use xlink:href="#XMLID_26_"  style="overflow:visible;"/>
				</clipPath>
				
					<polygon style="clip-path:url(#XMLID_27_);fill:#25A9E0;stroke:#2B388F;stroke-width:5.9522;stroke-linecap:round;stroke-linejoin:round;stroke-miterlimit:10;" points="
					67.1,173.3 105.7,154.8 139,98.4 139,40.9 128.7,4 62.7,7.1 40.3,108.9 				"/>
				
					<polygon style="clip-path:url(#XMLID_27_);fill:#25A9E0;stroke:#2B388F;stroke-width:5.9522;stroke-linecap:round;stroke-linejoin:round;stroke-miterlimit:10;" points="
					157,41 157,98.5 190.4,154.8 229,173.3 286.7,149.4 245.3,-11.6 143,16.5 				"/>
				
					<use xlink:href="#XMLID_26_"  style="overflow:visible;fill:none;stroke:#2B388F;stroke-width:5.9522;stroke-linecap:round;stroke-miterlimit:10;"/>
			</g>
			<ellipse transform="matrix(0.5 -0.866 0.866 0.5 -32.0177 154.5235)" class="st85" cx="117.8" cy="105" rx="27" ry="18.9"/>
			<ellipse transform="matrix(0.866 -0.5 0.5 0.866 -28.6087 103.2106)" class="st85" cx="178.3" cy="105" rx="18.9" ry="27"/>
			<circle class="st86" cx="174.6" cy="113.5" r="3.7"/>
			<circle class="st86" cx="121.5" cy="113.5" r="3.7"/>
			<path class="st86" d="M212.8,50.6l5.3-0.4c2.7-0.2,5.4,0.7,7.4,2.5l16.2,14.7c0.4,0.3,0.8,0.7,1.2,0.9l10.3,6.7
				c3.2,2.1,4.9,6,4.3,9.8l-4.1,25.3c-1.5,9.3-5.6,17.9-11.8,25l0,0c-1.5,1.7-2.4,3.8-2.6,6l-2.1,22.3c-0.3,3.3-2.2,6.1-5.1,7.7l0,0
				c-5.1,2.8-11.4,0.6-13.7-4.7l0,0c-5.3-12.3-7.8-25.7-7.4-39.1l0.5-13.3c0.3-9.4-0.5-18.8-2.3-28L204,62.4
				C202.8,56.6,206.9,51.1,212.8,50.6z"/>
			<path class="st86" d="M83.6,50.6l-5.3-0.4c-2.7-0.2-5.4,0.7-7.4,2.5L54.7,67.4c-0.4,0.3-0.8,0.7-1.2,0.9l-10.3,6.7
				c-3.2,2.1-4.9,6-4.3,9.8l4.1,25.3c1.5,9.3,5.6,17.9,11.8,25l0,0c1.5,1.7,2.4,3.8,2.6,6l2.1,22.3c0.3,3.3,2.2,6.1,5.1,7.7l0,0
				c5.1,2.8,11.4,0.6,13.7-4.7l0,0c5.3-12.3,7.8-25.7,7.4-39.1l-0.5-13.3c-0.3-9.4,0.5-18.8,2.3-28l4.9-23.8
				C93.5,56.6,89.4,51.1,83.6,50.6z"/>
			<g>
				<path class="st87" d="M168.5,188c0,11.7-9.5,21.3-21.3,21.3s-21.3-9.5-21.3-21.3"/>
				<path class="st87" d="M191.3,157.5v22.2c8.6,11.5-4.5,37.3-22.7,37.3c-11.3,0-21.6-21-21.4-37.2"/>
				<path class="st87" d="M147.2,179.8c0.2,16.1-10.1,37.5-21.4,37.2c-17-0.4-31.4-29-22.7-37.3v-22.1"/>
				<path class="st87" d="M191.3,160.6L191.3,160.6c0-22.1-17.9-39.9-39.9-39.9h-8.2c-22.1,0-39.9,17.9-39.9,39.9v0"/>
				<g>
					<circle class="st2" cx="176.4" cy="166.6" r="3"/>
					<circle class="st2" cx="173.4" cy="180.7" r="3"/>
					<circle class="st2" cx="163.3" cy="162.4" r="3"/>
				</g>
				<g>
					<circle class="st2" cx="117" cy="166.6" r="3"/>
					<circle class="st2" cx="120" cy="180.7" r="3"/>
					<circle class="st2" cx="130.2" cy="162.4" r="3"/>
				</g>
				<line class="st87" x1="147.2" y1="148.4" x2="147.2" y2="178.9"/>
				<path class="st85" d="M166.8,141.3c0,5.6-8.7,14-19.5,14s-19.5-8.4-19.5-14s8.7-10.1,19.5-10.1S166.8,135.8,166.8,141.3z"/>
			</g>
		</g>
		<path class="st87" d="M241.2,67.4c0,0,6.5,6.2,7.1,17.4"/>
		<path class="st87" d="M191.7,179.8c-0.7,2.4-1.9,5.1-3.6,7.8"/>
		<path class="st87" d="M103.5,179.8c0.7,2.4,1.9,5.1,3.6,7.8"/>
		<path class="st87" d="M56.2,65.9c0,0-6.5,6.2-7.1,17.4"/>
	</g>
	<text transform="matrix(1 0 0 1 306.4358 209.306)" class="st1 st88 st89">the ultimate emergency response gps</text>
</g>
</svg>
