<?xml version="1.0" encoding="utf-8"?>
<!-- Generator: Adobe Illustrator 21.0.2, SVG Export Plug-In . SVG Version: 6.00 Build 0)  -->
<svg version="1.1" id="Layer_1" xmlns="http://www.w3.org/2000/svg" xmlns:xlink="http://www.w3.org/1999/xlink" x="0px" y="0px"
	 viewBox="0 0 1129.3 259.6" style="enable-background:new 0 0 1129.3 259.6;" xml:space="preserve">
<style type="text/css">
	.st0{fill:#EE4036;}
	.st1{fill:#FFFFFF;}
	.st2{fill:#2B388F;}
	.st3{fill:#FFFFFF;stroke:#2B388F;stroke-width:6.0774;stroke-linecap:round;stroke-miterlimit:10;}
	.st4{fill:#25A9E0;stroke:#2B388F;stroke-width:5;stroke-linecap:round;stroke-miterlimit:10;}
	.st5{fill:none;stroke:#EB008B;stroke-width:3;stroke-miterlimit:10;}
	.st6{fill:none;stroke:#EB008B;stroke-width:2.4825;stroke-miterlimit:10;}
	.st7{fill:#25A9E0;stroke:#2B388F;stroke-width:5;stroke-miterlimit:10;}
	.st8{fill:#1B75BB;}
	.st9{fill:#FFC335;}
	.st10{fill:#25A9E0;}
	.st11{fill:#F1F1F2;}
	.st12{clip-path:url(#XMLID_28_);fill:#25A9E0;stroke:#2B388F;stroke-width:4;stroke-miterlimit:10;}
	.st13{fill:#25A9E0;stroke:#2B388F;stroke-width:4;stroke-miterlimit:10;}
	.st14{fill:#F1F1F2;stroke:#2B388F;stroke-width:4;stroke-miterlimit:10;}
	.st15{fill:#1B75BB;stroke:#2B388F;stroke-width:4;stroke-miterlimit:10;}
	.st16{clip-path:url(#XMLID_29_);fill:#25A9E0;stroke:#2B388F;stroke-width:4;stroke-miterlimit:10;}
	.st17{clip-path:url(#XMLID_30_);fill:#25A9E0;stroke:#2B388F;stroke-width:2.4825;stroke-miterlimit:10;}
	.st18{fill:#25A9E0;stroke:#2B388F;stroke-width:2.4825;stroke-miterlimit:10;}
	.st19{fill:#F1F1F2;stroke:#2B388F;stroke-width:3;stroke-miterlimit:10;}
	.st20{fill:#1B75BB;stroke:#2B388F;stroke-width:2.4825;stroke-miterlimit:10;}
	.st21{fill:#231F20;}
	.st22{fill:#25A9E0;stroke:#2B388F;stroke-width:4.6531;stroke-miterlimit:10;}
	.st23{clip-path:url(#XMLID_31_);fill:#25A9E0;stroke:#2B388F;stroke-width:3.7293;stroke-linecap:round;stroke-miterlimit:10;}
	.st24{fill:#F1F1F2;stroke:#2B388F;stroke-width:3.7293;stroke-linecap:round;stroke-miterlimit:10;}
	.st25{fill:#1B75BB;stroke:#2B388F;stroke-width:3.7293;stroke-linecap:round;stroke-miterlimit:10;}
	.st26{fill:#25A9E0;stroke:#2B388F;stroke-width:3.7293;stroke-linecap:round;stroke-miterlimit:10;}
	.st27{clip-path:url(#XMLID_32_);fill:#25A9E0;stroke:#2B388F;stroke-width:5;stroke-miterlimit:10;}
	.st28{fill:#F1F1F2;stroke:#2B388F;stroke-width:5;stroke-miterlimit:10;}
	.st29{fill:#1B75BB;stroke:#2B388F;stroke-width:5;stroke-miterlimit:10;}
	.st30{clip-path:url(#XMLID_33_);fill:#25A9E0;stroke:#2B388F;stroke-width:5;stroke-miterlimit:10;}
	.st31{fill:#25A9E0;stroke:#2B388F;stroke-width:4.1526;stroke-miterlimit:10;}
	.st32{clip-path:url(#XMLID_34_);fill:#25A9E0;stroke:#2B388F;stroke-width:3.7293;stroke-linecap:round;stroke-miterlimit:10;}
	.st33{clip-path:url(#XMLID_35_);fill:#25A9E0;stroke:#2B388F;stroke-width:3.7293;stroke-linecap:round;stroke-miterlimit:10;}
	.st34{fill:#F1F1F2;stroke:#2B388F;stroke-width:4.3351;stroke-linecap:round;stroke-miterlimit:10;}
	.st35{fill:none;stroke:#2B388F;stroke-width:4.3351;stroke-linecap:round;stroke-miterlimit:10;}
	.st36{clip-path:url(#XMLID_36_);fill:#25A9E0;stroke:#2B388F;stroke-width:3.7293;stroke-linecap:round;stroke-miterlimit:10;}
	
		.st37{clip-path:url(#XMLID_37_);fill:#25A9E0;stroke:#2B388F;stroke-width:3.5905;stroke-linecap:round;stroke-linejoin:round;stroke-miterlimit:10;}
	.st38{fill:#25A9E0;stroke:#2B388F;stroke-width:3.8637;stroke-linecap:round;stroke-miterlimit:10;}
	
		.st39{clip-path:url(#XMLID_38_);fill:#25A9E0;stroke:#2B388F;stroke-width:3.5905;stroke-linecap:round;stroke-linejoin:round;stroke-miterlimit:10;}
	
		.st40{clip-path:url(#XMLID_39_);fill:#25A9E0;stroke:#2B388F;stroke-width:3.5905;stroke-linecap:round;stroke-linejoin:round;stroke-miterlimit:10;}
	
		.st41{clip-path:url(#XMLID_40_);fill:#25A9E0;stroke:#2B388F;stroke-width:3.5905;stroke-linecap:round;stroke-linejoin:round;stroke-miterlimit:10;}
	
		.st42{clip-path:url(#XMLID_41_);fill:#25A9E0;stroke:#2B388F;stroke-width:3.5905;stroke-linecap:round;stroke-linejoin:round;stroke-miterlimit:10;}
	.st43{fill:#F2F2F2;stroke:#2B388F;stroke-width:3.7293;stroke-linecap:round;stroke-miterlimit:10;}
	.st44{fill:#25A9E0;stroke:#2B388F;stroke-width:3.7293;stroke-linecap:round;stroke-linejoin:round;stroke-miterlimit:10;}
	
		.st45{clip-path:url(#XMLID_42_);fill:#25A9E0;stroke:#2B388F;stroke-width:3.7293;stroke-linecap:round;stroke-linejoin:round;stroke-miterlimit:10;}
	
		.st46{clip-path:url(#XMLID_43_);fill:#25A9E0;stroke:#2B388F;stroke-width:3.7293;stroke-linecap:round;stroke-linejoin:round;stroke-miterlimit:10;}
	
		.st47{clip-path:url(#XMLID_44_);fill:#25A9E0;stroke:#2B388F;stroke-width:3.7293;stroke-linecap:round;stroke-linejoin:round;stroke-miterlimit:10;}
	
		.st48{clip-path:url(#XMLID_45_);fill:#25A9E0;stroke:#2B388F;stroke-width:3.5905;stroke-linecap:round;stroke-linejoin:round;stroke-miterlimit:10;}
	
		.st49{clip-path:url(#XMLID_46_);fill:#25A9E0;stroke:#2B388F;stroke-width:3.307;stroke-linecap:round;stroke-linejoin:round;stroke-miterlimit:10;}
	.st50{fill:#1B75BB;stroke:#2B388F;stroke-width:3.1707;stroke-linecap:round;stroke-miterlimit:10;}
	.st51{fill:#25A9E0;stroke:#2B388F;stroke-width:3.1707;stroke-linecap:round;stroke-miterlimit:10;}
	.st52{fill:#F1F1F2;stroke:#2B388F;stroke-width:3.1707;stroke-linecap:round;stroke-miterlimit:10;}
	
		.st53{clip-path:url(#XMLID_47_);fill:#25A9E0;stroke:#2B388F;stroke-width:7.04;stroke-linecap:round;stroke-linejoin:round;stroke-miterlimit:10;}
	.st54{fill:#1B75BB;stroke:#2B388F;stroke-width:6.7498;stroke-linecap:round;stroke-miterlimit:10;}
	.st55{fill:#25A9E0;stroke:#2B388F;stroke-width:6.7498;stroke-linecap:round;stroke-miterlimit:10;}
	.st56{fill:#F1F1F2;stroke:#2B388F;stroke-width:6.7498;stroke-linecap:round;stroke-miterlimit:10;}
	.st57{fill:#25A9E0;stroke:#2B388F;stroke-width:20.1204;stroke-linecap:round;stroke-miterlimit:10;}
	
		.st58{clip-path:url(#XMLID_48_);fill:#25A9E0;stroke:#2B388F;stroke-width:10.3806;stroke-linecap:round;stroke-linejoin:round;stroke-miterlimit:10;}
	.st59{fill:#1B75BB;stroke:#2B388F;stroke-width:9.9527;stroke-linecap:round;stroke-miterlimit:10;}
	.st60{fill:#25A9E0;stroke:#2B388F;stroke-width:9.9527;stroke-linecap:round;stroke-miterlimit:10;}
	.st61{fill:#F1F1F2;stroke:#2B388F;stroke-width:9.9527;stroke-linecap:round;stroke-miterlimit:10;}
	
		.st62{clip-path:url(#XMLID_49_);fill:#25A9E0;stroke:#2B388F;stroke-width:3.7293;stroke-linecap:round;stroke-linejoin:round;stroke-miterlimit:10;}
	
		.st63{clip-path:url(#XMLID_50_);fill:#25A9E0;stroke:#2B388F;stroke-width:3.7293;stroke-linecap:round;stroke-linejoin:round;stroke-miterlimit:10;}
	.st64{fill:#F9EC31;}
	.st65{fill:#25A9E0;stroke:#2B388F;stroke-width:16;stroke-linecap:round;stroke-miterlimit:10;}
	.st66{fill:none;stroke:#FFFFFF;stroke-width:16;stroke-linecap:round;stroke-miterlimit:10;}
	.st67{fill:none;stroke:#2B388F;stroke-width:22.1377;stroke-linecap:round;stroke-miterlimit:10;}
	.st68{fill:none;stroke:#FFFFFF;stroke-width:22.1377;stroke-linecap:round;stroke-miterlimit:10;}
	.st69{fill:#37B34A;}
	.st70{fill:#BBBDBF;}
	.st71{fill:#FFFFFF;stroke:#2B388F;stroke-width:13;stroke-miterlimit:10;}
	.st72{fill:#FFFFFF;stroke:#BBBDBF;stroke-width:16.4159;stroke-linecap:round;stroke-miterlimit:10;}
	.st73{fill:#FFFFFF;stroke:#BBBDBF;stroke-width:15.6509;stroke-linecap:round;stroke-miterlimit:10;}
	.st74{fill:#FFFFFF;stroke:#2B388F;stroke-width:15;stroke-linecap:round;stroke-linejoin:round;stroke-miterlimit:10;}
	.st75{fill:#FFFFFF;stroke:#2B388F;stroke-width:12;stroke-linecap:round;stroke-miterlimit:10;}
	.st76{fill:#FFFFFF;stroke:#2B388F;stroke-width:4.5089;stroke-linecap:round;stroke-miterlimit:10;}
	.st77{fill:#FFFFFF;stroke:#2B388F;stroke-width:4.2863;stroke-linecap:round;stroke-miterlimit:10;}
	.st78{fill:#FFFFFF;stroke:#2B388F;stroke-width:2.9509;stroke-linecap:round;stroke-miterlimit:10;}
	.st79{fill:#FFFFFF;stroke:#2B388F;stroke-width:2.5215;stroke-linecap:round;stroke-miterlimit:10;}
	.st80{fill:none;stroke:#BBBDBF;stroke-width:16;stroke-linecap:round;stroke-miterlimit:10;}
	.st81{fill:#6D6E70;}
	.st82{fill:none;stroke:#929497;stroke-width:25;stroke-linecap:round;stroke-miterlimit:10;}
	.st83{fill:none;stroke:#929497;stroke-width:19;stroke-linecap:round;stroke-miterlimit:10;}
	
		.st84{clip-path:url(#XMLID_51_);fill:#25A9E0;stroke:#2B388F;stroke-width:5.9522;stroke-linecap:round;stroke-linejoin:round;stroke-miterlimit:10;}
	.st85{fill:#1B75BB;stroke:#2B388F;stroke-width:5.7069;stroke-linecap:round;stroke-miterlimit:10;}
	.st86{fill:#25A9E0;stroke:#2B388F;stroke-width:5.7069;stroke-linecap:round;stroke-miterlimit:10;}
	.st87{fill:#F1F1F2;stroke:#2B388F;stroke-width:5.7069;stroke-linecap:round;stroke-miterlimit:10;}
	
		.st88{clip-path:url(#XMLID_52_);fill:#25A9E0;stroke:#2B388F;stroke-width:5.9522;stroke-linecap:round;stroke-linejoin:round;stroke-miterlimit:10;}
	.st89{font-family:'Rubik-Regular';}
	.st90{font-size:40.9308px;}
</style>
<g>
	<g>
		<g>
			<path class="st1" d="M170.5,117.4c0.4,0.1,0.8,0.1,1.3,0.1c3.4,0,6.2-2.8,6.2-6.2c0-3.4-2.8-6.2-6.2-6.2c-2.8,0-5.2,1.9-5.9,4.4
				c-0.2,0.6-0.3,1.2-0.3,1.8C165.6,114.3,167.7,116.8,170.5,117.4z M171.8,110.5c0.5,0,0.8,0.4,0.8,0.8c0,0.4-0.4,0.8-0.8,0.8
				s-0.8-0.4-0.8-0.8C171,110.9,171.3,110.5,171.8,110.5z"/>
			<path class="st1" d="M121.8,105.2c-3.4,0-6.2,2.8-6.2,6.2c0,3.4,2.8,6.2,6.2,6.2c0.4,0,0.8,0,1.2-0.1c2.8-0.6,5-3.1,5-6.1
				c0-0.7-0.1-1.3-0.3-1.9C126.9,107,124.6,105.2,121.8,105.2z M121,111.4c0-0.5,0.4-0.8,0.8-0.8s0.8,0.4,0.8,0.8
				c0,0.4-0.4,0.8-0.8,0.8S121,111.8,121,111.4z"/>
			<path class="st1" d="M247.3,72.9l-9.7-6.3c-0.3-0.2-0.6-0.4-0.8-0.6l-15.3-13.9c-2.4-2.2-5.7-3.3-9-3.1l-4.9,0.4l0,0
				c-3.4,0.3-6.5,2-8.5,4.7c-1.1,1.4-1.8,3.1-2.1,4.8c-11-10.8-24.7-18-39.5-20.4c-0.5-0.1-1-0.1-1.4-0.1c-1,0-2,0.2-3,0.5
				c-0.9,0.3-1.8,0.6-2.7,1c-0.1,0-0.1,0.1-0.2,0.1c-1.5,0.6-2.9,1.2-4,1.2c-1.8,0-3.6-0.5-5.6-1c-0.1,0-0.1,0-0.2,0
				c-1-0.2-2-0.5-3-0.7c-1-0.2-2-0.4-3-0.4c-1.2-0.1-2.4,0-3.6,0.3c-12.9,2.9-24.6,9.3-34.1,18.3c-0.4-1.2-1-2.4-1.8-3.5
				c-2-2.7-5.2-4.5-8.5-4.7L81.4,49c-3.3-0.3-6.6,0.8-9,3.1L59.1,64.2c-0.2,0.1-0.4,0.2-0.6,0.4c-0.1,0.1-0.4,0.3-0.8,0.9L57,66
				c-0.3,0.2-0.5,0.4-0.8,0.6l-9.7,6.3c-3.9,2.6-6,7.3-5.2,11.9l3.9,23.9c1.5,9.2,5.6,17.9,11.8,24.9c1,1.2,1.6,2.6,1.8,4.1l1.9,21
				c0.4,3.8,2.5,7.1,5.7,9.1c0.2,0.1,0.3,0.2,0.5,0.3c0.9,0.5,1.9,0.9,2.9,1.1c0.9,0.2,1.9,0.3,2.9,0.3c1.3,0,2.6-0.2,3.9-0.6
				c0,0,0.1,0,0.1,0c0.9-0.3,1.8-0.8,2.7-1.4l4.9-2.5c0.2,0.8,0.3,1.5,0.4,2.3c1.5,9.6,7.4,17.7,17.1,23.7
				c4.2,10.1,13.6,20.1,24.1,20.4c0.1,0,0.2,0,0.3,0c3.5,0,7.1-1.7,10.3-4.9c1-1,2-2.1,2.9-3.4c2.1,0.7,4.4,1,6.7,1
				c2.4,0,4.6-0.4,6.8-1c0.8,1.1,1.7,2.2,2.6,3.1c3.4,3.4,7.1,5.2,10.8,5.2c11.1,0,19.3-8.5,23.3-16.4c0.9-1.7,1.5-3.4,2.1-5.1
				c10.1-6.5,16.2-15.2,17.7-25.4c0-0.1,0-0.3,0.1-0.4l3.2,1.6c1.3,1.4,3,2.5,4.8,3.1c1,0.3,2,0.5,3,0.6c0.3,0,0.6,0,0.9,0
				c2,0,4-0.5,5.7-1.5c1.7-0.9,3.1-2.2,4.2-3.8c0.8-1.1,1.3-2.4,1.7-3.7c0.2-0.6,0.3-1.2,0.3-1.9l1.9-21c0.1-1.5,0.8-3,1.8-4.1
				c6.2-7,10.3-15.6,11.8-24.9l3.9-23.9C253.3,80.2,251.2,75.5,247.3,72.9z M229.7,137.2l-1.9,21c-0.2,2.2-1.5,4.1-3.4,5.1
				c-0.7,0.4-1.5,0.6-2.3,0.7c-1,0.1-2,0-3-0.3c-1.5-0.5-2.7-1.5-3.5-2.8c-0.2-0.3-0.3-0.5-0.4-0.8c-1.1-2.6-2.1-5.2-2.9-7.8
				c-1-3.1-1.8-6.2-2.4-9.4c-1.2-6.1-1.6-12.2-1.4-18.4l0.4-12.5c0.3-9.1-0.4-18.1-2.3-27l-1.1-5.5l-2.9-14.1l-0.6-2.8
				c-0.4-1.9,0-3.7,1.2-5.2c1.1-1.5,2.8-2.4,4.7-2.6l4.9-0.4c1.8-0.2,3.6,0.5,5,1.7L232,68.9c0.1,0.4,0.4,0.7,0.7,1
				c0.1,0.1,5.3,5.2,5.9,14.6c0.1,1.4,1.3,2.5,2.7,2.5c0.1,0,0.1,0,0.2,0c1.5-0.1,2.6-1.4,2.5-2.8c-0.2-3.1-0.8-5.7-1.6-8.1l1.9,1.3
				c2.2,1.4,3.3,4,2.9,6.5l-3.9,23.9c-1.3,8.2-5,15.9-10.5,22.2C231,132.1,230,134.5,229.7,137.2z M184.6,192.6
				c-0.3,0.5-0.5,1-0.8,1.5c-3.4,5.8-9.7,11.9-17.6,11.9c-2.8,0-5.3-2-6.9-3.6c-0.4-0.4-0.8-0.8-1.1-1.3c-0.1-0.1-0.2-0.2-0.3-0.3
				c-0.6-0.7-1.1-1.4-1.6-2.2c-0.5-0.7-1-1.5-1.4-2.3c-0.1-0.2-0.2-0.3-0.3-0.5c-2.4-4.3-4.2-9.4-5.1-14.5c-0.5-2.6-0.7-5.2-0.7-7.7
				l0,0c0,0,0,0,0-0.1c0-0.1,0-0.2,0-0.2c0,0,0-0.1,0-0.1c0-0.1,0-0.3,0-0.4l0-0.6l0-16.7l0-2.5c10.2-1.2,18.4-9.1,18.4-15.7
				c0-6.9-9.1-12.2-21.1-12.2c-12,0-21.1,5.2-21.1,12.2c0,6.6,8.2,14.5,18.4,15.7l0,2.5l0,16.7l0,0.5c0,0.1,0,0.3,0,0.4
				c0,0,0,0.1,0,0.1c0,0.1,0,0.2,0,0.3l0,0c0,2.4-0.2,5-0.7,7.7c-0.9,5.1-2.8,10.2-5.1,14.5c-0.1,0.2-0.2,0.3-0.2,0.4
				c-0.5,0.8-0.9,1.6-1.4,2.3c-0.5,0.8-1.1,1.5-1.6,2.2c-0.1,0.1-0.2,0.2-0.3,0.4c-0.4,0.5-0.9,1-1.3,1.5c-1.6,1.5-4,3.4-6.6,3.4
				c0,0-0.1,0-0.1,0c-6-0.2-11.8-4.9-15.8-10.8c-1.6-2.3-2.9-4.7-3.8-7.1c-0.2-0.4-0.3-0.8-0.4-1.2c-0.8-2.4-1.2-4.6-1.2-6.5
				c0.4,0.7,0.8,1.4,1.3,2.1c0.5,0.8,1.4,1.2,2.3,1.2c0.5,0,1-0.1,1.5-0.4c1.2-0.8,1.6-2.5,0.8-3.7c-1.4-2.1-2.4-4.3-3.1-6.7
				c0-0.2-0.1-0.3-0.2-0.5v-16.8c0-0.5,0-1,0-1.5c0-0.3,0-0.7,0.1-1c0.1-1.6,0.3-3.2,0.7-4.8c1.6-7.5,5.6-14.1,11.2-19
				c0.8-0.7,1.6-1.3,2.4-1.9c1-0.8,2.1-1.5,3.2-2.1c0.6-0.3,1.1-0.6,1.7-0.9c4.7-2.4,10-3.7,15.6-3.7h7.8c7.3,0,14.1,2.3,19.7,6.1
				c2.6,1.8,5,4,7.1,6.4c2.4,2.9,4.4,6.2,5.8,9.7c1.1,2.9,1.9,5.9,2.2,9.1c0.1,0.7,0.1,1.3,0.1,2c0,0.5,0,1.1,0,1.6v18.8l0,0
				c-0.7,1.8-1.5,3.5-2.6,5.1c-0.8,1.2-0.5,2.9,0.8,3.7c0.5,0.3,1,0.4,1.5,0.4c0.9,0,1.7-0.4,2.3-1.2c0.2-0.3,0.4-0.6,0.6-1
				c0,1.4-0.1,3-0.4,4.6C186.5,188.3,185.7,190.5,184.6,192.6z M143.4,196.3c1-2.1,1.9-4.2,2.6-6.5c0.7,2.2,1.6,4.4,2.6,6.5
				c0.3,0.7,0.7,1.4,1.1,2.1c-1.2,0.3-2.4,0.4-3.7,0.4c-1.3,0-2.5-0.1-3.7-0.4C142.7,197.7,143,197,143.4,196.3z M143.3,147.8
				c-7.6-1.2-13-7.1-13-10.2c0-3.2,6.7-6.8,15.7-6.8c9,0,15.7,3.6,15.7,6.8c0,3.1-5.5,9-13,10.2c-0.9,0.1-1.8,0.2-2.7,0.2
				c0,0,0,0,0,0C145.1,148,144.2,147.9,143.3,147.8z M73.7,164.1c-1.5,0.3-3,0-4.3-0.7c-1.9-1-3.2-3-3.4-5.1l-1.9-21
				c-0.2-2.7-1.3-5.2-3.1-7.2c-5.5-6.3-9.1-14-10.5-22.2L46.6,84c-0.4-2.6,0.7-5.1,2.9-6.5l2.6-1.7c-0.6,2.1-1.1,4.4-1.2,7.1
				c-0.1,1.5,1,2.8,2.5,2.8c0.1,0,0.1,0,0.2,0c1.4,0,2.6-1.1,2.7-2.5c0.4-7.4,3.8-12.2,5.3-13.9L76,56.1c1.2-1.1,2.8-1.7,4.4-1.7
				c0.2,0,0.4,0,0.6,0l4.9,0.4c1.9,0.2,3.6,1.1,4.7,2.6c1.1,1.5,1.6,3.4,1.2,5.2l0,0.1l-2.6,12.5l-2,9.8c-1.8,8.9-2.6,18-2.3,27
				l0.4,12.5c0.3,7.2-0.5,14.4-2.1,21.4c-0.7,2.9-1.5,5.8-2.5,8.6c-0.7,1.9-1.4,3.8-2.2,5.7c-0.3,0.8-0.8,1.5-1.4,2.1
				c-0.7,0.7-1.5,1.2-2.4,1.5C74.4,163.9,74.1,164,73.7,164.1z M158.1,94.4c0,0,0-0.1,0-0.1c0.4-4.9,2.5-8.7,5.8-10.6
				c1.6-0.9,3.5-1.4,5.4-1.4c6.5,0,14.2,5.2,19,13.6c6.3,10.9,5.5,23.1-1.7,27.2c-3.3,1.9-7.6,1.8-12.1-0.3
				c-0.4-0.2-0.8-0.4-1.2-0.6c-2.1-1.1-4.1-2.7-5.9-4.5c-1.9-1.9-3.7-4.2-5.1-6.7c-1.3-2.3-2.3-4.7-3-7.1
				C158.2,100.6,157.8,97.4,158.1,94.4z M134.6,103.3c-0.7,2.5-1.8,5-3.2,7.5c-1.5,2.6-3.3,5-5.3,7c-0.8,0.8-1.6,1.5-2.4,2.1
				c-1.1,0.6-2.1,1.2-3.2,1.8c-0.5,0.3-1.1,0.7-1.6,1.1c-4.4,2-8.6,2.1-11.9,0.2c-3.3-1.9-5.4-5.7-5.8-10.6
				c-0.5-5.3,1-11.2,4.1-16.6c4.8-8.4,12.5-13.6,19-13.6c1.9,0,3.8,0.4,5.4,1.4c3.3,1.9,5.2,5.5,5.8,9.9
				C135.9,96.5,135.6,99.9,134.6,103.3z M197.8,68.3l3.7,17.8c1.7,8.5,2.5,17.1,2.2,25.7l-0.4,12.5c-0.3,9.2,0.8,18.6,3.4,27.5
				c-0.4,1.3-0.9,2.7-1.2,4.2l-15.8-7.6c-1.3-7.1-4.4-13.5-8.8-18.8c0.2,0,0.4,0,0.6,0c2.9,0,5.6-0.7,8-2.1
				c9.8-5.6,11.4-21.2,3.7-34.6c-7.8-13.4-22-19.8-31.8-14.1c-1.2,0.7-2.2,1.5-3.1,2.4V44.5C173.3,47.4,187.3,55.8,197.8,68.3z
				 M152.2,45.3c0.1,0,0.2-0.1,0.3-0.1v52.1c0,0.4,0.1,0.8,0.2,1.1c0.4,5.1,2,10.3,4.9,15.2c0.6,1.1,1.3,2.1,1.9,3
				c-3.1-0.8-6.3-1.2-9.6-1.2h-7.8c-2.6,0-5.2,0.3-7.7,0.8c0.6-0.8,1.1-1.7,1.7-2.6c2.9-5.1,4.5-10.4,4.8-15.4
				c0.1-0.3,0.2-0.7,0.2-1.1V46.2c1.6,0.4,3.2,0.6,4.9,0.6C148.3,46.9,150.3,46,152.2,45.3z M131.9,44.9c0.5-0.1,1-0.2,1.6-0.2
				c0.6,0,1.3,0.1,2,0.2v36.4c-0.9-0.9-2-1.7-3.1-2.4c-9.8-5.6-24,0.7-31.8,14.1c-3.7,6.4-5.4,13.4-4.8,19.8
				c0.6,6.7,3.6,12,8.5,14.8c2.2,1.2,4.6,1.9,7.1,2.1c-4.6,5.5-7.9,12.3-9,19.7L87.7,157c-0.3-1-0.7-1.9-1-2.9
				c3-9.6,4.4-19.7,4.1-29.7l-0.4-12.5c-0.3-8.6,0.4-17.3,2.2-25.7l4.2-20.4C106,55.4,118.2,48,131.9,44.9z M90.1,166.5
				c-0.2-1.4-0.5-2.7-0.8-4l12.6-6.4v16.6c-1.9,2.4-2.7,5.8-2.4,9.9C94.5,178.2,91.1,172.9,90.1,166.5z M203.7,163.8
				c-1.2,8-5.7,14-11,18.4c0-3.2-0.7-6.1-2.1-8.6c0-0.4-0.2-0.9-0.4-1.2v-16.6v-0.7l13.9,6.6C203.9,162.4,203.8,163.1,203.7,163.8z"
				/>
			<path class="st1" d="M175.2,159c-0.5-0.3-1-0.5-1.6-0.5c-1.6,0-2.8,1.2-2.8,2.8c0,0,0,0,0,0.1c0,1.6,1.3,2.9,2.9,2.9
				c1.6,0,2.9-1.3,2.9-2.9C176.4,160.4,175.9,159.5,175.2,159z"/>
			<circle class="st1" cx="170.7" cy="174.6" r="2.9"/>
			<path class="st1" d="M161.1,154.5c-1,0-1.8,0.5-2.3,1.2c-0.3,0.5-0.5,1-0.5,1.6c0,1.6,1.3,2.9,2.9,2.9c1.6,0,2.9-1.3,2.9-2.9
				c0-0.6-0.2-1.2-0.5-1.6C163,155,162.1,154.5,161.1,154.5z"/>
			<path class="st1" d="M120.4,161.3c0-0.2,0-0.3,0-0.5c-0.2-1.3-1.4-2.4-2.8-2.4c-0.5,0-0.9,0.1-1.3,0.3c-0.9,0.5-1.6,1.4-1.6,2.5
				c0,1.6,1.3,2.9,2.9,2.9C119.1,164.2,120.4,162.9,120.4,161.3z"/>
			<circle class="st1" cx="120.4" cy="174.6" r="2.9"/>
			<path class="st1" d="M130,160.2c1.6,0,2.9-1.3,2.9-2.9c0-0.6-0.2-1.2-0.5-1.6c-0.5-0.7-1.4-1.2-2.3-1.2c-1,0-1.8,0.5-2.3,1.2
				c-0.3,0.5-0.5,1-0.5,1.6C127.1,158.9,128.4,160.2,130,160.2z"/>
		</g>
	</g>
	<g>
		<g>
			<path class="st11" d="M363.1,80.5c5.9,4.6,8.8,11.4,8.8,20.3c0,6-1.4,11.1-4.2,15.3c-2.8,4.2-6.5,7.3-11.2,9.4
				c-4.7,2.1-9.9,3.1-15.6,3.1h-23.6V160c0,0.9-0.3,1.8-1,2.4c-0.7,0.7-1.5,1-2.4,1h-5.3c-0.9,0-1.8-0.3-2.4-1c-0.7-0.7-1-1.5-1-2.4
				V77c0-0.9,0.3-1.8,1-2.4c0.7-0.7,1.5-1,2.4-1H341C349.9,73.6,357.3,75.9,363.1,80.5z M340.3,117c6.2,0,11-1.3,14.4-4
				c3.3-2.7,5-6.7,5-12.1c0-10.4-6.5-15.7-19.4-15.7h-23V117H340.3z"/>
			<path class="st11" d="M499.5,74.6c0.7,0.7,1,1.5,1,2.4V160c0,0.9-0.3,1.8-1,2.4c-0.7,0.7-1.5,1-2.4,1h-5.3c-0.9,0-1.8-0.3-2.4-1
				c-0.7-0.7-1-1.5-1-2.4v-36.2h-45.2V160c0,0.9-0.3,1.8-1,2.4c-0.7,0.7-1.5,1-2.4,1h-5.3c-0.9,0-1.8-0.3-2.4-1
				c-0.7-0.6-1-1.5-1-2.5V77c0-0.9,0.3-1.8,1-2.4c0.7-0.7,1.5-1,2.4-1h5.3c0.9,0,1.8,0.3,2.4,1c0.7,0.7,1,1.5,1,2.4v35.2h45.2V77
				c0-0.9,0.3-1.8,1-2.4c0.7-0.7,1.5-1,2.4-1h5.3C498,73.6,498.8,73.9,499.5,74.6z"/>
			<path class="st11" d="M576.5,143.1l-6.7,17.1c-0.8,2.1-2.4,3.2-5,3.2h-4.7c-0.8,0-1.4-0.3-2-0.8c-0.6-0.6-0.8-1.2-0.8-2
				c0-0.4,0.2-1,0.5-1.8l31.4-81c1.1-2.8,3-4.2,5.8-4.2h7.7c2.7,0,4.7,1.4,5.8,4.2l31.3,81c0.3,0.8,0.5,1.4,0.5,1.8
				c0,0.8-0.3,1.4-0.8,2c-0.6,0.6-1.2,0.8-2,0.8h-4.7c-2.6,0-4.2-1.1-5-3.2l-6.7-17.1H576.5z M616.5,131.6l-17.7-45.8L581,131.6
				H616.5z"/>
			<path class="st11" d="M753.9,80.2c5.8,4.4,8.7,11.1,8.7,20c0,6.7-1.7,12.1-5,16.3c-3.3,4.2-7.8,7.2-13.5,9l19.4,33.8
				c0.3,0.5,0.4,1,0.4,1.4c0,0.8-0.3,1.4-0.8,2c-0.6,0.6-1.2,0.8-2,0.8h-5.5c-2.4,0-4.2-1.2-5.5-3.5l-18.6-32.7h-22.1V160
				c0,0.9-0.3,1.8-1,2.4c-0.7,0.7-1.5,1-2.4,1h-5.3c-0.9,0-1.8-0.3-2.4-1c-0.7-0.7-1-1.5-1-2.4V77c0-0.9,0.3-1.8,1-2.4
				c0.7-0.7,1.5-1,2.4-1h31.1C740.6,73.6,748,75.8,753.9,80.2z M731,115.7c12.9,0,19.4-5.2,19.4-15.5c0-5.3-1.6-9.1-4.9-11.5
				c-3.3-2.4-8.1-3.5-14.5-3.5h-21.7v30.5H731z"/>
			<path class="st11" d="M875.3,76.9c5.3,3.1,9.3,7.3,12.1,12.5c2.8,5.3,4.3,11.1,4.4,17.6c0.2,5.1,0.3,8.9,0.3,11.4
				c0,2.5-0.1,6.3-0.3,11.4c-0.3,6.5-1.8,12.4-4.6,17.6c-2.8,5.3-6.8,9.4-12.1,12.5c-5.3,3.1-11.5,4.6-18.8,4.6
				c-7.3,0-13.5-1.5-18.8-4.6c-5.3-3.1-9.3-7.3-12.1-12.5c-2.8-5.3-4.3-11.1-4.6-17.6c-0.1-2.6-0.1-6.4-0.1-11.4c0-5,0-8.9,0.1-11.4
				c0.2-6.5,1.6-12.4,4.4-17.6c2.8-5.3,6.8-9.4,12.1-12.5c5.3-3.1,11.6-4.6,18.9-4.6C863.7,72.3,870,73.8,875.3,76.9z M839.8,89.9
				c-4.2,4-6.4,10-6.7,17.8c-0.1,2.6-0.1,6.2-0.1,10.8c0,4.6,0,8.2,0.1,10.8c0.3,7.9,2.5,13.8,6.7,17.8c4.2,4,9.7,6,16.6,6
				c6.8,0,12.4-2,16.6-6c4.2-4,6.4-10,6.7-17.8c0.2-5.1,0.3-8.7,0.3-10.8c0-2.1-0.1-5.6-0.3-10.8c-0.3-7.9-2.5-13.8-6.7-17.8
				c-4.2-4-9.7-6-16.6-6C849.6,83.8,844,85.9,839.8,89.9z"/>
			<path class="st11" d="M1013.6,97.5c-0.6,0.6-1.3,0.8-2.1,0.8h-5.3c-1,0-1.8-0.2-2.3-0.6c-0.5-0.4-1.1-1.1-1.7-2.2
				c-1.4-2.7-3.7-5.3-7.1-7.8c-3.4-2.6-7.9-3.9-13.4-3.9c-5.1,0-9.5,1.2-13,3.5c-3.6,2.3-5.3,5.6-5.3,9.9c0,2.9,0.9,5.3,2.6,7.1
				c1.8,1.8,4.4,3.4,8,4.7c3.5,1.3,8.9,2.9,16.1,4.8c9.8,2.6,16.7,5.7,20.7,9.4c4.1,3.7,6.1,8.8,6.1,15.2c0,5.1-1.4,9.7-4.3,13.6
				c-2.9,3.9-6.9,7-12.1,9.2c-5.2,2.2-11.3,3.3-18.1,3.3c-6.3,0-12.1-1.2-17.3-3.6c-5.2-2.4-9.3-5.5-12.3-9.2
				c-3-3.7-4.6-7.4-4.7-11.1c0-0.8,0.3-1.4,0.8-2c0.6-0.6,1.2-0.8,2-0.8h5.3c0.9,0,1.7,0.2,2.3,0.6c0.6,0.4,1.2,1.1,1.7,2.2
				c1.4,3.1,3.9,5.9,7.5,8.5c3.6,2.6,8.6,3.9,14.8,3.9c6.2,0,11.5-1.3,15.8-4c4.3-2.7,6.5-6.2,6.5-10.6c0-2.8-1.1-5.2-3.4-7.1
				c-2.3-1.9-5.4-3.5-9.3-4.9c-3.9-1.3-9.7-3-17.3-4.9c-8.3-2.1-14.3-5.2-18-9.3c-3.7-4.1-5.5-9.1-5.5-15.1c0-4.4,1.2-8.6,3.5-12.3
				c2.3-3.8,5.8-6.8,10.4-9.1c4.6-2.3,10.2-3.5,16.7-3.5c6.5,0,12.2,1.3,17.1,3.8c4.9,2.5,8.6,5.6,11.3,9.3s4.1,7.1,4.2,10.1
				C1014.5,96.3,1014.2,97,1013.6,97.5z"/>
		</g>
		<g>
			<path class="st11" d="M1072.6,111.1c0,0.6-0.2,1.2-0.7,1.6c-0.5,0.5-1,0.7-1.6,0.7h-10.8c-0.6,0-1.2-0.2-1.6-0.7
				c-0.5-0.5-0.7-1-0.7-1.6V96.9h-13.3c-0.6,0-1.2-0.2-1.6-0.7c-0.5-0.5-0.7-1-0.7-1.6v-8.7c0-0.6,0.2-1.2,0.7-1.6
				c0.5-0.5,1-0.7,1.6-0.7h13.3V69.4c0-0.6,0.2-1.2,0.7-1.6c0.5-0.5,1-0.7,1.6-0.7h10.8c0.6,0,1.2,0.2,1.6,0.7
				c0.5,0.5,0.7,1,0.7,1.6v14.2h13.2c0.6,0,1.2,0.2,1.6,0.7c0.5,0.5,0.7,1,0.7,1.6v8.7c0,0.6-0.2,1.2-0.7,1.6
				c-0.5,0.5-1,0.7-1.6,0.7h-13.2V111.1z"/>
		</g>
	</g>
	<text transform="matrix(1 0 0 1 304.0005 209.9248)" class="st1 st89 st90">the ultimate emergency response gps</text>
</g>
</svg>
