<?xml version="1.0" encoding="utf-8"?>
<!-- Generator: Adobe Illustrator 21.0.2, SVG Export Plug-In . SVG Version: 6.00 Build 0)  -->
<svg version="1.1" id="Layer_1" xmlns="http://www.w3.org/2000/svg" xmlns:xlink="http://www.w3.org/1999/xlink" x="0px" y="0px"
	 viewBox="0 0 1129.3 259.6" style="enable-background:new 0 0 1129.3 259.6;" xml:space="preserve">
<style type="text/css">
	.st0{fill:#F1F1F2;}
	.st1{clip-path:url(#SVGID_2_);}
	.st2{fill:#25A9E0;}
	.st3{fill:#2B388F;}
	.st4{clip-path:url(#SVGID_4_);}
	.st5{fill:#1B75BB;}
	.st6{enable-background:new    ;}
	.st7{fill:#FFFFFF;}
</style>
<g>
	<g>
		<g>
			<g>
				<path class="st0" d="M365.6,79.9c5.9,4.6,8.8,11.4,8.8,20.3c0,6-1.4,11.1-4.2,15.3c-2.8,4.2-6.5,7.3-11.2,9.4s-9.9,3.1-15.6,3.1
					h-23.6v31.4c0,0.9-0.3,1.8-1,2.4c-0.7,0.7-1.5,1-2.4,1h-5.3c-0.9,0-1.8-0.3-2.4-1c-0.7-0.7-1-1.5-1-2.4v-83c0-0.9,0.3-1.8,1-2.4
					c0.7-0.7,1.5-1,2.4-1h32.3C352.3,73,359.7,75.3,365.6,79.9z M342.8,116.3c6.2,0,11-1.3,14.4-4c3.3-2.7,5-6.7,5-12.1
					c0-10.4-6.5-15.7-19.4-15.7h-23v31.8H342.8z"/>
			</g>
			<g>
				<path class="st0" d="M501.9,74c0.7,0.7,1,1.5,1,2.4v82.9c0,0.9-0.3,1.8-1,2.4c-0.7,0.7-1.5,1-2.4,1h-5.3c-0.9,0-1.8-0.3-2.4-1
					c-0.7-0.7-1-1.5-1-2.4v-36.2h-45.2v36.2c0,0.9-0.3,1.8-1,2.4c-0.7,0.7-1.5,1-2.4,1h-5.3c-0.9,0-1.8-0.3-2.4-1
					c-0.7-0.6-1-1.5-1-2.5V76.4c0-0.9,0.3-1.8,1-2.4c0.7-0.7,1.5-1,2.4-1h5.3c0.9,0,1.8,0.3,2.4,1c0.7,0.7,1,1.5,1,2.4v35.2h45.2
					V76.4c0-0.9,0.3-1.8,1-2.4c0.7-0.7,1.5-1,2.4-1h5.3C500.4,73,501.2,73.3,501.9,74z"/>
			</g>
			<g>
				<path class="st0" d="M578.9,142.5l-6.7,17.1c-0.8,2.1-2.4,3.2-5,3.2h-4.7c-0.8,0-1.4-0.3-2-0.8c-0.6-0.6-0.8-1.2-0.8-2
					c0-0.4,0.2-1,0.5-1.8l31.4-81c1.1-2.8,3-4.2,5.8-4.2h7.7c2.7,0,4.7,1.4,5.8,4.2l31.3,81c0.3,0.8,0.5,1.4,0.5,1.8
					c0,0.8-0.3,1.4-0.8,2c-0.6,0.6-1.2,0.8-2,0.8h-4.7c-2.6,0-4.2-1.1-5-3.2l-6.7-17.1H578.9z M619,131l-17.7-45.8L583.4,131H619z"
					/>
			</g>
			<g>
				<path class="st0" d="M756.3,79.6c5.8,4.4,8.7,11.1,8.7,20c0,6.7-1.7,12.1-5,16.3s-7.8,7.2-13.5,9l19.4,33.8
					c0.3,0.5,0.4,1,0.4,1.4c0,0.8-0.3,1.4-0.8,2c-0.6,0.6-1.2,0.8-2,0.8H758c-2.4,0-4.2-1.2-5.5-3.5l-18.6-32.7h-22.1v32.7
					c0,0.9-0.3,1.8-1,2.4c-0.7,0.7-1.5,1-2.4,1H703c-0.9,0-1.8-0.3-2.4-1c-0.7-0.7-1-1.5-1-2.4v-83c0-0.9,0.3-1.8,1-2.4
					c0.7-0.7,1.5-1,2.4-1h31.1C743.1,73,750.5,75.2,756.3,79.6z M733.5,115.1c12.9,0,19.4-5.2,19.4-15.5c0-5.3-1.6-9.1-4.9-11.5
					c-3.3-2.4-8.1-3.5-14.5-3.5h-21.7v30.5H733.5z"/>
			</g>
			<g>
				<path class="st0" d="M877.7,76.3c5.3,3.1,9.3,7.3,12.1,12.5c2.8,5.3,4.3,11.1,4.4,17.6c0.2,5.1,0.3,8.9,0.3,11.4
					s-0.1,6.3-0.3,11.4c-0.3,6.5-1.8,12.4-4.6,17.6c-2.8,5.3-6.8,9.4-12.1,12.5s-11.5,4.6-18.8,4.6s-13.5-1.5-18.8-4.6
					s-9.3-7.3-12.1-12.5c-2.8-5.3-4.3-11.1-4.6-17.6c-0.1-2.6-0.1-6.4-0.1-11.4s0-8.9,0.1-11.4c0.2-6.5,1.6-12.4,4.4-17.6
					c2.8-5.3,6.8-9.4,12.1-12.5s11.6-4.6,18.9-4.6C866.1,71.7,872.4,73.2,877.7,76.3z M842.3,89.3c-4.2,4-6.4,10-6.7,17.8
					c-0.1,2.6-0.1,6.2-0.1,10.8c0,4.6,0,8.2,0.1,10.8c0.3,7.9,2.5,13.8,6.7,17.8s9.7,6,16.6,6c6.8,0,12.4-2,16.6-6
					c4.2-4,6.4-10,6.7-17.8c0.2-5.1,0.3-8.7,0.3-10.8c0-2.1-0.1-5.6-0.3-10.8c-0.3-7.9-2.5-13.8-6.7-17.8s-9.7-6-16.6-6
					C852,83.2,846.5,85.2,842.3,89.3z"/>
			</g>
			<g>
				<path class="st0" d="M1016.1,96.9c-0.6,0.6-1.3,0.8-2.1,0.8h-5.3c-1,0-1.8-0.2-2.3-0.6s-1.1-1.1-1.7-2.2
					c-1.4-2.7-3.7-5.3-7.1-7.8c-3.4-2.6-7.9-3.9-13.4-3.9c-5.1,0-9.5,1.2-13,3.5c-3.6,2.3-5.3,5.6-5.3,9.9c0,2.9,0.9,5.3,2.6,7.1
					c1.8,1.8,4.4,3.4,8,4.7c3.5,1.3,8.9,2.9,16.1,4.8c9.8,2.6,16.7,5.7,20.7,9.4c4.1,3.7,6.1,8.8,6.1,15.2c0,5.1-1.4,9.7-4.3,13.6
					c-2.9,3.9-6.9,7-12.1,9.2c-5.2,2.2-11.3,3.3-18.1,3.3c-6.3,0-12.1-1.2-17.3-3.6c-5.2-2.4-9.3-5.5-12.3-9.2s-4.6-7.4-4.7-11.1
					c0-0.8,0.3-1.4,0.8-2c0.6-0.6,1.2-0.8,2-0.8h5.3c0.9,0,1.7,0.2,2.3,0.6c0.6,0.4,1.2,1.1,1.7,2.2c1.4,3.1,3.9,5.9,7.5,8.5
					s8.6,3.9,14.8,3.9s11.5-1.3,15.8-4s6.5-6.2,6.5-10.6c0-2.8-1.1-5.2-3.4-7.1c-2.3-1.9-5.4-3.5-9.3-4.9c-3.9-1.3-9.7-3-17.3-4.9
					c-8.3-2.1-14.3-5.2-18-9.3c-3.7-4.1-5.5-9.1-5.5-15.1c0-4.4,1.2-8.6,3.5-12.3c2.3-3.8,5.8-6.8,10.4-9.1
					c4.6-2.3,10.2-3.5,16.7-3.5s12.2,1.3,17.1,3.8c4.9,2.5,8.6,5.6,11.3,9.3c2.7,3.7,4.1,7.1,4.2,10.1
					C1016.9,95.7,1016.7,96.3,1016.1,96.9z"/>
			</g>
		</g>
		<g>
			<g>
				<path class="st0" d="M1075.1,110.4c0,0.6-0.2,1.2-0.7,1.6c-0.5,0.5-1,0.7-1.6,0.7H1062c-0.6,0-1.2-0.2-1.6-0.7
					c-0.5-0.5-0.7-1-0.7-1.6V96.3h-13.3c-0.6,0-1.2-0.2-1.6-0.7c-0.5-0.5-0.7-1-0.7-1.6v-8.7c0-0.6,0.2-1.2,0.7-1.6
					c0.5-0.5,1-0.7,1.6-0.7h13.3V68.8c0-0.6,0.2-1.2,0.7-1.6c0.5-0.5,1-0.7,1.6-0.7h10.8c0.6,0,1.2,0.2,1.6,0.7
					c0.5,0.5,0.7,1,0.7,1.6V83h13.2c0.6,0,1.2,0.2,1.6,0.7c0.5,0.5,0.7,1,0.7,1.6V94c0,0.6-0.2,1.2-0.7,1.6c-0.5,0.5-1,0.7-1.6,0.7
					h-13.2V110.4z"/>
			</g>
		</g>
	</g>
	<g>
		<g>
			<g>
				<g>
					<g id="XMLID_24_">
						<path class="st0" d="M224.6,122.5c0,17.4-10.1,26.7-13.2,47.1c-4.1,26.1-37.5,37.1-64.2,37.1c-25.6,0-58.5-9.4-62.3-34.3
							c-2.6-17.2-15.1-31.3-15.1-50c0-40.7,26.5-74.6,61.8-82.5c5-1.1,10.3,2,15.6,2c3.9,0,7.8-3.4,11.6-2.8
							C196,45.3,224.6,80.3,224.6,122.5z"/>
					</g>
				</g>
				<g>
					<g>
						<defs>
							<path id="SVGID_1_" d="M224.6,122.5c0,17.4-10.1,26.7-13.2,47.1c-4.1,26.1-37.5,37.1-64.2,37.1c-25.6,0-58.5-9.4-62.3-34.3
								c-2.6-17.2-15.1-31.3-15.1-50c0-40.7,26.5-74.6,61.8-82.5c5-1.1,10.3,2,15.6,2c3.9,0,7.8-3.4,11.6-2.8
								C196,45.3,224.6,80.3,224.6,122.5z"/>
						</defs>
						<clipPath id="SVGID_2_">
							<use xlink:href="#SVGID_1_"  style="overflow:visible;"/>
						</clipPath>
						<g class="st1">
							<polygon class="st2" points="67.1,173.3 105.7,154.8 139,98.4 139,40.9 128.7,4 62.7,7.1 40.3,108.9 							"/>
							<path class="st3" d="M67.1,176.3c-0.4,0-0.7-0.1-1.1-0.2c-0.8-0.3-1.4-0.9-1.7-1.6L37.6,110c-0.2-0.6-0.3-1.2-0.2-1.8
								L59.8,6.5c0.3-1.3,1.4-2.3,2.8-2.3l66-3.1c1.4-0.1,2.6,0.8,3,2.2l10.3,36.9c0.1,0.3,0.1,0.5,0.1,0.8v57.5
								c0,0.5-0.1,1.1-0.4,1.5l-33.3,56.4c-0.3,0.5-0.7,0.9-1.3,1.2L68.4,176C68,176.2,67.5,176.3,67.1,176.3z M43.4,108.6
								l25.2,60.6l35-16.8L136,97.6V41.3l-9.6-34.2L65.1,10L43.4,108.6z"/>
						</g>
					</g>
				</g>
				<g>
					<g>
						<defs>
							<path id="SVGID_3_" d="M224.6,122.5c0,17.4-10.1,26.7-13.2,47.1c-4.1,26.1-37.5,37.1-64.2,37.1c-25.6,0-58.5-9.4-62.3-34.3
								c-2.6-17.2-15.1-31.3-15.1-50c0-40.7,26.5-74.6,61.8-82.5c5-1.1,10.3,2,15.6,2c3.9,0,7.8-3.4,11.6-2.8
								C196,45.3,224.6,80.3,224.6,122.5z"/>
						</defs>
						<clipPath id="SVGID_4_">
							<use xlink:href="#SVGID_3_"  style="overflow:visible;"/>
						</clipPath>
						<g class="st4">
							<polygon class="st2" points="157,41 157,98.5 190.4,154.8 229,173.3 286.7,149.4 245.3,-11.6 143,16.5 							"/>
							<path class="st3" d="M229,176.3c-0.4,0-0.9-0.1-1.3-0.3l-38.6-18.5c-0.5-0.3-1-0.7-1.3-1.2L154.4,100c-0.3-0.5-0.4-1-0.4-1.5
								V41.8L140.4,18c-0.5-0.8-0.5-1.8-0.2-2.6c0.4-0.9,1.1-1.5,2-1.7l102.3-28.1c0.8-0.2,1.6-0.1,2.3,0.3c0.7,0.4,1.2,1.1,1.4,1.8
								l41.4,161c0.4,1.4-0.4,2.9-1.7,3.5L230.1,176C229.8,176.2,229.4,176.3,229,176.3z M192.5,152.5l36.6,17.5l54.1-22.4
								l-40-155.6l-95.7,26.3l12.1,21.2c0.3,0.4,0.4,1,0.4,1.5v56.7L192.5,152.5z"/>
						</g>
					</g>
				</g>
				<g>
					<g id="XMLID_1_">
						<path class="st3" d="M147.2,209.7c-29.7,0-61.4-11.4-65.2-36.8c-1.1-7.1-4-13.7-7-20.7c-4-9.2-8.1-18.6-8.1-29.8
							c0-41.2,27-77.1,64.1-85.4c3.5-0.8,6.9,0.1,10.2,0.9c2.1,0.5,4.2,1,6.1,1c1.2,0,2.7-0.6,4.3-1.2c2.3-0.9,4.9-2,7.8-1.5
							c18.9,3.1,36.2,13.5,48.7,29.3c12.6,15.9,19.6,36.1,19.6,57.1c0,9.9-3.1,17.3-6.3,25.1c-2.7,6.5-5.5,13.3-6.9,22.4
							C210.1,197.3,176.5,209.7,147.2,209.7z M133.9,42.6c-0.6,0-1.1,0.1-1.6,0.2C97.8,50.5,72.8,84,72.8,122.4
							c0,9.9,3.7,18.4,7.6,27.4c3.1,7,6.2,14.3,7.4,22.2c3.3,21.8,33.1,31.8,59.4,31.8c14,0,28.4-3.1,39.3-8.5
							c8.8-4.4,19.8-12.4,22-26.1c1.5-9.8,4.6-17.2,7.3-23.8c3.1-7.6,5.9-14.1,5.9-22.9c0-19.6-6.5-38.5-18.3-53.3
							c-11.6-14.6-27.6-24.2-45-27.1c-1.2-0.2-2.9,0.5-4.6,1.2c-1.9,0.8-4.1,1.7-6.5,1.7c-2.6,0-5.1-0.6-7.5-1.2
							C137.6,43.1,135.7,42.6,133.9,42.6z"/>
					</g>
				</g>
			</g>
			<g>
				<ellipse transform="matrix(0.5 -0.866 0.866 0.5 -32.0495 154.52)" class="st5" cx="117.8" cy="105" rx="27" ry="18.9"/>
				<path class="st3" d="M111.3,133.1c-3,0-5.9-0.7-8.4-2.2c-5.2-3-8.4-8.6-9-15.8c-0.6-6.8,1.2-14.2,5.1-21l0,0
					c3.9-6.7,9.4-12,15.6-14.9c6.5-3,13-3.1,18.2-0.1c5.2,3,8.4,8.6,9,15.8c0.6,6.8-1.2,14.2-5.1,21
					C130.4,126.6,120.4,133.1,111.3,133.1z M124.2,82.6c-2.3,0-4.7,0.6-7.2,1.7c-5.1,2.4-9.8,6.9-13.1,12.6l0,0
					c-3.3,5.7-4.9,12-4.4,17.6c0.5,5.2,2.7,9.3,6.2,11.3c7.7,4.4,19.3-1.4,26-12.9c3.3-5.7,4.9-12,4.4-17.6
					c-0.5-5.2-2.7-9.3-6.2-11.3C128.2,83.1,126.2,82.6,124.2,82.6z M101.4,95.6L101.4,95.6L101.4,95.6z"/>
			</g>
			<g>
				<ellipse transform="matrix(0.866 -0.5 0.5 0.866 -28.6115 103.2197)" class="st5" cx="178.3" cy="105" rx="18.9" ry="27"/>
				<path class="st3" d="M184.7,133.1c-3.1,0-6.4-0.8-9.6-2.3c-6.2-2.9-11.7-8.2-15.6-14.9c-8.2-14.3-6.5-30.7,3.9-36.7l0,0
					c10.4-6,25.5,0.7,33.8,15c8.2,14.3,6.5,30.7-3.9,36.7C190.6,132.3,187.7,133.1,184.7,133.1z M166.2,84.1
					c-7.7,4.4-8.5,17.4-1.8,28.9c3.3,5.7,8,10.2,13.1,12.6c4.8,2.2,9.4,2.3,12.9,0.3c7.7-4.4,8.5-17.4,1.8-28.9
					C185.5,85.4,173.9,79.7,166.2,84.1L166.2,84.1z"/>
			</g>
			<g>
				<circle class="st2" cx="174.6" cy="113.5" r="3.7"/>
				<path class="st3" d="M174.6,120.1c-3.6,0-6.6-2.9-6.6-6.6s2.9-6.6,6.6-6.6c3.6,0,6.6,2.9,6.6,6.6S178.2,120.1,174.6,120.1z
					 M174.6,112.7c-0.5,0-0.8,0.4-0.8,0.8s0.4,0.8,0.8,0.8s0.8-0.4,0.8-0.8S175.1,112.7,174.6,112.7z"/>
			</g>
			<g>
				<circle class="st2" cx="121.5" cy="113.5" r="3.7"/>
				<path class="st3" d="M121.5,120.1c-3.6,0-6.6-2.9-6.6-6.6s2.9-6.6,6.6-6.6s6.6,2.9,6.6,6.6S125.1,120.1,121.5,120.1z
					 M121.5,112.7c-0.5,0-0.8,0.4-0.8,0.8s0.4,0.8,0.8,0.8s0.8-0.4,0.8-0.8S122,112.7,121.5,112.7z"/>
			</g>
			<g>
				<path class="st2" d="M212.8,50.6l5.3-0.4c2.7-0.2,5.4,0.7,7.4,2.5l16.2,14.7c0.4,0.3,0.8,0.7,1.2,0.9l10.3,6.7
					c3.2,2.1,4.9,6,4.3,9.8l-4.1,25.3c-1.5,9.3-5.6,17.9-11.8,25l0,0c-1.5,1.7-2.4,3.8-2.6,6l-2.1,22.3c-0.3,3.3-2.2,6.1-5.1,7.7
					l0,0c-5.1,2.8-11.4,0.6-13.7-4.7l0,0c-5.3-12.3-7.8-25.7-7.4-39.1l0.5-13.3c0.3-9.4-0.5-18.8-2.3-28L204,62.4
					C202.8,56.6,206.9,51.1,212.8,50.6z"/>
				<path class="st3" d="M227.1,175.2c-1.4,0-2.7-0.2-4.1-0.7c-3.4-1.1-6.1-3.7-7.5-7c-5.4-12.6-8-26.5-7.6-40.3l0.5-13.3
					c0.3-9-0.5-18.2-2.2-27.3L201.2,63c-0.7-3.6,0.1-7.3,2.2-10.2c2.2-2.9,5.5-4.7,9.1-5l5.3-0.4c3.5-0.3,7,0.9,9.5,3.2l16.1,14.6
					c0.1,0.1,0.3,0.2,0.4,0.3c0.1,0.1,0.2,0.2,0.3,0.3l0.2,0.1l10.3,6.7c4.2,2.7,6.3,7.7,5.6,12.6l-4.1,25.3
					c-1.6,9.7-5.9,18.9-12.5,26.4c-1.1,1.3-1.8,2.8-1.9,4.4l-2.1,22.3c-0.4,4.2-2.8,7.8-6.6,9.9
					C231.3,174.6,229.2,175.2,227.1,175.2z M213,53.4c-2,0.2-3.8,1.2-5,2.8c-1.2,1.6-1.6,3.6-1.2,5.6l4.9,23.6
					c1.9,9.6,2.7,19.2,2.4,28.7l-0.5,13.3c-0.4,13,2.1,26.1,7.2,37.9c0.8,1.8,2.3,3.2,4.1,3.8c1.9,0.6,3.8,0.5,5.6-0.5
					c2.1-1.2,3.4-3.1,3.6-5.5l2.1-22.3c0.3-2.8,1.4-5.5,3.3-7.6c5.9-6.7,9.7-14.9,11.1-23.6l4.1-25.3c0.4-2.7-0.8-5.5-3-7l-10.2-6.6
					c-0.5-0.3-0.9-0.6-1.2-0.8c-0.1-0.1-0.2-0.2-0.3-0.2l-0.2-0.2l-16.2-14.7c-1.4-1.3-3.3-1.9-5.3-1.8L213,53.4z"/>
			</g>
			<g>
				<path class="st2" d="M83.6,50.6l-5.3-0.4c-2.7-0.2-5.4,0.7-7.4,2.5L54.7,67.4c-0.4,0.3-0.8,0.7-1.2,0.9L43.2,75
					c-3.2,2.1-4.9,6-4.3,9.8l4.1,25.3c1.5,9.3,5.6,17.9,11.8,25l0,0c1.5,1.7,2.4,3.8,2.6,6l2.1,22.3c0.3,3.3,2.2,6.1,5.1,7.7l0,0
					c5.1,2.8,11.4,0.6,13.7-4.7l0,0c5.3-12.3,7.8-25.7,7.4-39.1L85.2,114c-0.3-9.4,0.5-18.8,2.3-28l4.9-23.8
					C93.5,56.6,89.4,51.1,83.6,50.6z"/>
				<path class="st3" d="M69.3,175.2c-2.1,0-4.2-0.5-6.1-1.6c-3.8-2.1-6.2-5.7-6.6-9.9l-2.1-22.3c-0.1-1.6-0.8-3.1-1.9-4.4
					c-6.6-7.6-10.9-16.7-12.5-26.4l-4.1-25.3c-0.8-5,1.4-9.9,5.6-12.6l10.6-6.9c0,0,0.1-0.1,0.2-0.2c0.1-0.1,0.3-0.2,0.4-0.3
					L69,50.6c2.6-2.3,6-3.5,9.5-3.2l5.3,0.4c3.6,0.3,6.9,2.1,9,5c2.2,2.9,3,6.5,2.3,10l-4.9,23.8c-1.8,9.1-2.5,18.3-2.2,27.3
					l0.5,13.3c0.4,13.9-2.2,27.8-7.6,40.3c-1.4,3.3-4.2,5.8-7.5,7C72.1,174.9,70.7,175.2,69.3,175.2z M55,70.8l-10.2,6.6
					c-2.2,1.5-3.5,4.3-3,7l4.1,25.3c1.4,8.7,5.3,16.8,11.1,23.6c1.9,2.1,3,4.8,3.3,7.6l2.1,22.3c0.2,2.3,1.5,4.3,3.6,5.5
					c1.7,1,3.7,1.1,5.6,0.5c1.9-0.6,3.3-2,4.1-3.8c5.1-11.8,7.6-24.9,7.2-37.9l-0.5-13.3c-0.3-9.5,0.5-19.1,2.4-28.7l4.9-23.8
					c0.4-1.9-0.1-3.8-1.3-5.4c-1.2-1.6-3-2.6-4.9-2.8L78.1,53c-1.9-0.1-3.9,0.5-5.3,1.8L56.4,69.7c-0.1,0.1-0.2,0.2-0.3,0.2
					C55.8,70.2,55.4,70.5,55,70.8z"/>
			</g>
			<g>
				<g>
					<path class="st0" d="M168.5,188c0,11.7-9.5,21.3-21.3,21.3s-21.3-9.5-21.3-21.3"/>
					<path class="st3" d="M147.2,212.2c-13.3,0-24.2-10.8-24.2-24.2c0-1.6,1.3-2.9,2.9-2.9s2.9,1.3,2.9,2.9
						c0,10.2,8.3,18.4,18.4,18.4s18.4-8.3,18.4-18.4c0-1.6,1.3-2.9,2.9-2.9s2.9,1.3,2.9,2.9C171.4,201.3,160.5,212.2,147.2,212.2z"
						/>
				</g>
				<g>
					<path class="st0" d="M191.3,157.5v22.2c8.6,11.5-4.5,37.3-22.7,37.3c-11.3,0-21.6-21-21.4-37.2"/>
					<path class="st3" d="M168.6,219.9c-3.9,0-7.8-1.9-11.4-5.5c-7.6-7.7-13-22.2-12.8-34.5c0-1.6,1.3-2.8,2.9-2.8
						c1.6,0,2.8,1.3,2.8,2.9c-0.1,10.8,4.7,23.9,11.2,30.5c1.7,1.8,4.4,3.9,7.3,3.9c9.2,0,16.4-7.7,19.7-14.3
						c3.5-7.1,3.8-14.3,0.7-18.4l-0.6-0.8v-23.1c0-1.6,1.3-2.9,2.9-2.9s2.9,1.3,2.9,2.9v21.3c3.9,6,3.6,14.9-0.8,23.6
						C186.9,215.3,176.4,219.9,168.6,219.9z"/>
				</g>
				<g>
					<path class="st0" d="M147.2,179.8c0.2,16.1-10.1,37.5-21.4,37.2c-17-0.4-31.4-29-22.7-37.3v-22.1"/>
					<path class="st3" d="M126,219.9c-0.1,0-0.2,0-0.3,0c-8.4-0.2-20.1-7.3-26-22.5c-3-7.8-2.8-14.6,0.5-18.7v-21
						c0-1.6,1.3-2.9,2.9-2.9s2.9,1.3,2.9,2.9v23.3l-0.9,0.8c-2.3,2.2-2.3,7.5,0,13.5c3.5,9,11.9,18.7,20.8,18.9
						c2.8,0,5.4-1.9,7.1-3.5c6.5-6.4,11.5-20,11.4-30.8c0-1.6,1.2-2.9,2.8-2.9c1.6,0,2.9,1.2,2.9,2.8c0.2,12.4-5.5,27.4-13.1,34.9
						C133.5,218.1,129.7,219.9,126,219.9z"/>
				</g>
				<g>
					<path class="st0" d="M191.3,160.6L191.3,160.6c0-22.1-17.9-39.9-39.9-39.9h-8.2c-22.1,0-39.9,17.9-39.9,39.9l0,0"/>
					<path class="st3" d="M191.3,163.5c-1.6,0-2.9-1.3-2.9-2.9c0-20.4-16.6-37-37-37h-8.2c-20.4,0-37,16.6-37,37
						c0,1.6-1.3,2.9-2.9,2.9s-2.9-1.3-2.9-2.9c0-23.6,19.2-42.8,42.8-42.8h8.2c23.6,0,42.8,19.2,42.8,42.8
						C194.2,162.2,192.9,163.5,191.3,163.5z"/>
				</g>
				<g>
					<g>
						<circle class="st3" cx="176.4" cy="166.6" r="3"/>
					</g>
					<g>
						<circle class="st3" cx="173.4" cy="180.7" r="3"/>
					</g>
					<g>
						<circle class="st3" cx="163.3" cy="162.4" r="3"/>
					</g>
				</g>
				<g>
					<g>
						<circle class="st3" cx="117" cy="166.6" r="3"/>
					</g>
					<g>
						<circle class="st3" cx="120" cy="180.7" r="3"/>
					</g>
					<g>
						<circle class="st3" cx="130.2" cy="162.4" r="3"/>
					</g>
				</g>
				<g>
					<path class="st3" d="M147.2,181.8c-1.6,0-2.9-1.3-2.9-2.9v-30.5c0-1.6,1.3-2.9,2.9-2.9s2.9,1.3,2.9,2.9v30.5
						C150.1,180.5,148.8,181.8,147.2,181.8z"/>
				</g>
				<g>
					<path class="st5" d="M166.8,141.3c0,5.6-8.7,14-19.5,14s-19.5-8.4-19.5-14s8.7-10.1,19.5-10.1S166.8,135.8,166.8,141.3z"/>
					<path class="st3" d="M147.3,158.2c-12,0-22.4-9.3-22.4-16.9c0-7.4,9.6-13,22.4-13c12.5,0,22.4,5.7,22.4,13
						C169.7,148.9,159.3,158.2,147.3,158.2z M147.3,134.1c-9.5,0-16.6,3.8-16.6,7.2c0,3.7,7.2,11.1,16.6,11.1s16.6-7.4,16.6-11.1
						C163.9,137.9,156.7,134.1,147.3,134.1z"/>
				</g>
			</g>
		</g>
		<g>
			<path class="st0" d="M241.2,67.4c0,0,6.5,6.2,7.1,17.4"/>
			<path class="st3" d="M248.3,87.7c-1.5,0-2.8-1.2-2.8-2.7c-0.5-10-6.2-15.4-6.2-15.5c-1.1-1.1-1.2-2.9-0.1-4
				c1.1-1.1,2.9-1.2,4-0.1c0.3,0.3,7.3,7.1,8,19.3c0.1,1.6-1.1,2.9-2.7,3C248.4,87.7,248.3,87.7,248.3,87.7z"/>
		</g>
		<g>
			<path class="st0" d="M191.7,179.8c-0.7,2.4-1.9,5.1-3.6,7.8"/>
			<path class="st3" d="M188.1,190.5c-0.5,0-1-0.1-1.5-0.4c-1.3-0.8-1.7-2.6-0.9-3.9c1.5-2.3,2.6-4.8,3.3-7.1c0.4-1.5,2-2.4,3.5-1.9
				c1.5,0.4,2.4,2,1.9,3.5c-0.8,2.8-2.2,5.7-3.9,8.5C190,190,189,190.5,188.1,190.5z"/>
		</g>
		<g>
			<path class="st0" d="M103.5,179.8c0.7,2.4,1.9,5.1,3.6,7.8"/>
			<path class="st3" d="M107.1,190.5c-0.9,0-1.9-0.5-2.4-1.3c-1.8-2.8-3.1-5.7-3.9-8.5c-0.4-1.5,0.4-3.1,1.9-3.5
				c1.5-0.4,3.1,0.4,3.5,1.9c0.7,2.3,1.8,4.7,3.3,7.1c0.8,1.3,0.4,3.1-0.9,3.9C108.1,190.3,107.6,190.5,107.1,190.5z"/>
		</g>
		<g>
			<path class="st0" d="M56.2,65.9c0,0-6.5,6.2-7.1,17.4"/>
			<path class="st3" d="M49.1,86.2c-0.1,0-0.1,0-0.2,0c-1.6-0.1-2.8-1.4-2.7-3c0.7-12.2,7.7-19,8-19.3c1.1-1.1,2.9-1,4,0.1
				c1.1,1.1,1,2.9-0.1,4c-0.1,0.1-5.7,5.7-6.2,15.5C51.9,85,50.6,86.2,49.1,86.2z"/>
		</g>
	</g>
	<g class="st6">
		<g>
			<path class="st7" d="M317,204.8c0.5,0.6,1.4,0.9,2.7,0.9h2.2c0.3,0,0.6,0.1,0.8,0.3c0.2,0.2,0.3,0.5,0.3,0.8v1.3
				c0,0.3-0.1,0.6-0.3,0.8c-0.2,0.2-0.5,0.3-0.8,0.3h-2.6c-2.3,0-4-0.6-5.1-1.8s-1.6-3-1.6-5.3v-10.6h-3c-0.3,0-0.6-0.1-0.8-0.3
				c-0.2-0.2-0.3-0.5-0.3-0.8v-1.3c0-0.3,0.1-0.6,0.3-0.8c0.2-0.2,0.5-0.3,0.8-0.3h3v-6.7c0-0.3,0.1-0.6,0.3-0.8
				c0.2-0.2,0.5-0.3,0.8-0.3h1.5c0.3,0,0.6,0.1,0.8,0.3c0.2,0.2,0.3,0.5,0.3,0.8v6.7h5.2c0.3,0,0.6,0.1,0.8,0.3
				c0.2,0.2,0.3,0.5,0.3,0.8v1.3c0,0.3-0.1,0.6-0.3,0.8c-0.2,0.2-0.5,0.3-0.8,0.3h-5.2v10.6C316.2,203.3,316.5,204.2,317,204.8z"/>
		</g>
		<g>
			<path class="st7" d="M345.6,209c-0.2,0.2-0.5,0.3-0.8,0.3h-1.5c-0.3,0-0.6-0.1-0.8-0.3c-0.2-0.2-0.3-0.5-0.3-0.8v-10.8
				c0-2-0.5-3.6-1.5-4.7c-1-1.1-2.4-1.6-4.2-1.6c-1.8,0-3.2,0.5-4.2,1.6s-1.5,2.6-1.5,4.7v10.8c0,0.3-0.1,0.6-0.3,0.8
				c-0.2,0.2-0.5,0.3-0.8,0.3h-1.5c-0.3,0-0.6-0.1-0.8-0.3c-0.2-0.2-0.3-0.5-0.3-0.8v-26.9c0-0.3,0.1-0.6,0.3-0.8
				c0.2-0.2,0.5-0.3,0.8-0.3h1.5c0.3,0,0.6,0.1,0.8,0.3c0.2,0.2,0.3,0.5,0.3,0.8v9c0.6-0.8,1.4-1.5,2.5-2c1-0.5,2.3-0.8,3.9-0.8
				c1.7,0,3.2,0.4,4.6,1.1c1.3,0.7,2.4,1.8,3.1,3.2s1.1,3,1.1,4.9v11.4C346,208.5,345.9,208.8,345.6,209z"/>
		</g>
		<g>
			<path class="st7" d="M367.2,190.4c1.7,1.9,2.5,4.4,2.5,7.6v1.1c0,0.3-0.1,0.6-0.3,0.8c-0.2,0.2-0.5,0.3-0.8,0.3h-14.1v0.2
				c0.1,1.8,0.6,3.2,1.7,4.2c1,1,2.4,1.5,4.1,1.5c1.4,0,2.4-0.2,3.2-0.5c0.8-0.4,1.4-0.9,2-1.5c0.2-0.2,0.4-0.4,0.6-0.5
				s0.4-0.1,0.7-0.1h1.2c0.3,0,0.6,0.1,0.8,0.3c0.2,0.2,0.3,0.5,0.3,0.8c-0.1,0.7-0.5,1.5-1.2,2.3s-1.7,1.4-3,2
				c-1.3,0.5-2.8,0.8-4.6,0.8c-1.7,0-3.3-0.4-4.7-1.2c-1.4-0.8-2.4-1.9-3.3-3.3c-0.8-1.4-1.3-3-1.5-4.8c-0.1-0.8-0.1-1.4-0.1-1.9
				s0-1.1,0.1-1.9c0.2-1.7,0.6-3.2,1.5-4.6c0.8-1.4,1.9-2.4,3.2-3.2c1.4-0.8,2.9-1.2,4.7-1.2C363.2,187.6,365.5,188.5,367.2,190.4z
				 M366.1,196.7v-0.1c0-1.7-0.5-3-1.6-4s-2.4-1.5-4.2-1.5c-1.6,0-2.9,0.5-4,1.5s-1.7,2.3-1.7,4v0.1H366.1z"/>
		</g>
		<g>
			<path class="st7" d="M384.8,188.3c0.2-0.2,0.5-0.3,0.8-0.3h1.5c0.3,0,0.6,0.1,0.8,0.3c0.2,0.2,0.3,0.5,0.3,0.8v10.8
				c0,2.1,0.5,3.6,1.4,4.7c0.9,1.1,2.3,1.6,4.1,1.6c1.7,0,3.1-0.5,4.1-1.6s1.5-2.6,1.5-4.7v-10.8c0-0.3,0.1-0.6,0.3-0.8
				c0.2-0.2,0.5-0.3,0.8-0.3h1.5c0.3,0,0.6,0.1,0.8,0.3c0.2,0.2,0.3,0.5,0.3,0.8v19.1c0,0.3-0.1,0.6-0.3,0.8
				c-0.2,0.2-0.5,0.3-0.8,0.3h-1.5c-0.3,0-0.6-0.1-0.8-0.3c-0.2-0.2-0.3-0.5-0.3-0.8v-1.3c-1.4,1.9-3.5,2.8-6.1,2.8
				s-4.7-0.8-6.3-2.5c-1.6-1.6-2.4-3.9-2.4-6.7v-11.4C384.5,188.8,384.6,188.6,384.8,188.3z"/>
		</g>
		<g>
			<path class="st7" d="M412.5,209c-0.2,0.2-0.5,0.3-0.8,0.3h-1.5c-0.3,0-0.6-0.1-0.8-0.3c-0.2-0.2-0.3-0.5-0.3-0.8v-26.9
				c0-0.3,0.1-0.6,0.3-0.8c0.2-0.2,0.5-0.3,0.8-0.3h1.5c0.3,0,0.6,0.1,0.8,0.3c0.2,0.2,0.3,0.5,0.3,0.8v26.9
				C412.8,208.5,412.7,208.8,412.5,209z"/>
		</g>
		<g>
			<path class="st7" d="M425.3,204.8c0.5,0.6,1.4,0.9,2.7,0.9h2.2c0.3,0,0.6,0.1,0.8,0.3c0.2,0.2,0.3,0.5,0.3,0.8v1.3
				c0,0.3-0.1,0.6-0.3,0.8c-0.2,0.2-0.5,0.3-0.8,0.3h-2.6c-2.3,0-4-0.6-5.1-1.8s-1.6-3-1.6-5.3v-10.6h-3c-0.3,0-0.6-0.1-0.8-0.3
				c-0.2-0.2-0.3-0.5-0.3-0.8v-1.3c0-0.3,0.1-0.6,0.3-0.8c0.2-0.2,0.5-0.3,0.8-0.3h3v-6.7c0-0.3,0.1-0.6,0.3-0.8
				c0.2-0.2,0.5-0.3,0.8-0.3h1.5c0.3,0,0.6,0.1,0.8,0.3c0.2,0.2,0.3,0.5,0.3,0.8v6.7h5.2c0.3,0,0.6,0.1,0.8,0.3
				c0.2,0.2,0.3,0.5,0.3,0.8v1.3c0,0.3-0.1,0.6-0.3,0.8c-0.2,0.2-0.5,0.3-0.8,0.3h-5.2v10.6C424.5,203.3,424.8,204.2,425.3,204.8z"
				/>
		</g>
		<g>
			<path class="st7" d="M439.2,184.5c-0.2,0.2-0.5,0.3-0.8,0.3h-2.3c-0.3,0-0.6-0.1-0.8-0.3c-0.2-0.2-0.3-0.5-0.3-0.8v-2.3
				c0-0.3,0.1-0.6,0.3-0.8c0.2-0.2,0.5-0.3,0.8-0.3h2.3c0.3,0,0.6,0.1,0.8,0.3c0.2,0.2,0.3,0.5,0.3,0.8v2.3
				C439.5,184,439.4,184.2,439.2,184.5z M438.8,209c-0.2,0.2-0.5,0.3-0.8,0.3h-1.5c-0.3,0-0.6-0.1-0.8-0.3c-0.2-0.2-0.3-0.5-0.3-0.8
				v-19.1c0-0.3,0.1-0.6,0.3-0.8c0.2-0.2,0.5-0.3,0.8-0.3h1.5c0.3,0,0.6,0.1,0.8,0.3c0.2,0.2,0.3,0.5,0.3,0.8v19.1
				C439.1,208.5,439,208.8,438.8,209z"/>
		</g>
		<g>
			<path class="st7" d="M451.2,188.4c0.8-0.5,1.9-0.8,3.3-0.8c3.2,0,5.4,1.2,6.7,3.6c0.8-1.1,1.7-2,2.7-2.6s2.3-0.9,4-0.9
				c2.7,0,4.7,0.8,6,2.4c1.3,1.6,1.9,3.9,1.9,6.8v11.3c0,0.3-0.1,0.6-0.3,0.8s-0.5,0.3-0.8,0.3h-1.5c-0.3,0-0.6-0.1-0.8-0.3
				c-0.2-0.2-0.3-0.5-0.3-0.8v-10.9c0-4.1-1.6-6.1-4.8-6.1c-1.5,0-2.6,0.5-3.5,1.5s-1.3,2.4-1.3,4.4v11.2c0,0.3-0.1,0.6-0.3,0.8
				c-0.2,0.2-0.5,0.3-0.8,0.3h-1.5c-0.3,0-0.6-0.1-0.8-0.3s-0.3-0.5-0.3-0.8v-10.9c0-4.1-1.6-6.1-4.8-6.1c-1.5,0-2.6,0.5-3.5,1.5
				s-1.3,2.4-1.3,4.4v11.2c0,0.3-0.1,0.6-0.3,0.8c-0.2,0.2-0.5,0.3-0.8,0.3h-1.5c-0.3,0-0.6-0.1-0.8-0.3c-0.2-0.2-0.3-0.5-0.3-0.8
				v-19.1c0-0.3,0.1-0.6,0.3-0.8c0.2-0.2,0.5-0.3,0.8-0.3h1.5c0.3,0,0.6,0.1,0.8,0.3c0.2,0.2,0.3,0.5,0.3,0.8v1.3
				C449.6,189.6,450.3,188.9,451.2,188.4z"/>
		</g>
		<g>
			<path class="st7" d="M494.3,195.8v-0.5c0-1.3-0.4-2.4-1.3-3.1c-0.9-0.7-2-1.1-3.5-1.1c-1.1,0-1.9,0.2-2.6,0.6
				c-0.6,0.4-1.2,0.9-1.7,1.7c-0.2,0.2-0.3,0.4-0.5,0.5s-0.5,0.1-0.8,0.1h-1.2c-0.3,0-0.6-0.1-0.8-0.3c-0.2-0.2-0.3-0.5-0.3-0.8
				c0.1-0.8,0.5-1.6,1.2-2.4c0.7-0.8,1.7-1.5,2.9-2c1.2-0.5,2.5-0.8,3.8-0.8c2.5,0,4.6,0.7,6.2,2.1c1.6,1.4,2.4,3.4,2.4,6v12.5
				c0,0.3-0.1,0.6-0.3,0.8s-0.5,0.3-0.8,0.3h-1.5c-0.3,0-0.6-0.1-0.8-0.3c-0.2-0.2-0.3-0.5-0.3-0.8v-1.7c-0.4,1-1.4,1.8-2.8,2.3
				c-1.4,0.6-2.8,0.9-4.3,0.9c-1.4,0-2.6-0.3-3.7-0.8s-1.9-1.2-2.5-2.1c-0.6-0.9-0.9-1.9-0.9-2.9c0-2,0.8-3.6,2.3-4.8
				s3.6-1.9,6.1-2.4L494.3,195.8z M494.3,199.1l-4.8,0.8c-1.8,0.3-3.2,0.7-4.1,1.3s-1.5,1.4-1.5,2.3c0,0.7,0.3,1.3,0.9,1.8
				s1.6,0.8,2.9,0.8c2,0,3.6-0.6,4.8-1.7c1.2-1.1,1.8-2.6,1.8-4.4L494.3,199.1L494.3,199.1z"/>
		</g>
		<g>
			<path class="st7" d="M510,204.8c0.5,0.6,1.4,0.9,2.7,0.9h2.2c0.3,0,0.6,0.1,0.8,0.3s0.3,0.5,0.3,0.8v1.3c0,0.3-0.1,0.6-0.3,0.8
				s-0.5,0.3-0.8,0.3h-2.6c-2.3,0-4-0.6-5.1-1.8s-1.6-3-1.6-5.3v-10.6h-3c-0.3,0-0.6-0.1-0.8-0.3c-0.2-0.2-0.3-0.5-0.3-0.8v-1.3
				c0-0.3,0.1-0.6,0.3-0.8c0.2-0.2,0.5-0.3,0.8-0.3h3v-6.7c0-0.3,0.1-0.6,0.3-0.8c0.2-0.2,0.5-0.3,0.8-0.3h1.5
				c0.3,0,0.6,0.1,0.8,0.3c0.2,0.2,0.3,0.5,0.3,0.8v6.7h5.2c0.3,0,0.6,0.1,0.8,0.3s0.3,0.5,0.3,0.8v1.3c0,0.3-0.1,0.6-0.3,0.8
				s-0.5,0.3-0.8,0.3h-5.2v10.6C509.3,203.3,509.6,204.2,510,204.8z"/>
		</g>
		<g>
			<path class="st7" d="M535.4,190.4c1.7,1.9,2.5,4.4,2.5,7.6v1.1c0,0.3-0.1,0.6-0.3,0.8s-0.5,0.3-0.8,0.3h-14.1v0.2
				c0.1,1.8,0.6,3.2,1.7,4.2s2.4,1.5,4.1,1.5c1.4,0,2.4-0.2,3.2-0.5c0.8-0.4,1.4-0.9,2-1.5c0.2-0.2,0.4-0.4,0.6-0.5s0.4-0.1,0.7-0.1
				h1.2c0.3,0,0.6,0.1,0.8,0.3s0.3,0.5,0.3,0.8c-0.1,0.7-0.5,1.5-1.2,2.3s-1.7,1.4-3,2c-1.3,0.5-2.8,0.8-4.6,0.8
				c-1.7,0-3.3-0.4-4.7-1.2s-2.5-1.9-3.3-3.3s-1.3-3-1.5-4.8c-0.1-0.8-0.1-1.4-0.1-1.9s0-1.1,0.1-1.9c0.2-1.7,0.6-3.2,1.5-4.6
				s1.9-2.4,3.2-3.2c1.4-0.8,2.9-1.2,4.7-1.2C531.4,187.6,533.7,188.5,535.4,190.4z M534.3,196.7v-0.1c0-1.7-0.5-3-1.6-4
				s-2.4-1.5-4.2-1.5c-1.6,0-2.9,0.5-4,1.5s-1.7,2.3-1.7,4v0.1H534.3z"/>
		</g>
		<g>
			<path class="st7" d="M568.2,190.4c1.7,1.9,2.5,4.4,2.5,7.6v1.1c0,0.3-0.1,0.6-0.3,0.8s-0.5,0.3-0.8,0.3h-14.1v0.2
				c0.1,1.8,0.6,3.2,1.7,4.2s2.4,1.5,4.1,1.5c1.4,0,2.4-0.2,3.2-0.5c0.8-0.4,1.4-0.9,2-1.5c0.2-0.2,0.4-0.4,0.6-0.5s0.4-0.1,0.7-0.1
				h1.2c0.3,0,0.6,0.1,0.8,0.3s0.3,0.5,0.3,0.8c-0.1,0.7-0.5,1.5-1.2,2.3s-1.7,1.4-3,2c-1.3,0.5-2.8,0.8-4.6,0.8
				c-1.7,0-3.3-0.4-4.7-1.2s-2.5-1.9-3.3-3.3s-1.3-3-1.5-4.8c-0.1-0.8-0.1-1.4-0.1-1.9s0-1.1,0.1-1.9c0.2-1.7,0.6-3.2,1.5-4.6
				s1.9-2.4,3.2-3.2c1.4-0.8,2.9-1.2,4.7-1.2C564.2,187.6,566.5,188.5,568.2,190.4z M567.1,196.7v-0.1c0-1.7-0.5-3-1.6-4
				s-2.4-1.5-4.2-1.5c-1.6,0-2.9,0.5-4,1.5s-1.7,2.3-1.7,4v0.1H567.1z"/>
		</g>
		<g>
			<path class="st7" d="M581.6,188.4c0.8-0.5,1.9-0.8,3.3-0.8c3.2,0,5.4,1.2,6.7,3.6c0.8-1.1,1.7-2,2.7-2.6s2.3-0.9,4-0.9
				c2.7,0,4.7,0.8,6,2.4c1.3,1.6,1.9,3.9,1.9,6.8v11.3c0,0.3-0.1,0.6-0.3,0.8s-0.5,0.3-0.8,0.3h-1.5c-0.3,0-0.6-0.1-0.8-0.3
				s-0.3-0.5-0.3-0.8v-10.9c0-4.1-1.6-6.1-4.8-6.1c-1.5,0-2.6,0.5-3.5,1.5s-1.3,2.4-1.3,4.4v11.2c0,0.3-0.1,0.6-0.3,0.8
				s-0.5,0.3-0.8,0.3h-1.5c-0.3,0-0.6-0.1-0.8-0.3s-0.3-0.5-0.3-0.8v-10.9c0-4.1-1.6-6.1-4.8-6.1c-1.5,0-2.6,0.5-3.5,1.5
				s-1.3,2.4-1.3,4.4v11.2c0,0.3-0.1,0.6-0.3,0.8s-0.5,0.3-0.8,0.3H577c-0.3,0-0.6-0.1-0.8-0.3s-0.3-0.5-0.3-0.8v-19.1
				c0-0.3,0.1-0.6,0.3-0.8s0.5-0.3,0.8-0.3h1.5c0.3,0,0.6,0.1,0.8,0.3s0.3,0.5,0.3,0.8v1.3C580.1,189.6,580.8,188.9,581.6,188.4z"/>
		</g>
		<g>
			<path class="st7" d="M627.4,190.4c1.7,1.9,2.5,4.4,2.5,7.6v1.1c0,0.3-0.1,0.6-0.3,0.8s-0.5,0.3-0.8,0.3h-14.1v0.2
				c0.1,1.8,0.6,3.2,1.7,4.2s2.4,1.5,4.1,1.5c1.4,0,2.4-0.2,3.2-0.5c0.8-0.4,1.4-0.9,2-1.5c0.2-0.2,0.4-0.4,0.6-0.5s0.4-0.1,0.7-0.1
				h1.2c0.3,0,0.6,0.1,0.8,0.3s0.3,0.5,0.3,0.8c-0.1,0.7-0.5,1.5-1.2,2.3s-1.7,1.4-3,2c-1.3,0.5-2.8,0.8-4.6,0.8
				c-1.7,0-3.3-0.4-4.7-1.2s-2.5-1.9-3.3-3.3s-1.3-3-1.5-4.8c-0.1-0.8-0.1-1.4-0.1-1.9s0-1.1,0.1-1.9c0.2-1.7,0.6-3.2,1.5-4.6
				s1.9-2.4,3.2-3.2c1.4-0.8,2.9-1.2,4.7-1.2C623.4,187.6,625.7,188.5,627.4,190.4z M626.3,196.7v-0.1c0-1.7-0.5-3-1.6-4
				s-2.4-1.5-4.2-1.5c-1.6,0-2.9,0.5-4,1.5s-1.7,2.3-1.7,4v0.1H626.3z"/>
		</g>
		<g>
			<path class="st7" d="M646.5,188.3c0.2,0.2,0.3,0.5,0.3,0.8v1.3c0,0.3-0.1,0.6-0.3,0.8s-0.5,0.3-0.8,0.3h-2.4
				c-1.5,0-2.7,0.4-3.5,1.2s-1.2,2-1.2,3.5v12c0,0.3-0.1,0.6-0.3,0.8s-0.5,0.3-0.8,0.3H636c-0.3,0-0.6-0.1-0.8-0.3s-0.3-0.5-0.3-0.8
				v-19.1c0-0.3,0.1-0.6,0.3-0.8s0.5-0.3,0.8-0.3h1.5c0.3,0,0.6,0.1,0.8,0.3s0.3,0.5,0.3,0.8v1.3c0.5-0.8,1.2-1.4,2-1.8
				c0.8-0.4,1.8-0.6,3-0.6h2.1C646,188,646.3,188.1,646.5,188.3z"/>
		</g>
		<g>
			<path class="st7" d="M662,188.4c1,0.5,1.9,1.2,2.5,2v-1.3c0-0.3,0.1-0.6,0.3-0.8s0.5-0.3,0.8-0.3h1.5c0.3,0,0.6,0.1,0.8,0.3
				s0.3,0.5,0.3,0.8V209c0,2.9-0.8,5.2-2.5,6.8c-1.6,1.7-4,2.5-7.2,2.5c-2,0-3.8-0.3-5.2-0.9c-1.4-0.6-2.4-1.4-3.1-2.3
				c-0.7-0.9-1-1.9-1.1-2.8c0-0.3,0.1-0.6,0.3-0.8s0.5-0.3,0.8-0.3h1.2c0.3,0,0.6,0.1,0.8,0.2c0.2,0.2,0.4,0.5,0.6,0.9
				c0.3,0.6,0.8,1.2,1.6,1.8c0.8,0.5,2,0.8,3.7,0.8c4.2,0,6.3-1.8,6.3-5.3V207c-1.4,1.9-3.5,2.8-6.3,2.8c-1.7,0-3.2-0.4-4.6-1.2
				c-1.4-0.8-2.5-1.9-3.3-3.4s-1.3-3.2-1.4-5.1v-1.4v-1.4c0.1-2,0.5-3.7,1.4-5.1c0.8-1.5,1.9-2.6,3.3-3.4c1.4-0.8,2.9-1.2,4.6-1.2
				C659.7,187.6,661,187.9,662,188.4z M654.4,192.9c-1.1,1.1-1.6,2.7-1.7,4.7v1.1v1.1c0.1,2,0.7,3.5,1.7,4.7c1,1.1,2.5,1.7,4.2,1.7
				s3.2-0.5,4.2-1.6c1.1-1.1,1.6-2.6,1.7-4.4c0-0.3,0-0.8,0-1.5s0-1.2,0-1.5c-0.1-1.9-0.7-3.4-1.7-4.5s-2.5-1.6-4.2-1.6
				C656.8,191.1,655.4,191.7,654.4,192.9z"/>
		</g>
		<g>
			<path class="st7" d="M689.7,190.4c1.7,1.9,2.5,4.4,2.5,7.6v1.1c0,0.3-0.1,0.6-0.3,0.8s-0.5,0.3-0.8,0.3H677v0.2
				c0.1,1.8,0.6,3.2,1.7,4.2s2.4,1.5,4.1,1.5c1.4,0,2.4-0.2,3.2-0.5c0.8-0.4,1.4-0.9,2-1.5c0.2-0.2,0.4-0.4,0.6-0.5s0.4-0.1,0.7-0.1
				h1.2c0.3,0,0.6,0.1,0.8,0.3s0.3,0.5,0.3,0.8c-0.1,0.7-0.5,1.5-1.2,2.3s-1.7,1.4-3,2c-1.3,0.5-2.8,0.8-4.6,0.8
				c-1.7,0-3.3-0.4-4.7-1.2s-2.5-1.9-3.3-3.3s-1.3-3-1.5-4.8c-0.1-0.8-0.1-1.4-0.1-1.9s0-1.1,0.1-1.9c0.2-1.7,0.6-3.2,1.5-4.6
				s1.9-2.4,3.2-3.2c1.4-0.8,2.9-1.2,4.7-1.2C685.7,187.6,688,188.5,689.7,190.4z M688.5,196.7v-0.1c0-1.7-0.5-3-1.6-4
				s-2.4-1.5-4.2-1.5c-1.6,0-2.9,0.5-4,1.5s-1.7,2.3-1.7,4v0.1H688.5z"/>
		</g>
		<g>
			<path class="st7" d="M715.8,209c-0.2,0.2-0.5,0.3-0.8,0.3h-1.5c-0.3,0-0.6-0.1-0.8-0.3s-0.3-0.5-0.3-0.8v-10.8
				c0-2-0.5-3.6-1.5-4.7s-2.4-1.6-4.2-1.6s-3.2,0.5-4.2,1.6s-1.5,2.6-1.5,4.7v10.8c0,0.3-0.1,0.6-0.3,0.8s-0.5,0.3-0.8,0.3h-1.5
				c-0.3,0-0.6-0.1-0.8-0.3s-0.3-0.5-0.3-0.8v-19.1c0-0.3,0.1-0.6,0.3-0.8s0.5-0.3,0.8-0.3h1.5c0.3,0,0.6,0.1,0.8,0.3
				s0.3,0.5,0.3,0.8v1.3c0.6-0.8,1.4-1.5,2.5-2s2.3-0.8,3.9-0.8c1.7,0,3.2,0.4,4.6,1.1c1.3,0.7,2.4,1.8,3.1,3.2
				c0.8,1.4,1.1,3,1.1,4.9v11.4C716.1,208.5,716,208.8,715.8,209z"/>
		</g>
		<g>
			<path class="st7" d="M736.2,203c0.2-0.4,0.4-0.7,0.6-0.9c0.2-0.2,0.5-0.2,0.8-0.2h1.2c0.3,0,0.6,0.1,0.8,0.3s0.3,0.4,0.3,0.7
				c0,0.9-0.4,1.9-1.1,3s-1.8,2-3.2,2.7s-3,1.1-4.9,1.1s-3.6-0.4-5-1.2s-2.5-1.9-3.3-3.4c-0.8-1.4-1.2-3-1.3-4.8c0-0.3,0-1,0-1.9
				c0-0.7,0-1.1,0-1.4c0.2-2.8,1.2-5,2.8-6.8c1.6-1.7,3.9-2.6,6.8-2.6c1.9,0,3.5,0.4,4.9,1.1s2.4,1.6,3.2,2.7c0.7,1.1,1.1,2,1.2,3
				c0,0.3-0.1,0.6-0.3,0.8s-0.5,0.3-0.8,0.3h-1.2c-0.3,0-0.6-0.1-0.8-0.2c-0.2-0.2-0.4-0.5-0.6-0.9c-1-2.1-2.8-3.2-5.5-3.2
				c-1.5,0-2.8,0.5-3.9,1.5c-1.1,1-1.8,2.5-1.9,4.6c0,0.3,0,0.8,0,1.5c0,0.6,0,1.1,0,1.4c0.2,2,0.8,3.6,1.9,4.6
				c1.1,1,2.4,1.5,3.9,1.5C733.4,206.2,735.2,205.1,736.2,203z"/>
		</g>
		<g>
			<path class="st7" d="M749.2,217.1h-1.7c-0.3,0-0.5-0.1-0.7-0.3s-0.3-0.4-0.3-0.7c0-0.1,0-0.2,0-0.3l3.9-8.6l-8.1-18
				c0-0.1,0-0.2,0-0.3c0-0.3,0.1-0.5,0.3-0.7s0.4-0.3,0.7-0.3h1.7c0.5,0,0.9,0.3,1.2,1l6.3,13.9l6.4-13.9c0.2-0.7,0.6-1,1.2-1h1.7
				c0.3,0,0.5,0.1,0.7,0.3s0.3,0.4,0.3,0.7c0,0.1,0,0.2,0,0.3L750.5,216C750.1,216.8,749.7,217.1,749.2,217.1z"/>
		</g>
		<g>
			<path class="st7" d="M787.4,188.3c0.2,0.2,0.3,0.5,0.3,0.8v1.3c0,0.3-0.1,0.6-0.3,0.8s-0.5,0.3-0.8,0.3h-2.4
				c-1.5,0-2.7,0.4-3.5,1.2s-1.2,2-1.2,3.5v12c0,0.3-0.1,0.6-0.3,0.8s-0.5,0.3-0.8,0.3h-1.5c-0.3,0-0.6-0.1-0.8-0.3
				s-0.3-0.5-0.3-0.8v-19.1c0-0.3,0.1-0.6,0.3-0.8s0.5-0.3,0.8-0.3h1.5c0.3,0,0.6,0.1,0.8,0.3s0.3,0.5,0.3,0.8v1.3
				c0.5-0.8,1.2-1.4,2-1.8c0.8-0.4,1.8-0.6,3-0.6h2.1C786.9,188,787.1,188.1,787.4,188.3z"/>
		</g>
		<g>
			<path class="st7" d="M806.1,190.4c1.7,1.9,2.5,4.4,2.5,7.6v1.1c0,0.3-0.1,0.6-0.3,0.8s-0.5,0.3-0.8,0.3h-14.1v0.2
				c0.1,1.8,0.6,3.2,1.7,4.2s2.4,1.5,4.1,1.5c1.4,0,2.4-0.2,3.2-0.5c0.8-0.4,1.4-0.9,2-1.5c0.2-0.2,0.4-0.4,0.6-0.5s0.4-0.1,0.7-0.1
				h1.2c0.3,0,0.6,0.1,0.8,0.3s0.3,0.5,0.3,0.8c-0.1,0.7-0.5,1.5-1.2,2.3s-1.7,1.4-3,2c-1.3,0.5-2.8,0.8-4.6,0.8
				c-1.7,0-3.3-0.4-4.7-1.2s-2.5-1.9-3.3-3.3s-1.3-3-1.5-4.8c-0.1-0.8-0.1-1.4-0.1-1.9s0-1.1,0.1-1.9c0.2-1.7,0.6-3.2,1.5-4.6
				s1.9-2.4,3.2-3.2c1.4-0.8,2.9-1.2,4.7-1.2C802.1,187.6,804.4,188.5,806.1,190.4z M805,196.7v-0.1c0-1.7-0.5-3-1.6-4
				s-2.4-1.5-4.2-1.5c-1.6,0-2.9,0.5-4,1.5s-1.7,2.3-1.7,4v0.1H805z"/>
		</g>
		<g>
			<path class="st7" d="M812.7,193.8c0-1.1,0.3-2.1,0.9-3.1s1.5-1.7,2.7-2.2c1.2-0.6,2.6-0.8,4.4-0.8c1.7,0,3.2,0.2,4.4,0.7
				s2.2,1.1,2.8,1.8s1,1.4,1,2.1c0,0.3-0.1,0.5-0.3,0.7s-0.5,0.3-0.8,0.3h-1.4c-0.5,0-0.9-0.2-1.2-0.6c-0.8-1.1-2.3-1.6-4.5-1.6
				c-1.3,0-2.3,0.2-3,0.7c-0.8,0.5-1.2,1.1-1.2,1.9c0,0.7,0.2,1.2,0.6,1.6s1,0.6,1.7,0.9c0.8,0.2,2.1,0.5,4.1,1
				c2.4,0.5,4.1,1.3,5.1,2.4s1.5,2.4,1.5,3.9c0,1.1-0.3,2.2-1,3.1c-0.7,1-1.7,1.7-3,2.3s-2.8,0.9-4.5,0.9s-3.2-0.3-4.5-0.8
				s-2.3-1.2-3-1.9c-0.7-0.8-1.1-1.5-1.1-2.2c0-0.3,0.1-0.5,0.3-0.7s0.5-0.3,0.8-0.3h1.5c0.2,0,0.5,0,0.7,0.1s0.4,0.2,0.5,0.5
				c0.9,1.3,2.5,1.9,4.8,1.9c1.3,0,2.4-0.3,3.4-0.8s1.5-1.2,1.5-2c0-0.7-0.2-1.2-0.7-1.6s-1.2-0.7-2.1-1c-0.9-0.3-2.3-0.6-4.2-1
				C814.7,199,812.7,197,812.7,193.8z"/>
		</g>
		<g>
			<path class="st7" d="M838,216c0,0.3-0.1,0.6-0.3,0.8s-0.5,0.3-0.8,0.3h-1.5c-0.3,0-0.6-0.1-0.8-0.3s-0.3-0.5-0.3-0.8v-26.9
				c0-0.3,0.1-0.6,0.3-0.8s0.5-0.3,0.8-0.3h1.5c0.3,0,0.6,0.1,0.8,0.3s0.3,0.5,0.3,0.8v1.3c1.4-1.9,3.5-2.8,6.3-2.8
				c1.7,0,3.2,0.4,4.6,1.2c1.4,0.8,2.5,1.9,3.3,3.4s1.3,3.2,1.4,5.2c0,0.3,0,0.7,0,1.3s0,1.1,0,1.4c-0.1,2-0.5,3.7-1.4,5.1
				s-1.9,2.6-3.3,3.4s-2.9,1.2-4.6,1.2c-1.5,0-2.8-0.3-3.9-0.8s-1.9-1.2-2.5-2v9H838z M839.7,204.6c1.1,1.1,2.5,1.6,4.2,1.6
				c1.8,0,3.2-0.6,4.2-1.7c1-1.1,1.6-2.7,1.7-4.7c0-0.3,0-0.7,0-1.1s0-0.9,0-1.1c-0.1-2-0.7-3.5-1.7-4.7c-1.1-1.1-2.5-1.7-4.2-1.7
				s-3.1,0.5-4.2,1.6c-1.1,1.1-1.7,2.4-1.8,4.2v1.6v1.6C838.1,202,838.7,203.5,839.7,204.6z"/>
		</g>
		<g>
			<path class="st7" d="M877.3,198.7c0,0.7,0,1.3-0.1,1.9c-0.2,2.8-1.2,5-2.9,6.7s-4,2.5-6.8,2.5s-5.1-0.8-6.8-2.5s-2.6-3.9-2.9-6.7
				c0-0.3,0-0.9,0-1.9s0-1.7,0-2c0.2-2.8,1.2-5,2.9-6.7s4-2.5,6.8-2.5s5.1,0.8,6.8,2.5s2.6,3.9,2.9,6.7
				C877.3,197.3,877.3,198,877.3,198.7z M871.7,192.7c-1-1.1-2.4-1.6-4.2-1.6s-3.2,0.5-4.2,1.6s-1.6,2.5-1.7,4.2c0,0.3,0,0.9,0,1.8
				c0,0.8,0,1.4,0,1.7c0.2,1.7,0.7,3.2,1.7,4.2s2.4,1.6,4.2,1.6s3.2-0.5,4.2-1.6s1.6-2.5,1.7-4.2c0.1-0.6,0.1-1.2,0.1-1.7
				s0-1.1-0.1-1.8C873.3,195.2,872.7,193.8,871.7,192.7z"/>
		</g>
		<g>
			<path class="st7" d="M901,209c-0.2,0.2-0.5,0.3-0.8,0.3h-1.5c-0.3,0-0.6-0.1-0.8-0.3s-0.3-0.5-0.3-0.8v-10.8c0-2-0.5-3.6-1.5-4.7
				s-2.4-1.6-4.2-1.6s-3.2,0.5-4.2,1.6s-1.5,2.6-1.5,4.7v10.8c0,0.3-0.1,0.6-0.3,0.8s-0.5,0.3-0.8,0.3h-1.5c-0.3,0-0.6-0.1-0.8-0.3
				s-0.3-0.5-0.3-0.8v-19.1c0-0.3,0.1-0.6,0.3-0.8s0.5-0.3,0.8-0.3h1.5c0.3,0,0.6,0.1,0.8,0.3s0.3,0.5,0.3,0.8v1.3
				c0.6-0.8,1.4-1.5,2.5-2s2.3-0.8,3.9-0.8c1.7,0,3.2,0.4,4.6,1.1c1.3,0.7,2.4,1.8,3.1,3.2c0.8,1.4,1.1,3,1.1,4.9v11.4
				C901.3,208.5,901.2,208.8,901,209z"/>
		</g>
		<g>
			<path class="st7" d="M906.4,193.8c0-1.1,0.3-2.1,0.9-3.1s1.5-1.7,2.7-2.2c1.2-0.6,2.6-0.8,4.4-0.8c1.7,0,3.2,0.2,4.4,0.7
				s2.2,1.1,2.8,1.8s1,1.4,1,2.1c0,0.3-0.1,0.5-0.3,0.7s-0.5,0.3-0.8,0.3H920c-0.5,0-0.9-0.2-1.2-0.6c-0.8-1.1-2.3-1.6-4.5-1.6
				c-1.3,0-2.3,0.2-3,0.7c-0.8,0.5-1.2,1.1-1.2,1.9c0,0.7,0.2,1.2,0.6,1.6s1,0.6,1.7,0.9c0.8,0.2,2.1,0.5,4.1,1
				c2.4,0.5,4.1,1.3,5.1,2.4s1.5,2.4,1.5,3.9c0,1.1-0.3,2.2-1,3.1c-0.7,1-1.7,1.7-3,2.3s-2.8,0.9-4.5,0.9s-3.2-0.3-4.5-0.8
				s-2.3-1.2-3-1.9c-0.7-0.8-1.1-1.5-1.1-2.2c0-0.3,0.1-0.5,0.3-0.7s0.5-0.3,0.8-0.3h1.5c0.2,0,0.5,0,0.7,0.1s0.4,0.2,0.5,0.5
				c0.9,1.3,2.5,1.9,4.8,1.9c1.3,0,2.4-0.3,3.4-0.8s1.5-1.2,1.5-2c0-0.7-0.2-1.2-0.7-1.6s-1.2-0.7-2.1-1c-0.9-0.3-2.3-0.6-4.2-1
				C908.4,199,906.4,197,906.4,193.8z"/>
		</g>
		<g>
			<path class="st7" d="M943.3,190.4c1.7,1.9,2.5,4.4,2.5,7.6v1.1c0,0.3-0.1,0.6-0.3,0.8s-0.5,0.3-0.8,0.3h-14.1v0.2
				c0.1,1.8,0.6,3.2,1.7,4.2s2.4,1.5,4.1,1.5c1.4,0,2.4-0.2,3.2-0.5c0.8-0.4,1.4-0.9,2-1.5c0.2-0.2,0.4-0.4,0.6-0.5s0.4-0.1,0.7-0.1
				h1.2c0.3,0,0.6,0.1,0.8,0.3s0.3,0.5,0.3,0.8c-0.1,0.7-0.5,1.5-1.2,2.3s-1.7,1.4-3,2c-1.3,0.5-2.8,0.8-4.6,0.8
				c-1.7,0-3.3-0.4-4.7-1.2s-2.5-1.9-3.3-3.3s-1.3-3-1.5-4.8c-0.1-0.8-0.1-1.4-0.1-1.9s0-1.1,0.1-1.9c0.2-1.7,0.6-3.2,1.5-4.6
				s1.9-2.4,3.2-3.2c1.4-0.8,2.9-1.2,4.7-1.2C939.3,187.6,941.6,188.5,943.3,190.4z M942.1,196.7v-0.1c0-1.7-0.5-3-1.6-4
				s-2.4-1.5-4.2-1.5c-1.6,0-2.9,0.5-4,1.5s-1.7,2.3-1.7,4v0.1H942.1z"/>
		</g>
		<g>
			<path class="st7" d="M972.9,188.4c1,0.5,1.9,1.2,2.5,2v-1.3c0-0.3,0.1-0.6,0.3-0.8s0.5-0.3,0.8-0.3h1.5c0.3,0,0.6,0.1,0.8,0.3
				s0.3,0.5,0.3,0.8V209c0,2.9-0.8,5.2-2.5,6.8c-1.6,1.7-4,2.5-7.2,2.5c-2,0-3.8-0.3-5.2-0.9c-1.4-0.6-2.4-1.4-3.1-2.3
				c-0.7-0.9-1-1.9-1.1-2.8c0-0.3,0.1-0.6,0.3-0.8s0.5-0.3,0.8-0.3h1.2c0.3,0,0.6,0.1,0.8,0.2c0.2,0.2,0.4,0.5,0.6,0.9
				c0.3,0.6,0.8,1.2,1.6,1.8c0.8,0.5,2,0.8,3.7,0.8c4.2,0,6.3-1.8,6.3-5.3V207c-1.4,1.9-3.5,2.8-6.3,2.8c-1.7,0-3.2-0.4-4.6-1.2
				c-1.4-0.8-2.5-1.9-3.3-3.4s-1.3-3.2-1.4-5.1v-1.4v-1.4c0.1-2,0.5-3.7,1.4-5.1c0.8-1.5,1.9-2.6,3.3-3.4c1.4-0.8,2.9-1.2,4.6-1.2
				C970.5,187.6,971.8,187.9,972.9,188.4z M965.2,192.9c-1.1,1.1-1.6,2.7-1.7,4.7v1.1v1.1c0.1,2,0.7,3.5,1.7,4.7
				c1,1.1,2.5,1.7,4.2,1.7s3.2-0.5,4.2-1.6c1.1-1.1,1.6-2.6,1.7-4.4c0-0.3,0-0.8,0-1.5s0-1.2,0-1.5c-0.1-1.9-0.7-3.4-1.7-4.5
				s-2.5-1.6-4.2-1.6C967.6,191.1,966.2,191.7,965.2,192.9z"/>
		</g>
		<g>
			<path class="st7" d="M985.3,188.3c0.2-0.2,0.5-0.3,0.8-0.3h1.5c0.3,0,0.6,0.1,0.8,0.3s0.3,0.5,0.3,0.8v10.8
				c0,2.1,0.5,3.6,1.4,4.7c0.9,1.1,2.3,1.6,4.1,1.6c1.7,0,3.1-0.5,4.1-1.6s1.5-2.6,1.5-4.7v-10.8c0-0.3,0.1-0.6,0.3-0.8
				s0.5-0.3,0.8-0.3h1.5c0.3,0,0.6,0.1,0.8,0.3s0.3,0.5,0.3,0.8v19.1c0,0.3-0.1,0.6-0.3,0.8s-0.5,0.3-0.8,0.3h-1.5
				c-0.3,0-0.6-0.1-0.8-0.3s-0.3-0.5-0.3-0.8v-1.3c-1.4,1.9-3.5,2.8-6.1,2.8s-4.7-0.8-6.3-2.5c-1.6-1.6-2.4-3.9-2.4-6.7v-11.4
				C985,188.8,985.1,188.6,985.3,188.3z"/>
		</g>
		<g>
			<path class="st7" d="M1013.5,184.5c-0.2,0.2-0.5,0.3-0.8,0.3h-2.3c-0.3,0-0.6-0.1-0.8-0.3s-0.3-0.5-0.3-0.8v-2.3
				c0-0.3,0.1-0.6,0.3-0.8s0.5-0.3,0.8-0.3h2.3c0.3,0,0.6,0.1,0.8,0.3s0.3,0.5,0.3,0.8v2.3C1013.8,184,1013.7,184.2,1013.5,184.5z
				 M1013,209c-0.2,0.2-0.5,0.3-0.8,0.3h-1.5c-0.3,0-0.6-0.1-0.8-0.3s-0.3-0.5-0.3-0.8v-19.1c0-0.3,0.1-0.6,0.3-0.8s0.5-0.3,0.8-0.3
				h1.5c0.3,0,0.6,0.1,0.8,0.3s0.3,0.5,0.3,0.8v19.1C1013.4,208.5,1013.3,208.8,1013,209z"/>
		</g>
		<g>
			<path class="st7" d="M1034.1,181.4c0-0.3,0.1-0.6,0.3-0.8c0.2-0.2,0.5-0.3,0.8-0.3h1.5c0.3,0,0.6,0.1,0.8,0.3
				c0.2,0.2,0.3,0.5,0.3,0.8v26.9c0,0.3-0.1,0.6-0.3,0.8s-0.5,0.3-0.8,0.3h-1.5c-0.3,0-0.6-0.1-0.8-0.3c-0.2-0.2-0.3-0.5-0.3-0.8
				V207c-1.4,1.9-3.5,2.8-6.3,2.8c-1.7,0-3.2-0.4-4.6-1.2s-2.5-1.9-3.3-3.4s-1.3-3.2-1.4-5.2v-1.4v-1.3c0.1-2,0.5-3.7,1.4-5.1
				c0.8-1.5,1.9-2.6,3.3-3.4c1.4-0.8,2.9-1.2,4.6-1.2c1.5,0,2.8,0.3,3.9,0.8c1,0.5,1.9,1.2,2.5,2L1034.1,181.4L1034.1,181.4z
				 M1032.4,192.7c-1.1-1.1-2.5-1.6-4.2-1.6c-1.8,0-3.2,0.6-4.2,1.7c-1.1,1.1-1.6,2.7-1.7,4.7v1.1v1.1c0.1,2,0.7,3.5,1.7,4.7
				c1,1.1,2.5,1.7,4.2,1.7s3.1-0.5,4.2-1.6c1.1-1,1.7-2.4,1.8-4.2c0-0.3,0-0.8,0-1.6s0-1.3,0-1.6
				C1034,195.3,1033.5,193.8,1032.4,192.7z"/>
		</g>
		<g>
			<path class="st7" d="M1059.3,190.4c1.7,1.9,2.5,4.4,2.5,7.6v1.1c0,0.3-0.1,0.6-0.3,0.8c-0.2,0.2-0.5,0.3-0.8,0.3h-14.1v0.2
				c0.1,1.8,0.6,3.2,1.7,4.2s2.4,1.5,4.1,1.5c1.4,0,2.4-0.2,3.2-0.5c0.8-0.4,1.4-0.9,2-1.5c0.2-0.2,0.4-0.4,0.6-0.5s0.4-0.1,0.7-0.1
				h1.2c0.3,0,0.6,0.1,0.8,0.3c0.2,0.2,0.3,0.5,0.3,0.8c-0.1,0.7-0.5,1.5-1.2,2.3s-1.7,1.4-3,2c-1.3,0.5-2.8,0.8-4.6,0.8
				c-1.7,0-3.3-0.4-4.7-1.2c-1.4-0.8-2.5-1.9-3.3-3.3s-1.3-3-1.5-4.8c-0.1-0.8-0.1-1.4-0.1-1.9s0-1.1,0.1-1.9
				c0.2-1.7,0.6-3.2,1.5-4.6s1.9-2.4,3.2-3.2c1.4-0.8,2.9-1.2,4.7-1.2C1055.3,187.6,1057.6,188.5,1059.3,190.4z M1058.2,196.7v-0.1
				c0-1.7-0.5-3-1.6-4s-2.4-1.5-4.2-1.5c-1.6,0-2.9,0.5-4,1.5s-1.7,2.3-1.7,4v0.1H1058.2z"/>
		</g>
	</g>
</g>
</svg>
